M48
; DRILL file {KiCad 7.0.8} date 2025 April 01, Tuesday 12:56:10
; FORMAT={-:-/ absolute / inch / decimal}
; #@! TF.CreationDate,2025-04-01T12:56:10+02:00
; #@! TF.GenerationSoftware,Kicad,Pcbnew,7.0.8
; #@! TF.FileFunction,Plated,1,2,PTH
FMAT,2
INCH
; #@! TA.AperFunction,Plated,PTH,ViaDrill
T1C0.0295
; #@! TA.AperFunction,Plated,PTH,ComponentDrill
T2C0.0295
; #@! TA.AperFunction,Plated,PTH,ComponentDrill
T3C0.0315
; #@! TA.AperFunction,Plated,PTH,ComponentDrill
T4C0.0394
; #@! TA.AperFunction,Plated,PTH,ComponentDrill
T5C0.1260
%
G90
G05
T1
X4.3552Y-3.1528
T2
X6.1505Y-3.1508
X6.2005Y-3.1508
X6.2505Y-3.1508
X7.1255Y-3.0758
X7.1255Y-3.1258
X7.1255Y-3.1758
X7.1255Y-3.3508
X7.1255Y-3.4008
X7.1255Y-3.4508
X7.1255Y-3.6258
X7.1255Y-3.6758
X7.1255Y-3.7258
X7.1255Y-3.9008
X7.1255Y-3.9508
X7.1255Y-4.0008
X7.1255Y-4.1758
X7.1255Y-4.2258
X7.1255Y-4.2758
X7.1255Y-4.4508
X7.1255Y-4.5008
X7.1255Y-4.5508
T3
X3.8005Y-3.8008
X3.8005Y-3.9758
X3.8005Y-4.1508
X3.8005Y-4.3458
X3.8005Y-4.5308
X4.1755Y-3.3508
X4.1755Y-3.6508
X4.2005Y-3.8008
X4.2005Y-3.9758
X4.2005Y-4.1508
X4.2005Y-4.3458
X4.2005Y-4.5308
X4.2755Y-3.3508
X4.2755Y-3.6508
X4.3755Y-3.3508
X4.3755Y-3.6508
X4.4255Y-3.8008
X4.4255Y-3.9758
X4.4255Y-4.1508
X4.4255Y-4.3458
X4.4255Y-4.5258
X4.4755Y-3.3508
X4.4755Y-3.6508
X4.5755Y-3.3508
X4.5755Y-3.6508
X4.6755Y-3.3508
X4.6755Y-3.6508
X4.7755Y-3.3508
X4.7755Y-3.6508
X4.8255Y-3.8008
X4.8255Y-3.9758
X4.8255Y-4.1508
X4.8255Y-4.3458
X4.8255Y-4.5258
X4.9255Y-3.4024
X4.9255Y-3.5992
X5.0505Y-3.8008
X5.0505Y-3.9758
X5.0505Y-4.1508
X5.0505Y-4.3458
X5.0505Y-4.5258
X5.0755Y-3.3508
X5.0755Y-3.6508
X5.1755Y-3.3508
X5.1755Y-3.6508
X5.2755Y-3.3508
X5.2755Y-3.6508
X5.3755Y-3.3508
X5.3755Y-3.6508
X5.4505Y-3.8008
X5.4505Y-3.9758
X5.4505Y-4.1508
X5.4505Y-4.3458
X5.4505Y-4.5258
X5.4755Y-3.3508
X5.4755Y-3.6508
X5.5755Y-3.3508
X5.5755Y-3.6508
X5.6755Y-3.3508
X5.6755Y-3.6508
X5.6905Y-3.8008
X5.6905Y-3.9758
X5.6905Y-4.1608
X5.6905Y-4.3508
X5.6905Y-4.5308
X5.7755Y-3.3508
X5.7755Y-3.6508
X5.8755Y-3.3508
X5.8755Y-3.6508
X5.9755Y-3.3508
X5.9755Y-3.6508
X6.0905Y-3.8008
X6.0905Y-3.9758
X6.0905Y-4.1608
X6.0905Y-4.3508
X6.0905Y-4.5308
X6.1255Y-3.4024
X6.1255Y-3.5992
X6.4005Y-3.1008
X6.4005Y-3.2758
X6.4005Y-3.4508
X6.4005Y-3.6258
X6.4005Y-3.8008
X6.4005Y-3.9758
X6.4005Y-4.1608
X6.4005Y-4.3458
X6.4005Y-4.5258
X6.8005Y-3.1008
X6.8005Y-3.2758
X6.8005Y-3.4508
X6.8005Y-3.6258
X6.8005Y-3.8008
X6.8005Y-3.9758
X6.8005Y-4.1608
X6.8005Y-4.3458
X6.8005Y-4.5258
T4
X3.8003Y-3.101
X3.8003Y-3.201
X3.8003Y-3.301
X3.8003Y-3.401
X3.8003Y-3.501
X3.9003Y-3.101
X3.9003Y-3.201
X3.9003Y-3.301
X3.9003Y-3.401
X3.9003Y-3.501
X4.4629Y-3.1508
X4.5629Y-3.1508
X4.9755Y-3.1508
X5.0755Y-3.1508
X5.1755Y-3.1508
X5.2755Y-3.1508
X5.3755Y-3.1508
X5.4755Y-3.1508
X5.7028Y-3.1508
X5.9981Y-3.1508
X7.4429Y-3.4309
X7.4429Y-3.54
X7.4429Y-3.649
X7.4429Y-3.7581
X7.4429Y-3.8671
X7.4429Y-3.9762
X7.4429Y-4.0852
X7.4429Y-4.1943
X7.5547Y-3.4854
X7.5547Y-3.5945
X7.5547Y-3.7035
X7.5547Y-3.8126
X7.5547Y-3.9217
X7.5547Y-4.0307
X7.5547Y-4.1398
T5
X7.4988Y-3.1571
X7.4988Y-4.4681
T0
M30
