%TF.GenerationSoftware,KiCad,Pcbnew,7.0.8*%
%TF.CreationDate,2025-04-01T12:55:52+02:00*%
%TF.ProjectId,colorswitch,636f6c6f-7273-4776-9974-63682e6b6963,rev?*%
%TF.SameCoordinates,Original*%
%TF.FileFunction,Legend,Top*%
%TF.FilePolarity,Positive*%
%FSLAX46Y46*%
G04 Gerber Fmt 4.6, Leading zero omitted, Abs format (unit mm)*
G04 Created by KiCad (PCBNEW 7.0.8) date 2025-04-01 12:55:52*
%MOMM*%
%LPD*%
G01*
G04 APERTURE LIST*
%ADD10C,0.150000*%
%ADD11C,0.120000*%
G04 APERTURE END LIST*
D10*
X185704819Y-97173333D02*
X186419104Y-97173333D01*
X186419104Y-97173333D02*
X186561961Y-97220952D01*
X186561961Y-97220952D02*
X186657200Y-97316190D01*
X186657200Y-97316190D02*
X186704819Y-97459047D01*
X186704819Y-97459047D02*
X186704819Y-97554285D01*
X186038152Y-96268571D02*
X186704819Y-96268571D01*
X185657200Y-96506666D02*
X186371485Y-96744761D01*
X186371485Y-96744761D02*
X186371485Y-96125714D01*
X148974983Y-113454019D02*
X148641650Y-112977828D01*
X148403555Y-113454019D02*
X148403555Y-112454019D01*
X148403555Y-112454019D02*
X148784507Y-112454019D01*
X148784507Y-112454019D02*
X148879745Y-112501638D01*
X148879745Y-112501638D02*
X148927364Y-112549257D01*
X148927364Y-112549257D02*
X148974983Y-112644495D01*
X148974983Y-112644495D02*
X148974983Y-112787352D01*
X148974983Y-112787352D02*
X148927364Y-112882590D01*
X148927364Y-112882590D02*
X148879745Y-112930209D01*
X148879745Y-112930209D02*
X148784507Y-112977828D01*
X148784507Y-112977828D02*
X148403555Y-112977828D01*
X149308317Y-112454019D02*
X149927364Y-112454019D01*
X149927364Y-112454019D02*
X149594031Y-112834971D01*
X149594031Y-112834971D02*
X149736888Y-112834971D01*
X149736888Y-112834971D02*
X149832126Y-112882590D01*
X149832126Y-112882590D02*
X149879745Y-112930209D01*
X149879745Y-112930209D02*
X149927364Y-113025447D01*
X149927364Y-113025447D02*
X149927364Y-113263542D01*
X149927364Y-113263542D02*
X149879745Y-113358780D01*
X149879745Y-113358780D02*
X149832126Y-113406400D01*
X149832126Y-113406400D02*
X149736888Y-113454019D01*
X149736888Y-113454019D02*
X149451174Y-113454019D01*
X149451174Y-113454019D02*
X149355936Y-113406400D01*
X149355936Y-113406400D02*
X149308317Y-113358780D01*
X150546412Y-112454019D02*
X150641650Y-112454019D01*
X150641650Y-112454019D02*
X150736888Y-112501638D01*
X150736888Y-112501638D02*
X150784507Y-112549257D01*
X150784507Y-112549257D02*
X150832126Y-112644495D01*
X150832126Y-112644495D02*
X150879745Y-112834971D01*
X150879745Y-112834971D02*
X150879745Y-113073066D01*
X150879745Y-113073066D02*
X150832126Y-113263542D01*
X150832126Y-113263542D02*
X150784507Y-113358780D01*
X150784507Y-113358780D02*
X150736888Y-113406400D01*
X150736888Y-113406400D02*
X150641650Y-113454019D01*
X150641650Y-113454019D02*
X150546412Y-113454019D01*
X150546412Y-113454019D02*
X150451174Y-113406400D01*
X150451174Y-113406400D02*
X150403555Y-113358780D01*
X150403555Y-113358780D02*
X150355936Y-113263542D01*
X150355936Y-113263542D02*
X150308317Y-113073066D01*
X150308317Y-113073066D02*
X150308317Y-112834971D01*
X150308317Y-112834971D02*
X150355936Y-112644495D01*
X150355936Y-112644495D02*
X150403555Y-112549257D01*
X150403555Y-112549257D02*
X150451174Y-112501638D01*
X150451174Y-112501638D02*
X150546412Y-112454019D01*
X132718983Y-103802019D02*
X132385650Y-103325828D01*
X132147555Y-103802019D02*
X132147555Y-102802019D01*
X132147555Y-102802019D02*
X132528507Y-102802019D01*
X132528507Y-102802019D02*
X132623745Y-102849638D01*
X132623745Y-102849638D02*
X132671364Y-102897257D01*
X132671364Y-102897257D02*
X132718983Y-102992495D01*
X132718983Y-102992495D02*
X132718983Y-103135352D01*
X132718983Y-103135352D02*
X132671364Y-103230590D01*
X132671364Y-103230590D02*
X132623745Y-103278209D01*
X132623745Y-103278209D02*
X132528507Y-103325828D01*
X132528507Y-103325828D02*
X132147555Y-103325828D01*
X133099936Y-102897257D02*
X133147555Y-102849638D01*
X133147555Y-102849638D02*
X133242793Y-102802019D01*
X133242793Y-102802019D02*
X133480888Y-102802019D01*
X133480888Y-102802019D02*
X133576126Y-102849638D01*
X133576126Y-102849638D02*
X133623745Y-102897257D01*
X133623745Y-102897257D02*
X133671364Y-102992495D01*
X133671364Y-102992495D02*
X133671364Y-103087733D01*
X133671364Y-103087733D02*
X133623745Y-103230590D01*
X133623745Y-103230590D02*
X133052317Y-103802019D01*
X133052317Y-103802019D02*
X133671364Y-103802019D01*
X134004698Y-102802019D02*
X134623745Y-102802019D01*
X134623745Y-102802019D02*
X134290412Y-103182971D01*
X134290412Y-103182971D02*
X134433269Y-103182971D01*
X134433269Y-103182971D02*
X134528507Y-103230590D01*
X134528507Y-103230590D02*
X134576126Y-103278209D01*
X134576126Y-103278209D02*
X134623745Y-103373447D01*
X134623745Y-103373447D02*
X134623745Y-103611542D01*
X134623745Y-103611542D02*
X134576126Y-103706780D01*
X134576126Y-103706780D02*
X134528507Y-103754400D01*
X134528507Y-103754400D02*
X134433269Y-103802019D01*
X134433269Y-103802019D02*
X134147555Y-103802019D01*
X134147555Y-103802019D02*
X134052317Y-103754400D01*
X134052317Y-103754400D02*
X134004698Y-103706780D01*
X123501660Y-80363333D02*
X124215945Y-80363333D01*
X124215945Y-80363333D02*
X124358802Y-80410952D01*
X124358802Y-80410952D02*
X124454041Y-80506190D01*
X124454041Y-80506190D02*
X124501660Y-80649047D01*
X124501660Y-80649047D02*
X124501660Y-80744285D01*
X123596898Y-79934761D02*
X123549279Y-79887142D01*
X123549279Y-79887142D02*
X123501660Y-79791904D01*
X123501660Y-79791904D02*
X123501660Y-79553809D01*
X123501660Y-79553809D02*
X123549279Y-79458571D01*
X123549279Y-79458571D02*
X123596898Y-79410952D01*
X123596898Y-79410952D02*
X123692136Y-79363333D01*
X123692136Y-79363333D02*
X123787374Y-79363333D01*
X123787374Y-79363333D02*
X123930231Y-79410952D01*
X123930231Y-79410952D02*
X124501660Y-79982380D01*
X124501660Y-79982380D02*
X124501660Y-79363333D01*
X117681660Y-80363333D02*
X118395945Y-80363333D01*
X118395945Y-80363333D02*
X118538802Y-80410952D01*
X118538802Y-80410952D02*
X118634041Y-80506190D01*
X118634041Y-80506190D02*
X118681660Y-80649047D01*
X118681660Y-80649047D02*
X118681660Y-80744285D01*
X117681660Y-79982380D02*
X117681660Y-79363333D01*
X117681660Y-79363333D02*
X118062612Y-79696666D01*
X118062612Y-79696666D02*
X118062612Y-79553809D01*
X118062612Y-79553809D02*
X118110231Y-79458571D01*
X118110231Y-79458571D02*
X118157850Y-79410952D01*
X118157850Y-79410952D02*
X118253088Y-79363333D01*
X118253088Y-79363333D02*
X118491183Y-79363333D01*
X118491183Y-79363333D02*
X118586421Y-79410952D01*
X118586421Y-79410952D02*
X118634041Y-79458571D01*
X118634041Y-79458571D02*
X118681660Y-79553809D01*
X118681660Y-79553809D02*
X118681660Y-79839523D01*
X118681660Y-79839523D02*
X118634041Y-79934761D01*
X118634041Y-79934761D02*
X118586421Y-79982380D01*
X167485174Y-113327019D02*
X167151841Y-112850828D01*
X166913746Y-113327019D02*
X166913746Y-112327019D01*
X166913746Y-112327019D02*
X167294698Y-112327019D01*
X167294698Y-112327019D02*
X167389936Y-112374638D01*
X167389936Y-112374638D02*
X167437555Y-112422257D01*
X167437555Y-112422257D02*
X167485174Y-112517495D01*
X167485174Y-112517495D02*
X167485174Y-112660352D01*
X167485174Y-112660352D02*
X167437555Y-112755590D01*
X167437555Y-112755590D02*
X167389936Y-112803209D01*
X167389936Y-112803209D02*
X167294698Y-112850828D01*
X167294698Y-112850828D02*
X166913746Y-112850828D01*
X168389936Y-112327019D02*
X167913746Y-112327019D01*
X167913746Y-112327019D02*
X167866127Y-112803209D01*
X167866127Y-112803209D02*
X167913746Y-112755590D01*
X167913746Y-112755590D02*
X168008984Y-112707971D01*
X168008984Y-112707971D02*
X168247079Y-112707971D01*
X168247079Y-112707971D02*
X168342317Y-112755590D01*
X168342317Y-112755590D02*
X168389936Y-112803209D01*
X168389936Y-112803209D02*
X168437555Y-112898447D01*
X168437555Y-112898447D02*
X168437555Y-113136542D01*
X168437555Y-113136542D02*
X168389936Y-113231780D01*
X168389936Y-113231780D02*
X168342317Y-113279400D01*
X168342317Y-113279400D02*
X168247079Y-113327019D01*
X168247079Y-113327019D02*
X168008984Y-113327019D01*
X168008984Y-113327019D02*
X167913746Y-113279400D01*
X167913746Y-113279400D02*
X167866127Y-113231780D01*
X116843983Y-103802019D02*
X116510650Y-103325828D01*
X116272555Y-103802019D02*
X116272555Y-102802019D01*
X116272555Y-102802019D02*
X116653507Y-102802019D01*
X116653507Y-102802019D02*
X116748745Y-102849638D01*
X116748745Y-102849638D02*
X116796364Y-102897257D01*
X116796364Y-102897257D02*
X116843983Y-102992495D01*
X116843983Y-102992495D02*
X116843983Y-103135352D01*
X116843983Y-103135352D02*
X116796364Y-103230590D01*
X116796364Y-103230590D02*
X116748745Y-103278209D01*
X116748745Y-103278209D02*
X116653507Y-103325828D01*
X116653507Y-103325828D02*
X116272555Y-103325828D01*
X117796364Y-103802019D02*
X117224936Y-103802019D01*
X117510650Y-103802019D02*
X117510650Y-102802019D01*
X117510650Y-102802019D02*
X117415412Y-102944876D01*
X117415412Y-102944876D02*
X117320174Y-103040114D01*
X117320174Y-103040114D02*
X117224936Y-103087733D01*
X118129698Y-102802019D02*
X118748745Y-102802019D01*
X118748745Y-102802019D02*
X118415412Y-103182971D01*
X118415412Y-103182971D02*
X118558269Y-103182971D01*
X118558269Y-103182971D02*
X118653507Y-103230590D01*
X118653507Y-103230590D02*
X118701126Y-103278209D01*
X118701126Y-103278209D02*
X118748745Y-103373447D01*
X118748745Y-103373447D02*
X118748745Y-103611542D01*
X118748745Y-103611542D02*
X118701126Y-103706780D01*
X118701126Y-103706780D02*
X118653507Y-103754400D01*
X118653507Y-103754400D02*
X118558269Y-103802019D01*
X118558269Y-103802019D02*
X118272555Y-103802019D01*
X118272555Y-103802019D02*
X118177317Y-103754400D01*
X118177317Y-103754400D02*
X118129698Y-103706780D01*
X116869383Y-113301619D02*
X116536050Y-112825428D01*
X116297955Y-113301619D02*
X116297955Y-112301619D01*
X116297955Y-112301619D02*
X116678907Y-112301619D01*
X116678907Y-112301619D02*
X116774145Y-112349238D01*
X116774145Y-112349238D02*
X116821764Y-112396857D01*
X116821764Y-112396857D02*
X116869383Y-112492095D01*
X116869383Y-112492095D02*
X116869383Y-112634952D01*
X116869383Y-112634952D02*
X116821764Y-112730190D01*
X116821764Y-112730190D02*
X116774145Y-112777809D01*
X116774145Y-112777809D02*
X116678907Y-112825428D01*
X116678907Y-112825428D02*
X116297955Y-112825428D01*
X117821764Y-113301619D02*
X117250336Y-113301619D01*
X117536050Y-113301619D02*
X117536050Y-112301619D01*
X117536050Y-112301619D02*
X117440812Y-112444476D01*
X117440812Y-112444476D02*
X117345574Y-112539714D01*
X117345574Y-112539714D02*
X117250336Y-112587333D01*
X118726526Y-112301619D02*
X118250336Y-112301619D01*
X118250336Y-112301619D02*
X118202717Y-112777809D01*
X118202717Y-112777809D02*
X118250336Y-112730190D01*
X118250336Y-112730190D02*
X118345574Y-112682571D01*
X118345574Y-112682571D02*
X118583669Y-112682571D01*
X118583669Y-112682571D02*
X118678907Y-112730190D01*
X118678907Y-112730190D02*
X118726526Y-112777809D01*
X118726526Y-112777809D02*
X118774145Y-112873047D01*
X118774145Y-112873047D02*
X118774145Y-113111142D01*
X118774145Y-113111142D02*
X118726526Y-113206380D01*
X118726526Y-113206380D02*
X118678907Y-113254000D01*
X118678907Y-113254000D02*
X118583669Y-113301619D01*
X118583669Y-113301619D02*
X118345574Y-113301619D01*
X118345574Y-113301619D02*
X118250336Y-113254000D01*
X118250336Y-113254000D02*
X118202717Y-113206380D01*
X97463507Y-75889819D02*
X97463507Y-76604104D01*
X97463507Y-76604104D02*
X97415888Y-76746961D01*
X97415888Y-76746961D02*
X97320650Y-76842200D01*
X97320650Y-76842200D02*
X97177793Y-76889819D01*
X97177793Y-76889819D02*
X97082555Y-76889819D01*
X98463507Y-76889819D02*
X97892079Y-76889819D01*
X98177793Y-76889819D02*
X98177793Y-75889819D01*
X98177793Y-75889819D02*
X98082555Y-76032676D01*
X98082555Y-76032676D02*
X97987317Y-76127914D01*
X97987317Y-76127914D02*
X97892079Y-76175533D01*
X103181660Y-89681904D02*
X103991183Y-89681904D01*
X103991183Y-89681904D02*
X104086421Y-89634285D01*
X104086421Y-89634285D02*
X104134041Y-89586666D01*
X104134041Y-89586666D02*
X104181660Y-89491428D01*
X104181660Y-89491428D02*
X104181660Y-89300952D01*
X104181660Y-89300952D02*
X104134041Y-89205714D01*
X104134041Y-89205714D02*
X104086421Y-89158095D01*
X104086421Y-89158095D02*
X103991183Y-89110476D01*
X103991183Y-89110476D02*
X103181660Y-89110476D01*
X103276898Y-88681904D02*
X103229279Y-88634285D01*
X103229279Y-88634285D02*
X103181660Y-88539047D01*
X103181660Y-88539047D02*
X103181660Y-88300952D01*
X103181660Y-88300952D02*
X103229279Y-88205714D01*
X103229279Y-88205714D02*
X103276898Y-88158095D01*
X103276898Y-88158095D02*
X103372136Y-88110476D01*
X103372136Y-88110476D02*
X103467374Y-88110476D01*
X103467374Y-88110476D02*
X103610231Y-88158095D01*
X103610231Y-88158095D02*
X104181660Y-88729523D01*
X104181660Y-88729523D02*
X104181660Y-88110476D01*
X148435174Y-80389580D02*
X148387555Y-80437200D01*
X148387555Y-80437200D02*
X148244698Y-80484819D01*
X148244698Y-80484819D02*
X148149460Y-80484819D01*
X148149460Y-80484819D02*
X148006603Y-80437200D01*
X148006603Y-80437200D02*
X147911365Y-80341961D01*
X147911365Y-80341961D02*
X147863746Y-80246723D01*
X147863746Y-80246723D02*
X147816127Y-80056247D01*
X147816127Y-80056247D02*
X147816127Y-79913390D01*
X147816127Y-79913390D02*
X147863746Y-79722914D01*
X147863746Y-79722914D02*
X147911365Y-79627676D01*
X147911365Y-79627676D02*
X148006603Y-79532438D01*
X148006603Y-79532438D02*
X148149460Y-79484819D01*
X148149460Y-79484819D02*
X148244698Y-79484819D01*
X148244698Y-79484819D02*
X148387555Y-79532438D01*
X148387555Y-79532438D02*
X148435174Y-79580057D01*
X148768508Y-79484819D02*
X149387555Y-79484819D01*
X149387555Y-79484819D02*
X149054222Y-79865771D01*
X149054222Y-79865771D02*
X149197079Y-79865771D01*
X149197079Y-79865771D02*
X149292317Y-79913390D01*
X149292317Y-79913390D02*
X149339936Y-79961009D01*
X149339936Y-79961009D02*
X149387555Y-80056247D01*
X149387555Y-80056247D02*
X149387555Y-80294342D01*
X149387555Y-80294342D02*
X149339936Y-80389580D01*
X149339936Y-80389580D02*
X149292317Y-80437200D01*
X149292317Y-80437200D02*
X149197079Y-80484819D01*
X149197079Y-80484819D02*
X148911365Y-80484819D01*
X148911365Y-80484819D02*
X148816127Y-80437200D01*
X148816127Y-80437200D02*
X148768508Y-80389580D01*
X116843983Y-94886619D02*
X116510650Y-94410428D01*
X116272555Y-94886619D02*
X116272555Y-93886619D01*
X116272555Y-93886619D02*
X116653507Y-93886619D01*
X116653507Y-93886619D02*
X116748745Y-93934238D01*
X116748745Y-93934238D02*
X116796364Y-93981857D01*
X116796364Y-93981857D02*
X116843983Y-94077095D01*
X116843983Y-94077095D02*
X116843983Y-94219952D01*
X116843983Y-94219952D02*
X116796364Y-94315190D01*
X116796364Y-94315190D02*
X116748745Y-94362809D01*
X116748745Y-94362809D02*
X116653507Y-94410428D01*
X116653507Y-94410428D02*
X116272555Y-94410428D01*
X117796364Y-94886619D02*
X117224936Y-94886619D01*
X117510650Y-94886619D02*
X117510650Y-93886619D01*
X117510650Y-93886619D02*
X117415412Y-94029476D01*
X117415412Y-94029476D02*
X117320174Y-94124714D01*
X117320174Y-94124714D02*
X117224936Y-94172333D01*
X118748745Y-94886619D02*
X118177317Y-94886619D01*
X118463031Y-94886619D02*
X118463031Y-93886619D01*
X118463031Y-93886619D02*
X118367793Y-94029476D01*
X118367793Y-94029476D02*
X118272555Y-94124714D01*
X118272555Y-94124714D02*
X118177317Y-94172333D01*
X100968983Y-99331619D02*
X100635650Y-98855428D01*
X100397555Y-99331619D02*
X100397555Y-98331619D01*
X100397555Y-98331619D02*
X100778507Y-98331619D01*
X100778507Y-98331619D02*
X100873745Y-98379238D01*
X100873745Y-98379238D02*
X100921364Y-98426857D01*
X100921364Y-98426857D02*
X100968983Y-98522095D01*
X100968983Y-98522095D02*
X100968983Y-98664952D01*
X100968983Y-98664952D02*
X100921364Y-98760190D01*
X100921364Y-98760190D02*
X100873745Y-98807809D01*
X100873745Y-98807809D02*
X100778507Y-98855428D01*
X100778507Y-98855428D02*
X100397555Y-98855428D01*
X101921364Y-99331619D02*
X101349936Y-99331619D01*
X101635650Y-99331619D02*
X101635650Y-98331619D01*
X101635650Y-98331619D02*
X101540412Y-98474476D01*
X101540412Y-98474476D02*
X101445174Y-98569714D01*
X101445174Y-98569714D02*
X101349936Y-98617333D01*
X102254698Y-98331619D02*
X102921364Y-98331619D01*
X102921364Y-98331619D02*
X102492793Y-99331619D01*
X157396602Y-83755057D02*
X157301364Y-83707438D01*
X157301364Y-83707438D02*
X157206126Y-83612200D01*
X157206126Y-83612200D02*
X157063269Y-83469342D01*
X157063269Y-83469342D02*
X156968031Y-83421723D01*
X156968031Y-83421723D02*
X156872793Y-83421723D01*
X156920412Y-83659819D02*
X156825174Y-83612200D01*
X156825174Y-83612200D02*
X156729936Y-83516961D01*
X156729936Y-83516961D02*
X156682317Y-83326485D01*
X156682317Y-83326485D02*
X156682317Y-82993152D01*
X156682317Y-82993152D02*
X156729936Y-82802676D01*
X156729936Y-82802676D02*
X156825174Y-82707438D01*
X156825174Y-82707438D02*
X156920412Y-82659819D01*
X156920412Y-82659819D02*
X157110888Y-82659819D01*
X157110888Y-82659819D02*
X157206126Y-82707438D01*
X157206126Y-82707438D02*
X157301364Y-82802676D01*
X157301364Y-82802676D02*
X157348983Y-82993152D01*
X157348983Y-82993152D02*
X157348983Y-83326485D01*
X157348983Y-83326485D02*
X157301364Y-83516961D01*
X157301364Y-83516961D02*
X157206126Y-83612200D01*
X157206126Y-83612200D02*
X157110888Y-83659819D01*
X157110888Y-83659819D02*
X156920412Y-83659819D01*
X157920412Y-83088390D02*
X157825174Y-83040771D01*
X157825174Y-83040771D02*
X157777555Y-82993152D01*
X157777555Y-82993152D02*
X157729936Y-82897914D01*
X157729936Y-82897914D02*
X157729936Y-82850295D01*
X157729936Y-82850295D02*
X157777555Y-82755057D01*
X157777555Y-82755057D02*
X157825174Y-82707438D01*
X157825174Y-82707438D02*
X157920412Y-82659819D01*
X157920412Y-82659819D02*
X158110888Y-82659819D01*
X158110888Y-82659819D02*
X158206126Y-82707438D01*
X158206126Y-82707438D02*
X158253745Y-82755057D01*
X158253745Y-82755057D02*
X158301364Y-82850295D01*
X158301364Y-82850295D02*
X158301364Y-82897914D01*
X158301364Y-82897914D02*
X158253745Y-82993152D01*
X158253745Y-82993152D02*
X158206126Y-83040771D01*
X158206126Y-83040771D02*
X158110888Y-83088390D01*
X158110888Y-83088390D02*
X157920412Y-83088390D01*
X157920412Y-83088390D02*
X157825174Y-83136009D01*
X157825174Y-83136009D02*
X157777555Y-83183628D01*
X157777555Y-83183628D02*
X157729936Y-83278866D01*
X157729936Y-83278866D02*
X157729936Y-83469342D01*
X157729936Y-83469342D02*
X157777555Y-83564580D01*
X157777555Y-83564580D02*
X157825174Y-83612200D01*
X157825174Y-83612200D02*
X157920412Y-83659819D01*
X157920412Y-83659819D02*
X158110888Y-83659819D01*
X158110888Y-83659819D02*
X158206126Y-83612200D01*
X158206126Y-83612200D02*
X158253745Y-83564580D01*
X158253745Y-83564580D02*
X158301364Y-83469342D01*
X158301364Y-83469342D02*
X158301364Y-83278866D01*
X158301364Y-83278866D02*
X158253745Y-83183628D01*
X158253745Y-83183628D02*
X158206126Y-83136009D01*
X158206126Y-83136009D02*
X158110888Y-83088390D01*
X148974983Y-94912019D02*
X148641650Y-94435828D01*
X148403555Y-94912019D02*
X148403555Y-93912019D01*
X148403555Y-93912019D02*
X148784507Y-93912019D01*
X148784507Y-93912019D02*
X148879745Y-93959638D01*
X148879745Y-93959638D02*
X148927364Y-94007257D01*
X148927364Y-94007257D02*
X148974983Y-94102495D01*
X148974983Y-94102495D02*
X148974983Y-94245352D01*
X148974983Y-94245352D02*
X148927364Y-94340590D01*
X148927364Y-94340590D02*
X148879745Y-94388209D01*
X148879745Y-94388209D02*
X148784507Y-94435828D01*
X148784507Y-94435828D02*
X148403555Y-94435828D01*
X149355936Y-94007257D02*
X149403555Y-93959638D01*
X149403555Y-93959638D02*
X149498793Y-93912019D01*
X149498793Y-93912019D02*
X149736888Y-93912019D01*
X149736888Y-93912019D02*
X149832126Y-93959638D01*
X149832126Y-93959638D02*
X149879745Y-94007257D01*
X149879745Y-94007257D02*
X149927364Y-94102495D01*
X149927364Y-94102495D02*
X149927364Y-94197733D01*
X149927364Y-94197733D02*
X149879745Y-94340590D01*
X149879745Y-94340590D02*
X149308317Y-94912019D01*
X149308317Y-94912019D02*
X149927364Y-94912019D01*
X150784507Y-93912019D02*
X150594031Y-93912019D01*
X150594031Y-93912019D02*
X150498793Y-93959638D01*
X150498793Y-93959638D02*
X150451174Y-94007257D01*
X150451174Y-94007257D02*
X150355936Y-94150114D01*
X150355936Y-94150114D02*
X150308317Y-94340590D01*
X150308317Y-94340590D02*
X150308317Y-94721542D01*
X150308317Y-94721542D02*
X150355936Y-94816780D01*
X150355936Y-94816780D02*
X150403555Y-94864400D01*
X150403555Y-94864400D02*
X150498793Y-94912019D01*
X150498793Y-94912019D02*
X150689269Y-94912019D01*
X150689269Y-94912019D02*
X150784507Y-94864400D01*
X150784507Y-94864400D02*
X150832126Y-94816780D01*
X150832126Y-94816780D02*
X150879745Y-94721542D01*
X150879745Y-94721542D02*
X150879745Y-94483447D01*
X150879745Y-94483447D02*
X150832126Y-94388209D01*
X150832126Y-94388209D02*
X150784507Y-94340590D01*
X150784507Y-94340590D02*
X150689269Y-94292971D01*
X150689269Y-94292971D02*
X150498793Y-94292971D01*
X150498793Y-94292971D02*
X150403555Y-94340590D01*
X150403555Y-94340590D02*
X150355936Y-94388209D01*
X150355936Y-94388209D02*
X150308317Y-94483447D01*
X148974983Y-99357019D02*
X148641650Y-98880828D01*
X148403555Y-99357019D02*
X148403555Y-98357019D01*
X148403555Y-98357019D02*
X148784507Y-98357019D01*
X148784507Y-98357019D02*
X148879745Y-98404638D01*
X148879745Y-98404638D02*
X148927364Y-98452257D01*
X148927364Y-98452257D02*
X148974983Y-98547495D01*
X148974983Y-98547495D02*
X148974983Y-98690352D01*
X148974983Y-98690352D02*
X148927364Y-98785590D01*
X148927364Y-98785590D02*
X148879745Y-98833209D01*
X148879745Y-98833209D02*
X148784507Y-98880828D01*
X148784507Y-98880828D02*
X148403555Y-98880828D01*
X149355936Y-98452257D02*
X149403555Y-98404638D01*
X149403555Y-98404638D02*
X149498793Y-98357019D01*
X149498793Y-98357019D02*
X149736888Y-98357019D01*
X149736888Y-98357019D02*
X149832126Y-98404638D01*
X149832126Y-98404638D02*
X149879745Y-98452257D01*
X149879745Y-98452257D02*
X149927364Y-98547495D01*
X149927364Y-98547495D02*
X149927364Y-98642733D01*
X149927364Y-98642733D02*
X149879745Y-98785590D01*
X149879745Y-98785590D02*
X149308317Y-99357019D01*
X149308317Y-99357019D02*
X149927364Y-99357019D01*
X150260698Y-98357019D02*
X150927364Y-98357019D01*
X150927364Y-98357019D02*
X150498793Y-99357019D01*
X185096898Y-100445238D02*
X185049279Y-100540476D01*
X185049279Y-100540476D02*
X184954041Y-100635714D01*
X184954041Y-100635714D02*
X184811183Y-100778571D01*
X184811183Y-100778571D02*
X184763564Y-100873809D01*
X184763564Y-100873809D02*
X184763564Y-100969047D01*
X185001660Y-100921428D02*
X184954041Y-101016666D01*
X184954041Y-101016666D02*
X184858802Y-101111904D01*
X184858802Y-101111904D02*
X184668326Y-101159523D01*
X184668326Y-101159523D02*
X184334993Y-101159523D01*
X184334993Y-101159523D02*
X184144517Y-101111904D01*
X184144517Y-101111904D02*
X184049279Y-101016666D01*
X184049279Y-101016666D02*
X184001660Y-100921428D01*
X184001660Y-100921428D02*
X184001660Y-100730952D01*
X184001660Y-100730952D02*
X184049279Y-100635714D01*
X184049279Y-100635714D02*
X184144517Y-100540476D01*
X184144517Y-100540476D02*
X184334993Y-100492857D01*
X184334993Y-100492857D02*
X184668326Y-100492857D01*
X184668326Y-100492857D02*
X184858802Y-100540476D01*
X184858802Y-100540476D02*
X184954041Y-100635714D01*
X184954041Y-100635714D02*
X185001660Y-100730952D01*
X185001660Y-100730952D02*
X185001660Y-100921428D01*
X184001660Y-100159523D02*
X184001660Y-99540476D01*
X184001660Y-99540476D02*
X184382612Y-99873809D01*
X184382612Y-99873809D02*
X184382612Y-99730952D01*
X184382612Y-99730952D02*
X184430231Y-99635714D01*
X184430231Y-99635714D02*
X184477850Y-99588095D01*
X184477850Y-99588095D02*
X184573088Y-99540476D01*
X184573088Y-99540476D02*
X184811183Y-99540476D01*
X184811183Y-99540476D02*
X184906421Y-99588095D01*
X184906421Y-99588095D02*
X184954041Y-99635714D01*
X184954041Y-99635714D02*
X185001660Y-99730952D01*
X185001660Y-99730952D02*
X185001660Y-100016666D01*
X185001660Y-100016666D02*
X184954041Y-100111904D01*
X184954041Y-100111904D02*
X184906421Y-100159523D01*
X100968983Y-108755019D02*
X100635650Y-108278828D01*
X100397555Y-108755019D02*
X100397555Y-107755019D01*
X100397555Y-107755019D02*
X100778507Y-107755019D01*
X100778507Y-107755019D02*
X100873745Y-107802638D01*
X100873745Y-107802638D02*
X100921364Y-107850257D01*
X100921364Y-107850257D02*
X100968983Y-107945495D01*
X100968983Y-107945495D02*
X100968983Y-108088352D01*
X100968983Y-108088352D02*
X100921364Y-108183590D01*
X100921364Y-108183590D02*
X100873745Y-108231209D01*
X100873745Y-108231209D02*
X100778507Y-108278828D01*
X100778507Y-108278828D02*
X100397555Y-108278828D01*
X101921364Y-108755019D02*
X101349936Y-108755019D01*
X101635650Y-108755019D02*
X101635650Y-107755019D01*
X101635650Y-107755019D02*
X101540412Y-107897876D01*
X101540412Y-107897876D02*
X101445174Y-107993114D01*
X101445174Y-107993114D02*
X101349936Y-108040733D01*
X102397555Y-108755019D02*
X102588031Y-108755019D01*
X102588031Y-108755019D02*
X102683269Y-108707400D01*
X102683269Y-108707400D02*
X102730888Y-108659780D01*
X102730888Y-108659780D02*
X102826126Y-108516923D01*
X102826126Y-108516923D02*
X102873745Y-108326447D01*
X102873745Y-108326447D02*
X102873745Y-107945495D01*
X102873745Y-107945495D02*
X102826126Y-107850257D01*
X102826126Y-107850257D02*
X102778507Y-107802638D01*
X102778507Y-107802638D02*
X102683269Y-107755019D01*
X102683269Y-107755019D02*
X102492793Y-107755019D01*
X102492793Y-107755019D02*
X102397555Y-107802638D01*
X102397555Y-107802638D02*
X102349936Y-107850257D01*
X102349936Y-107850257D02*
X102302317Y-107945495D01*
X102302317Y-107945495D02*
X102302317Y-108183590D01*
X102302317Y-108183590D02*
X102349936Y-108278828D01*
X102349936Y-108278828D02*
X102397555Y-108326447D01*
X102397555Y-108326447D02*
X102492793Y-108374066D01*
X102492793Y-108374066D02*
X102683269Y-108374066D01*
X102683269Y-108374066D02*
X102778507Y-108326447D01*
X102778507Y-108326447D02*
X102826126Y-108278828D01*
X102826126Y-108278828D02*
X102873745Y-108183590D01*
X185096898Y-79490238D02*
X185049279Y-79585476D01*
X185049279Y-79585476D02*
X184954041Y-79680714D01*
X184954041Y-79680714D02*
X184811183Y-79823571D01*
X184811183Y-79823571D02*
X184763564Y-79918809D01*
X184763564Y-79918809D02*
X184763564Y-80014047D01*
X185001660Y-79966428D02*
X184954041Y-80061666D01*
X184954041Y-80061666D02*
X184858802Y-80156904D01*
X184858802Y-80156904D02*
X184668326Y-80204523D01*
X184668326Y-80204523D02*
X184334993Y-80204523D01*
X184334993Y-80204523D02*
X184144517Y-80156904D01*
X184144517Y-80156904D02*
X184049279Y-80061666D01*
X184049279Y-80061666D02*
X184001660Y-79966428D01*
X184001660Y-79966428D02*
X184001660Y-79775952D01*
X184001660Y-79775952D02*
X184049279Y-79680714D01*
X184049279Y-79680714D02*
X184144517Y-79585476D01*
X184144517Y-79585476D02*
X184334993Y-79537857D01*
X184334993Y-79537857D02*
X184668326Y-79537857D01*
X184668326Y-79537857D02*
X184858802Y-79585476D01*
X184858802Y-79585476D02*
X184954041Y-79680714D01*
X184954041Y-79680714D02*
X185001660Y-79775952D01*
X185001660Y-79775952D02*
X185001660Y-79966428D01*
X184096898Y-79156904D02*
X184049279Y-79109285D01*
X184049279Y-79109285D02*
X184001660Y-79014047D01*
X184001660Y-79014047D02*
X184001660Y-78775952D01*
X184001660Y-78775952D02*
X184049279Y-78680714D01*
X184049279Y-78680714D02*
X184096898Y-78633095D01*
X184096898Y-78633095D02*
X184192136Y-78585476D01*
X184192136Y-78585476D02*
X184287374Y-78585476D01*
X184287374Y-78585476D02*
X184430231Y-78633095D01*
X184430231Y-78633095D02*
X185001660Y-79204523D01*
X185001660Y-79204523D02*
X185001660Y-78585476D01*
X148974983Y-108882019D02*
X148641650Y-108405828D01*
X148403555Y-108882019D02*
X148403555Y-107882019D01*
X148403555Y-107882019D02*
X148784507Y-107882019D01*
X148784507Y-107882019D02*
X148879745Y-107929638D01*
X148879745Y-107929638D02*
X148927364Y-107977257D01*
X148927364Y-107977257D02*
X148974983Y-108072495D01*
X148974983Y-108072495D02*
X148974983Y-108215352D01*
X148974983Y-108215352D02*
X148927364Y-108310590D01*
X148927364Y-108310590D02*
X148879745Y-108358209D01*
X148879745Y-108358209D02*
X148784507Y-108405828D01*
X148784507Y-108405828D02*
X148403555Y-108405828D01*
X149355936Y-107977257D02*
X149403555Y-107929638D01*
X149403555Y-107929638D02*
X149498793Y-107882019D01*
X149498793Y-107882019D02*
X149736888Y-107882019D01*
X149736888Y-107882019D02*
X149832126Y-107929638D01*
X149832126Y-107929638D02*
X149879745Y-107977257D01*
X149879745Y-107977257D02*
X149927364Y-108072495D01*
X149927364Y-108072495D02*
X149927364Y-108167733D01*
X149927364Y-108167733D02*
X149879745Y-108310590D01*
X149879745Y-108310590D02*
X149308317Y-108882019D01*
X149308317Y-108882019D02*
X149927364Y-108882019D01*
X150403555Y-108882019D02*
X150594031Y-108882019D01*
X150594031Y-108882019D02*
X150689269Y-108834400D01*
X150689269Y-108834400D02*
X150736888Y-108786780D01*
X150736888Y-108786780D02*
X150832126Y-108643923D01*
X150832126Y-108643923D02*
X150879745Y-108453447D01*
X150879745Y-108453447D02*
X150879745Y-108072495D01*
X150879745Y-108072495D02*
X150832126Y-107977257D01*
X150832126Y-107977257D02*
X150784507Y-107929638D01*
X150784507Y-107929638D02*
X150689269Y-107882019D01*
X150689269Y-107882019D02*
X150498793Y-107882019D01*
X150498793Y-107882019D02*
X150403555Y-107929638D01*
X150403555Y-107929638D02*
X150355936Y-107977257D01*
X150355936Y-107977257D02*
X150308317Y-108072495D01*
X150308317Y-108072495D02*
X150308317Y-108310590D01*
X150308317Y-108310590D02*
X150355936Y-108405828D01*
X150355936Y-108405828D02*
X150403555Y-108453447D01*
X150403555Y-108453447D02*
X150498793Y-108501066D01*
X150498793Y-108501066D02*
X150689269Y-108501066D01*
X150689269Y-108501066D02*
X150784507Y-108453447D01*
X150784507Y-108453447D02*
X150832126Y-108405828D01*
X150832126Y-108405828D02*
X150879745Y-108310590D01*
X167485174Y-90441619D02*
X167151841Y-89965428D01*
X166913746Y-90441619D02*
X166913746Y-89441619D01*
X166913746Y-89441619D02*
X167294698Y-89441619D01*
X167294698Y-89441619D02*
X167389936Y-89489238D01*
X167389936Y-89489238D02*
X167437555Y-89536857D01*
X167437555Y-89536857D02*
X167485174Y-89632095D01*
X167485174Y-89632095D02*
X167485174Y-89774952D01*
X167485174Y-89774952D02*
X167437555Y-89870190D01*
X167437555Y-89870190D02*
X167389936Y-89917809D01*
X167389936Y-89917809D02*
X167294698Y-89965428D01*
X167294698Y-89965428D02*
X166913746Y-89965428D01*
X168342317Y-89774952D02*
X168342317Y-90441619D01*
X168104222Y-89394000D02*
X167866127Y-90108285D01*
X167866127Y-90108285D02*
X168485174Y-90108285D01*
X116843983Y-108755019D02*
X116510650Y-108278828D01*
X116272555Y-108755019D02*
X116272555Y-107755019D01*
X116272555Y-107755019D02*
X116653507Y-107755019D01*
X116653507Y-107755019D02*
X116748745Y-107802638D01*
X116748745Y-107802638D02*
X116796364Y-107850257D01*
X116796364Y-107850257D02*
X116843983Y-107945495D01*
X116843983Y-107945495D02*
X116843983Y-108088352D01*
X116843983Y-108088352D02*
X116796364Y-108183590D01*
X116796364Y-108183590D02*
X116748745Y-108231209D01*
X116748745Y-108231209D02*
X116653507Y-108278828D01*
X116653507Y-108278828D02*
X116272555Y-108278828D01*
X117796364Y-108755019D02*
X117224936Y-108755019D01*
X117510650Y-108755019D02*
X117510650Y-107755019D01*
X117510650Y-107755019D02*
X117415412Y-107897876D01*
X117415412Y-107897876D02*
X117320174Y-107993114D01*
X117320174Y-107993114D02*
X117224936Y-108040733D01*
X118653507Y-108088352D02*
X118653507Y-108755019D01*
X118415412Y-107707400D02*
X118177317Y-108421685D01*
X118177317Y-108421685D02*
X118796364Y-108421685D01*
X100968983Y-103802019D02*
X100635650Y-103325828D01*
X100397555Y-103802019D02*
X100397555Y-102802019D01*
X100397555Y-102802019D02*
X100778507Y-102802019D01*
X100778507Y-102802019D02*
X100873745Y-102849638D01*
X100873745Y-102849638D02*
X100921364Y-102897257D01*
X100921364Y-102897257D02*
X100968983Y-102992495D01*
X100968983Y-102992495D02*
X100968983Y-103135352D01*
X100968983Y-103135352D02*
X100921364Y-103230590D01*
X100921364Y-103230590D02*
X100873745Y-103278209D01*
X100873745Y-103278209D02*
X100778507Y-103325828D01*
X100778507Y-103325828D02*
X100397555Y-103325828D01*
X101921364Y-103802019D02*
X101349936Y-103802019D01*
X101635650Y-103802019D02*
X101635650Y-102802019D01*
X101635650Y-102802019D02*
X101540412Y-102944876D01*
X101540412Y-102944876D02*
X101445174Y-103040114D01*
X101445174Y-103040114D02*
X101349936Y-103087733D01*
X102492793Y-103230590D02*
X102397555Y-103182971D01*
X102397555Y-103182971D02*
X102349936Y-103135352D01*
X102349936Y-103135352D02*
X102302317Y-103040114D01*
X102302317Y-103040114D02*
X102302317Y-102992495D01*
X102302317Y-102992495D02*
X102349936Y-102897257D01*
X102349936Y-102897257D02*
X102397555Y-102849638D01*
X102397555Y-102849638D02*
X102492793Y-102802019D01*
X102492793Y-102802019D02*
X102683269Y-102802019D01*
X102683269Y-102802019D02*
X102778507Y-102849638D01*
X102778507Y-102849638D02*
X102826126Y-102897257D01*
X102826126Y-102897257D02*
X102873745Y-102992495D01*
X102873745Y-102992495D02*
X102873745Y-103040114D01*
X102873745Y-103040114D02*
X102826126Y-103135352D01*
X102826126Y-103135352D02*
X102778507Y-103182971D01*
X102778507Y-103182971D02*
X102683269Y-103230590D01*
X102683269Y-103230590D02*
X102492793Y-103230590D01*
X102492793Y-103230590D02*
X102397555Y-103278209D01*
X102397555Y-103278209D02*
X102349936Y-103325828D01*
X102349936Y-103325828D02*
X102302317Y-103421066D01*
X102302317Y-103421066D02*
X102302317Y-103611542D01*
X102302317Y-103611542D02*
X102349936Y-103706780D01*
X102349936Y-103706780D02*
X102397555Y-103754400D01*
X102397555Y-103754400D02*
X102492793Y-103802019D01*
X102492793Y-103802019D02*
X102683269Y-103802019D01*
X102683269Y-103802019D02*
X102778507Y-103754400D01*
X102778507Y-103754400D02*
X102826126Y-103706780D01*
X102826126Y-103706780D02*
X102873745Y-103611542D01*
X102873745Y-103611542D02*
X102873745Y-103421066D01*
X102873745Y-103421066D02*
X102826126Y-103325828D01*
X102826126Y-103325828D02*
X102778507Y-103278209D01*
X102778507Y-103278209D02*
X102683269Y-103230590D01*
X108876660Y-80848333D02*
X109590945Y-80848333D01*
X109590945Y-80848333D02*
X109733802Y-80895952D01*
X109733802Y-80895952D02*
X109829041Y-80991190D01*
X109829041Y-80991190D02*
X109876660Y-81134047D01*
X109876660Y-81134047D02*
X109876660Y-81229285D01*
X109876660Y-80372142D02*
X108876660Y-80372142D01*
X108876660Y-80372142D02*
X108876660Y-79991190D01*
X108876660Y-79991190D02*
X108924279Y-79895952D01*
X108924279Y-79895952D02*
X108971898Y-79848333D01*
X108971898Y-79848333D02*
X109067136Y-79800714D01*
X109067136Y-79800714D02*
X109209993Y-79800714D01*
X109209993Y-79800714D02*
X109305231Y-79848333D01*
X109305231Y-79848333D02*
X109352850Y-79895952D01*
X109352850Y-79895952D02*
X109400469Y-79991190D01*
X109400469Y-79991190D02*
X109400469Y-80372142D01*
X109876660Y-78848333D02*
X109876660Y-79419761D01*
X109876660Y-79134047D02*
X108876660Y-79134047D01*
X108876660Y-79134047D02*
X109019517Y-79229285D01*
X109019517Y-79229285D02*
X109114755Y-79324523D01*
X109114755Y-79324523D02*
X109162374Y-79419761D01*
X185096898Y-107430238D02*
X185049279Y-107525476D01*
X185049279Y-107525476D02*
X184954041Y-107620714D01*
X184954041Y-107620714D02*
X184811183Y-107763571D01*
X184811183Y-107763571D02*
X184763564Y-107858809D01*
X184763564Y-107858809D02*
X184763564Y-107954047D01*
X185001660Y-107906428D02*
X184954041Y-108001666D01*
X184954041Y-108001666D02*
X184858802Y-108096904D01*
X184858802Y-108096904D02*
X184668326Y-108144523D01*
X184668326Y-108144523D02*
X184334993Y-108144523D01*
X184334993Y-108144523D02*
X184144517Y-108096904D01*
X184144517Y-108096904D02*
X184049279Y-108001666D01*
X184049279Y-108001666D02*
X184001660Y-107906428D01*
X184001660Y-107906428D02*
X184001660Y-107715952D01*
X184001660Y-107715952D02*
X184049279Y-107620714D01*
X184049279Y-107620714D02*
X184144517Y-107525476D01*
X184144517Y-107525476D02*
X184334993Y-107477857D01*
X184334993Y-107477857D02*
X184668326Y-107477857D01*
X184668326Y-107477857D02*
X184858802Y-107525476D01*
X184858802Y-107525476D02*
X184954041Y-107620714D01*
X184954041Y-107620714D02*
X185001660Y-107715952D01*
X185001660Y-107715952D02*
X185001660Y-107906428D01*
X184001660Y-106620714D02*
X184001660Y-106811190D01*
X184001660Y-106811190D02*
X184049279Y-106906428D01*
X184049279Y-106906428D02*
X184096898Y-106954047D01*
X184096898Y-106954047D02*
X184239755Y-107049285D01*
X184239755Y-107049285D02*
X184430231Y-107096904D01*
X184430231Y-107096904D02*
X184811183Y-107096904D01*
X184811183Y-107096904D02*
X184906421Y-107049285D01*
X184906421Y-107049285D02*
X184954041Y-107001666D01*
X184954041Y-107001666D02*
X185001660Y-106906428D01*
X185001660Y-106906428D02*
X185001660Y-106715952D01*
X185001660Y-106715952D02*
X184954041Y-106620714D01*
X184954041Y-106620714D02*
X184906421Y-106573095D01*
X184906421Y-106573095D02*
X184811183Y-106525476D01*
X184811183Y-106525476D02*
X184573088Y-106525476D01*
X184573088Y-106525476D02*
X184477850Y-106573095D01*
X184477850Y-106573095D02*
X184430231Y-106620714D01*
X184430231Y-106620714D02*
X184382612Y-106715952D01*
X184382612Y-106715952D02*
X184382612Y-106906428D01*
X184382612Y-106906428D02*
X184430231Y-107001666D01*
X184430231Y-107001666D02*
X184477850Y-107049285D01*
X184477850Y-107049285D02*
X184573088Y-107096904D01*
X100968983Y-94886619D02*
X100635650Y-94410428D01*
X100397555Y-94886619D02*
X100397555Y-93886619D01*
X100397555Y-93886619D02*
X100778507Y-93886619D01*
X100778507Y-93886619D02*
X100873745Y-93934238D01*
X100873745Y-93934238D02*
X100921364Y-93981857D01*
X100921364Y-93981857D02*
X100968983Y-94077095D01*
X100968983Y-94077095D02*
X100968983Y-94219952D01*
X100968983Y-94219952D02*
X100921364Y-94315190D01*
X100921364Y-94315190D02*
X100873745Y-94362809D01*
X100873745Y-94362809D02*
X100778507Y-94410428D01*
X100778507Y-94410428D02*
X100397555Y-94410428D01*
X101921364Y-94886619D02*
X101349936Y-94886619D01*
X101635650Y-94886619D02*
X101635650Y-93886619D01*
X101635650Y-93886619D02*
X101540412Y-94029476D01*
X101540412Y-94029476D02*
X101445174Y-94124714D01*
X101445174Y-94124714D02*
X101349936Y-94172333D01*
X102778507Y-93886619D02*
X102588031Y-93886619D01*
X102588031Y-93886619D02*
X102492793Y-93934238D01*
X102492793Y-93934238D02*
X102445174Y-93981857D01*
X102445174Y-93981857D02*
X102349936Y-94124714D01*
X102349936Y-94124714D02*
X102302317Y-94315190D01*
X102302317Y-94315190D02*
X102302317Y-94696142D01*
X102302317Y-94696142D02*
X102349936Y-94791380D01*
X102349936Y-94791380D02*
X102397555Y-94839000D01*
X102397555Y-94839000D02*
X102492793Y-94886619D01*
X102492793Y-94886619D02*
X102683269Y-94886619D01*
X102683269Y-94886619D02*
X102778507Y-94839000D01*
X102778507Y-94839000D02*
X102826126Y-94791380D01*
X102826126Y-94791380D02*
X102873745Y-94696142D01*
X102873745Y-94696142D02*
X102873745Y-94458047D01*
X102873745Y-94458047D02*
X102826126Y-94362809D01*
X102826126Y-94362809D02*
X102778507Y-94315190D01*
X102778507Y-94315190D02*
X102683269Y-94267571D01*
X102683269Y-94267571D02*
X102492793Y-94267571D01*
X102492793Y-94267571D02*
X102397555Y-94315190D01*
X102397555Y-94315190D02*
X102349936Y-94362809D01*
X102349936Y-94362809D02*
X102302317Y-94458047D01*
X167485174Y-81551619D02*
X167151841Y-81075428D01*
X166913746Y-81551619D02*
X166913746Y-80551619D01*
X166913746Y-80551619D02*
X167294698Y-80551619D01*
X167294698Y-80551619D02*
X167389936Y-80599238D01*
X167389936Y-80599238D02*
X167437555Y-80646857D01*
X167437555Y-80646857D02*
X167485174Y-80742095D01*
X167485174Y-80742095D02*
X167485174Y-80884952D01*
X167485174Y-80884952D02*
X167437555Y-80980190D01*
X167437555Y-80980190D02*
X167389936Y-81027809D01*
X167389936Y-81027809D02*
X167294698Y-81075428D01*
X167294698Y-81075428D02*
X166913746Y-81075428D01*
X168056603Y-80980190D02*
X167961365Y-80932571D01*
X167961365Y-80932571D02*
X167913746Y-80884952D01*
X167913746Y-80884952D02*
X167866127Y-80789714D01*
X167866127Y-80789714D02*
X167866127Y-80742095D01*
X167866127Y-80742095D02*
X167913746Y-80646857D01*
X167913746Y-80646857D02*
X167961365Y-80599238D01*
X167961365Y-80599238D02*
X168056603Y-80551619D01*
X168056603Y-80551619D02*
X168247079Y-80551619D01*
X168247079Y-80551619D02*
X168342317Y-80599238D01*
X168342317Y-80599238D02*
X168389936Y-80646857D01*
X168389936Y-80646857D02*
X168437555Y-80742095D01*
X168437555Y-80742095D02*
X168437555Y-80789714D01*
X168437555Y-80789714D02*
X168389936Y-80884952D01*
X168389936Y-80884952D02*
X168342317Y-80932571D01*
X168342317Y-80932571D02*
X168247079Y-80980190D01*
X168247079Y-80980190D02*
X168056603Y-80980190D01*
X168056603Y-80980190D02*
X167961365Y-81027809D01*
X167961365Y-81027809D02*
X167913746Y-81075428D01*
X167913746Y-81075428D02*
X167866127Y-81170666D01*
X167866127Y-81170666D02*
X167866127Y-81361142D01*
X167866127Y-81361142D02*
X167913746Y-81456380D01*
X167913746Y-81456380D02*
X167961365Y-81504000D01*
X167961365Y-81504000D02*
X168056603Y-81551619D01*
X168056603Y-81551619D02*
X168247079Y-81551619D01*
X168247079Y-81551619D02*
X168342317Y-81504000D01*
X168342317Y-81504000D02*
X168389936Y-81456380D01*
X168389936Y-81456380D02*
X168437555Y-81361142D01*
X168437555Y-81361142D02*
X168437555Y-81170666D01*
X168437555Y-81170666D02*
X168389936Y-81075428D01*
X168389936Y-81075428D02*
X168342317Y-81027809D01*
X168342317Y-81027809D02*
X168247079Y-80980190D01*
X167059783Y-108755019D02*
X166726450Y-108278828D01*
X166488355Y-108755019D02*
X166488355Y-107755019D01*
X166488355Y-107755019D02*
X166869307Y-107755019D01*
X166869307Y-107755019D02*
X166964545Y-107802638D01*
X166964545Y-107802638D02*
X167012164Y-107850257D01*
X167012164Y-107850257D02*
X167059783Y-107945495D01*
X167059783Y-107945495D02*
X167059783Y-108088352D01*
X167059783Y-108088352D02*
X167012164Y-108183590D01*
X167012164Y-108183590D02*
X166964545Y-108231209D01*
X166964545Y-108231209D02*
X166869307Y-108278828D01*
X166869307Y-108278828D02*
X166488355Y-108278828D01*
X168012164Y-108755019D02*
X167440736Y-108755019D01*
X167726450Y-108755019D02*
X167726450Y-107755019D01*
X167726450Y-107755019D02*
X167631212Y-107897876D01*
X167631212Y-107897876D02*
X167535974Y-107993114D01*
X167535974Y-107993114D02*
X167440736Y-108040733D01*
X168631212Y-107755019D02*
X168726450Y-107755019D01*
X168726450Y-107755019D02*
X168821688Y-107802638D01*
X168821688Y-107802638D02*
X168869307Y-107850257D01*
X168869307Y-107850257D02*
X168916926Y-107945495D01*
X168916926Y-107945495D02*
X168964545Y-108135971D01*
X168964545Y-108135971D02*
X168964545Y-108374066D01*
X168964545Y-108374066D02*
X168916926Y-108564542D01*
X168916926Y-108564542D02*
X168869307Y-108659780D01*
X168869307Y-108659780D02*
X168821688Y-108707400D01*
X168821688Y-108707400D02*
X168726450Y-108755019D01*
X168726450Y-108755019D02*
X168631212Y-108755019D01*
X168631212Y-108755019D02*
X168535974Y-108707400D01*
X168535974Y-108707400D02*
X168488355Y-108659780D01*
X168488355Y-108659780D02*
X168440736Y-108564542D01*
X168440736Y-108564542D02*
X168393117Y-108374066D01*
X168393117Y-108374066D02*
X168393117Y-108135971D01*
X168393117Y-108135971D02*
X168440736Y-107945495D01*
X168440736Y-107945495D02*
X168488355Y-107850257D01*
X168488355Y-107850257D02*
X168535974Y-107802638D01*
X168535974Y-107802638D02*
X168631212Y-107755019D01*
X167485174Y-99331619D02*
X167151841Y-98855428D01*
X166913746Y-99331619D02*
X166913746Y-98331619D01*
X166913746Y-98331619D02*
X167294698Y-98331619D01*
X167294698Y-98331619D02*
X167389936Y-98379238D01*
X167389936Y-98379238D02*
X167437555Y-98426857D01*
X167437555Y-98426857D02*
X167485174Y-98522095D01*
X167485174Y-98522095D02*
X167485174Y-98664952D01*
X167485174Y-98664952D02*
X167437555Y-98760190D01*
X167437555Y-98760190D02*
X167389936Y-98807809D01*
X167389936Y-98807809D02*
X167294698Y-98855428D01*
X167294698Y-98855428D02*
X166913746Y-98855428D01*
X167818508Y-98331619D02*
X168437555Y-98331619D01*
X168437555Y-98331619D02*
X168104222Y-98712571D01*
X168104222Y-98712571D02*
X168247079Y-98712571D01*
X168247079Y-98712571D02*
X168342317Y-98760190D01*
X168342317Y-98760190D02*
X168389936Y-98807809D01*
X168389936Y-98807809D02*
X168437555Y-98903047D01*
X168437555Y-98903047D02*
X168437555Y-99141142D01*
X168437555Y-99141142D02*
X168389936Y-99236380D01*
X168389936Y-99236380D02*
X168342317Y-99284000D01*
X168342317Y-99284000D02*
X168247079Y-99331619D01*
X168247079Y-99331619D02*
X167961365Y-99331619D01*
X167961365Y-99331619D02*
X167866127Y-99284000D01*
X167866127Y-99284000D02*
X167818508Y-99236380D01*
X132718983Y-113327019D02*
X132385650Y-112850828D01*
X132147555Y-113327019D02*
X132147555Y-112327019D01*
X132147555Y-112327019D02*
X132528507Y-112327019D01*
X132528507Y-112327019D02*
X132623745Y-112374638D01*
X132623745Y-112374638D02*
X132671364Y-112422257D01*
X132671364Y-112422257D02*
X132718983Y-112517495D01*
X132718983Y-112517495D02*
X132718983Y-112660352D01*
X132718983Y-112660352D02*
X132671364Y-112755590D01*
X132671364Y-112755590D02*
X132623745Y-112803209D01*
X132623745Y-112803209D02*
X132528507Y-112850828D01*
X132528507Y-112850828D02*
X132147555Y-112850828D01*
X133099936Y-112422257D02*
X133147555Y-112374638D01*
X133147555Y-112374638D02*
X133242793Y-112327019D01*
X133242793Y-112327019D02*
X133480888Y-112327019D01*
X133480888Y-112327019D02*
X133576126Y-112374638D01*
X133576126Y-112374638D02*
X133623745Y-112422257D01*
X133623745Y-112422257D02*
X133671364Y-112517495D01*
X133671364Y-112517495D02*
X133671364Y-112612733D01*
X133671364Y-112612733D02*
X133623745Y-112755590D01*
X133623745Y-112755590D02*
X133052317Y-113327019D01*
X133052317Y-113327019D02*
X133671364Y-113327019D01*
X134576126Y-112327019D02*
X134099936Y-112327019D01*
X134099936Y-112327019D02*
X134052317Y-112803209D01*
X134052317Y-112803209D02*
X134099936Y-112755590D01*
X134099936Y-112755590D02*
X134195174Y-112707971D01*
X134195174Y-112707971D02*
X134433269Y-112707971D01*
X134433269Y-112707971D02*
X134528507Y-112755590D01*
X134528507Y-112755590D02*
X134576126Y-112803209D01*
X134576126Y-112803209D02*
X134623745Y-112898447D01*
X134623745Y-112898447D02*
X134623745Y-113136542D01*
X134623745Y-113136542D02*
X134576126Y-113231780D01*
X134576126Y-113231780D02*
X134528507Y-113279400D01*
X134528507Y-113279400D02*
X134433269Y-113327019D01*
X134433269Y-113327019D02*
X134195174Y-113327019D01*
X134195174Y-113327019D02*
X134099936Y-113279400D01*
X134099936Y-113279400D02*
X134052317Y-113231780D01*
X167485174Y-103979819D02*
X167151841Y-103503628D01*
X166913746Y-103979819D02*
X166913746Y-102979819D01*
X166913746Y-102979819D02*
X167294698Y-102979819D01*
X167294698Y-102979819D02*
X167389936Y-103027438D01*
X167389936Y-103027438D02*
X167437555Y-103075057D01*
X167437555Y-103075057D02*
X167485174Y-103170295D01*
X167485174Y-103170295D02*
X167485174Y-103313152D01*
X167485174Y-103313152D02*
X167437555Y-103408390D01*
X167437555Y-103408390D02*
X167389936Y-103456009D01*
X167389936Y-103456009D02*
X167294698Y-103503628D01*
X167294698Y-103503628D02*
X166913746Y-103503628D01*
X168342317Y-102979819D02*
X168151841Y-102979819D01*
X168151841Y-102979819D02*
X168056603Y-103027438D01*
X168056603Y-103027438D02*
X168008984Y-103075057D01*
X168008984Y-103075057D02*
X167913746Y-103217914D01*
X167913746Y-103217914D02*
X167866127Y-103408390D01*
X167866127Y-103408390D02*
X167866127Y-103789342D01*
X167866127Y-103789342D02*
X167913746Y-103884580D01*
X167913746Y-103884580D02*
X167961365Y-103932200D01*
X167961365Y-103932200D02*
X168056603Y-103979819D01*
X168056603Y-103979819D02*
X168247079Y-103979819D01*
X168247079Y-103979819D02*
X168342317Y-103932200D01*
X168342317Y-103932200D02*
X168389936Y-103884580D01*
X168389936Y-103884580D02*
X168437555Y-103789342D01*
X168437555Y-103789342D02*
X168437555Y-103551247D01*
X168437555Y-103551247D02*
X168389936Y-103456009D01*
X168389936Y-103456009D02*
X168342317Y-103408390D01*
X168342317Y-103408390D02*
X168247079Y-103360771D01*
X168247079Y-103360771D02*
X168056603Y-103360771D01*
X168056603Y-103360771D02*
X167961365Y-103408390D01*
X167961365Y-103408390D02*
X167913746Y-103456009D01*
X167913746Y-103456009D02*
X167866127Y-103551247D01*
X125517221Y-93582466D02*
X125564841Y-93630085D01*
X125564841Y-93630085D02*
X125612460Y-93772942D01*
X125612460Y-93772942D02*
X125612460Y-93868180D01*
X125612460Y-93868180D02*
X125564841Y-94011037D01*
X125564841Y-94011037D02*
X125469602Y-94106275D01*
X125469602Y-94106275D02*
X125374364Y-94153894D01*
X125374364Y-94153894D02*
X125183888Y-94201513D01*
X125183888Y-94201513D02*
X125041031Y-94201513D01*
X125041031Y-94201513D02*
X124850555Y-94153894D01*
X124850555Y-94153894D02*
X124755317Y-94106275D01*
X124755317Y-94106275D02*
X124660079Y-94011037D01*
X124660079Y-94011037D02*
X124612460Y-93868180D01*
X124612460Y-93868180D02*
X124612460Y-93772942D01*
X124612460Y-93772942D02*
X124660079Y-93630085D01*
X124660079Y-93630085D02*
X124707698Y-93582466D01*
X125612460Y-92630085D02*
X125612460Y-93201513D01*
X125612460Y-92915799D02*
X124612460Y-92915799D01*
X124612460Y-92915799D02*
X124755317Y-93011037D01*
X124755317Y-93011037D02*
X124850555Y-93106275D01*
X124850555Y-93106275D02*
X124898174Y-93201513D01*
X185096898Y-114415238D02*
X185049279Y-114510476D01*
X185049279Y-114510476D02*
X184954041Y-114605714D01*
X184954041Y-114605714D02*
X184811183Y-114748571D01*
X184811183Y-114748571D02*
X184763564Y-114843809D01*
X184763564Y-114843809D02*
X184763564Y-114939047D01*
X185001660Y-114891428D02*
X184954041Y-114986666D01*
X184954041Y-114986666D02*
X184858802Y-115081904D01*
X184858802Y-115081904D02*
X184668326Y-115129523D01*
X184668326Y-115129523D02*
X184334993Y-115129523D01*
X184334993Y-115129523D02*
X184144517Y-115081904D01*
X184144517Y-115081904D02*
X184049279Y-114986666D01*
X184049279Y-114986666D02*
X184001660Y-114891428D01*
X184001660Y-114891428D02*
X184001660Y-114700952D01*
X184001660Y-114700952D02*
X184049279Y-114605714D01*
X184049279Y-114605714D02*
X184144517Y-114510476D01*
X184144517Y-114510476D02*
X184334993Y-114462857D01*
X184334993Y-114462857D02*
X184668326Y-114462857D01*
X184668326Y-114462857D02*
X184858802Y-114510476D01*
X184858802Y-114510476D02*
X184954041Y-114605714D01*
X184954041Y-114605714D02*
X185001660Y-114700952D01*
X185001660Y-114700952D02*
X185001660Y-114891428D01*
X184001660Y-113558095D02*
X184001660Y-114034285D01*
X184001660Y-114034285D02*
X184477850Y-114081904D01*
X184477850Y-114081904D02*
X184430231Y-114034285D01*
X184430231Y-114034285D02*
X184382612Y-113939047D01*
X184382612Y-113939047D02*
X184382612Y-113700952D01*
X184382612Y-113700952D02*
X184430231Y-113605714D01*
X184430231Y-113605714D02*
X184477850Y-113558095D01*
X184477850Y-113558095D02*
X184573088Y-113510476D01*
X184573088Y-113510476D02*
X184811183Y-113510476D01*
X184811183Y-113510476D02*
X184906421Y-113558095D01*
X184906421Y-113558095D02*
X184954041Y-113605714D01*
X184954041Y-113605714D02*
X185001660Y-113700952D01*
X185001660Y-113700952D02*
X185001660Y-113939047D01*
X185001660Y-113939047D02*
X184954041Y-114034285D01*
X184954041Y-114034285D02*
X184906421Y-114081904D01*
X185096898Y-86475238D02*
X185049279Y-86570476D01*
X185049279Y-86570476D02*
X184954041Y-86665714D01*
X184954041Y-86665714D02*
X184811183Y-86808571D01*
X184811183Y-86808571D02*
X184763564Y-86903809D01*
X184763564Y-86903809D02*
X184763564Y-86999047D01*
X185001660Y-86951428D02*
X184954041Y-87046666D01*
X184954041Y-87046666D02*
X184858802Y-87141904D01*
X184858802Y-87141904D02*
X184668326Y-87189523D01*
X184668326Y-87189523D02*
X184334993Y-87189523D01*
X184334993Y-87189523D02*
X184144517Y-87141904D01*
X184144517Y-87141904D02*
X184049279Y-87046666D01*
X184049279Y-87046666D02*
X184001660Y-86951428D01*
X184001660Y-86951428D02*
X184001660Y-86760952D01*
X184001660Y-86760952D02*
X184049279Y-86665714D01*
X184049279Y-86665714D02*
X184144517Y-86570476D01*
X184144517Y-86570476D02*
X184334993Y-86522857D01*
X184334993Y-86522857D02*
X184668326Y-86522857D01*
X184668326Y-86522857D02*
X184858802Y-86570476D01*
X184858802Y-86570476D02*
X184954041Y-86665714D01*
X184954041Y-86665714D02*
X185001660Y-86760952D01*
X185001660Y-86760952D02*
X185001660Y-86951428D01*
X185001660Y-85570476D02*
X185001660Y-86141904D01*
X185001660Y-85856190D02*
X184001660Y-85856190D01*
X184001660Y-85856190D02*
X184144517Y-85951428D01*
X184144517Y-85951428D02*
X184239755Y-86046666D01*
X184239755Y-86046666D02*
X184287374Y-86141904D01*
X167485174Y-77106619D02*
X167151841Y-76630428D01*
X166913746Y-77106619D02*
X166913746Y-76106619D01*
X166913746Y-76106619D02*
X167294698Y-76106619D01*
X167294698Y-76106619D02*
X167389936Y-76154238D01*
X167389936Y-76154238D02*
X167437555Y-76201857D01*
X167437555Y-76201857D02*
X167485174Y-76297095D01*
X167485174Y-76297095D02*
X167485174Y-76439952D01*
X167485174Y-76439952D02*
X167437555Y-76535190D01*
X167437555Y-76535190D02*
X167389936Y-76582809D01*
X167389936Y-76582809D02*
X167294698Y-76630428D01*
X167294698Y-76630428D02*
X166913746Y-76630428D01*
X167866127Y-76201857D02*
X167913746Y-76154238D01*
X167913746Y-76154238D02*
X168008984Y-76106619D01*
X168008984Y-76106619D02*
X168247079Y-76106619D01*
X168247079Y-76106619D02*
X168342317Y-76154238D01*
X168342317Y-76154238D02*
X168389936Y-76201857D01*
X168389936Y-76201857D02*
X168437555Y-76297095D01*
X168437555Y-76297095D02*
X168437555Y-76392333D01*
X168437555Y-76392333D02*
X168389936Y-76535190D01*
X168389936Y-76535190D02*
X167818508Y-77106619D01*
X167818508Y-77106619D02*
X168437555Y-77106619D01*
X167485174Y-94912019D02*
X167151841Y-94435828D01*
X166913746Y-94912019D02*
X166913746Y-93912019D01*
X166913746Y-93912019D02*
X167294698Y-93912019D01*
X167294698Y-93912019D02*
X167389936Y-93959638D01*
X167389936Y-93959638D02*
X167437555Y-94007257D01*
X167437555Y-94007257D02*
X167485174Y-94102495D01*
X167485174Y-94102495D02*
X167485174Y-94245352D01*
X167485174Y-94245352D02*
X167437555Y-94340590D01*
X167437555Y-94340590D02*
X167389936Y-94388209D01*
X167389936Y-94388209D02*
X167294698Y-94435828D01*
X167294698Y-94435828D02*
X166913746Y-94435828D01*
X167961365Y-94912019D02*
X168151841Y-94912019D01*
X168151841Y-94912019D02*
X168247079Y-94864400D01*
X168247079Y-94864400D02*
X168294698Y-94816780D01*
X168294698Y-94816780D02*
X168389936Y-94673923D01*
X168389936Y-94673923D02*
X168437555Y-94483447D01*
X168437555Y-94483447D02*
X168437555Y-94102495D01*
X168437555Y-94102495D02*
X168389936Y-94007257D01*
X168389936Y-94007257D02*
X168342317Y-93959638D01*
X168342317Y-93959638D02*
X168247079Y-93912019D01*
X168247079Y-93912019D02*
X168056603Y-93912019D01*
X168056603Y-93912019D02*
X167961365Y-93959638D01*
X167961365Y-93959638D02*
X167913746Y-94007257D01*
X167913746Y-94007257D02*
X167866127Y-94102495D01*
X167866127Y-94102495D02*
X167866127Y-94340590D01*
X167866127Y-94340590D02*
X167913746Y-94435828D01*
X167913746Y-94435828D02*
X167961365Y-94483447D01*
X167961365Y-94483447D02*
X168056603Y-94531066D01*
X168056603Y-94531066D02*
X168247079Y-94531066D01*
X168247079Y-94531066D02*
X168342317Y-94483447D01*
X168342317Y-94483447D02*
X168389936Y-94435828D01*
X168389936Y-94435828D02*
X168437555Y-94340590D01*
X185096898Y-93460238D02*
X185049279Y-93555476D01*
X185049279Y-93555476D02*
X184954041Y-93650714D01*
X184954041Y-93650714D02*
X184811183Y-93793571D01*
X184811183Y-93793571D02*
X184763564Y-93888809D01*
X184763564Y-93888809D02*
X184763564Y-93984047D01*
X185001660Y-93936428D02*
X184954041Y-94031666D01*
X184954041Y-94031666D02*
X184858802Y-94126904D01*
X184858802Y-94126904D02*
X184668326Y-94174523D01*
X184668326Y-94174523D02*
X184334993Y-94174523D01*
X184334993Y-94174523D02*
X184144517Y-94126904D01*
X184144517Y-94126904D02*
X184049279Y-94031666D01*
X184049279Y-94031666D02*
X184001660Y-93936428D01*
X184001660Y-93936428D02*
X184001660Y-93745952D01*
X184001660Y-93745952D02*
X184049279Y-93650714D01*
X184049279Y-93650714D02*
X184144517Y-93555476D01*
X184144517Y-93555476D02*
X184334993Y-93507857D01*
X184334993Y-93507857D02*
X184668326Y-93507857D01*
X184668326Y-93507857D02*
X184858802Y-93555476D01*
X184858802Y-93555476D02*
X184954041Y-93650714D01*
X184954041Y-93650714D02*
X185001660Y-93745952D01*
X185001660Y-93745952D02*
X185001660Y-93936428D01*
X184334993Y-92650714D02*
X185001660Y-92650714D01*
X183954041Y-92888809D02*
X184668326Y-93126904D01*
X184668326Y-93126904D02*
X184668326Y-92507857D01*
X132642783Y-99357019D02*
X132309450Y-98880828D01*
X132071355Y-99357019D02*
X132071355Y-98357019D01*
X132071355Y-98357019D02*
X132452307Y-98357019D01*
X132452307Y-98357019D02*
X132547545Y-98404638D01*
X132547545Y-98404638D02*
X132595164Y-98452257D01*
X132595164Y-98452257D02*
X132642783Y-98547495D01*
X132642783Y-98547495D02*
X132642783Y-98690352D01*
X132642783Y-98690352D02*
X132595164Y-98785590D01*
X132595164Y-98785590D02*
X132547545Y-98833209D01*
X132547545Y-98833209D02*
X132452307Y-98880828D01*
X132452307Y-98880828D02*
X132071355Y-98880828D01*
X133023736Y-98452257D02*
X133071355Y-98404638D01*
X133071355Y-98404638D02*
X133166593Y-98357019D01*
X133166593Y-98357019D02*
X133404688Y-98357019D01*
X133404688Y-98357019D02*
X133499926Y-98404638D01*
X133499926Y-98404638D02*
X133547545Y-98452257D01*
X133547545Y-98452257D02*
X133595164Y-98547495D01*
X133595164Y-98547495D02*
X133595164Y-98642733D01*
X133595164Y-98642733D02*
X133547545Y-98785590D01*
X133547545Y-98785590D02*
X132976117Y-99357019D01*
X132976117Y-99357019D02*
X133595164Y-99357019D01*
X133976117Y-98452257D02*
X134023736Y-98404638D01*
X134023736Y-98404638D02*
X134118974Y-98357019D01*
X134118974Y-98357019D02*
X134357069Y-98357019D01*
X134357069Y-98357019D02*
X134452307Y-98404638D01*
X134452307Y-98404638D02*
X134499926Y-98452257D01*
X134499926Y-98452257D02*
X134547545Y-98547495D01*
X134547545Y-98547495D02*
X134547545Y-98642733D01*
X134547545Y-98642733D02*
X134499926Y-98785590D01*
X134499926Y-98785590D02*
X133928498Y-99357019D01*
X133928498Y-99357019D02*
X134547545Y-99357019D01*
X148974983Y-104056019D02*
X148641650Y-103579828D01*
X148403555Y-104056019D02*
X148403555Y-103056019D01*
X148403555Y-103056019D02*
X148784507Y-103056019D01*
X148784507Y-103056019D02*
X148879745Y-103103638D01*
X148879745Y-103103638D02*
X148927364Y-103151257D01*
X148927364Y-103151257D02*
X148974983Y-103246495D01*
X148974983Y-103246495D02*
X148974983Y-103389352D01*
X148974983Y-103389352D02*
X148927364Y-103484590D01*
X148927364Y-103484590D02*
X148879745Y-103532209D01*
X148879745Y-103532209D02*
X148784507Y-103579828D01*
X148784507Y-103579828D02*
X148403555Y-103579828D01*
X149355936Y-103151257D02*
X149403555Y-103103638D01*
X149403555Y-103103638D02*
X149498793Y-103056019D01*
X149498793Y-103056019D02*
X149736888Y-103056019D01*
X149736888Y-103056019D02*
X149832126Y-103103638D01*
X149832126Y-103103638D02*
X149879745Y-103151257D01*
X149879745Y-103151257D02*
X149927364Y-103246495D01*
X149927364Y-103246495D02*
X149927364Y-103341733D01*
X149927364Y-103341733D02*
X149879745Y-103484590D01*
X149879745Y-103484590D02*
X149308317Y-104056019D01*
X149308317Y-104056019D02*
X149927364Y-104056019D01*
X150498793Y-103484590D02*
X150403555Y-103436971D01*
X150403555Y-103436971D02*
X150355936Y-103389352D01*
X150355936Y-103389352D02*
X150308317Y-103294114D01*
X150308317Y-103294114D02*
X150308317Y-103246495D01*
X150308317Y-103246495D02*
X150355936Y-103151257D01*
X150355936Y-103151257D02*
X150403555Y-103103638D01*
X150403555Y-103103638D02*
X150498793Y-103056019D01*
X150498793Y-103056019D02*
X150689269Y-103056019D01*
X150689269Y-103056019D02*
X150784507Y-103103638D01*
X150784507Y-103103638D02*
X150832126Y-103151257D01*
X150832126Y-103151257D02*
X150879745Y-103246495D01*
X150879745Y-103246495D02*
X150879745Y-103294114D01*
X150879745Y-103294114D02*
X150832126Y-103389352D01*
X150832126Y-103389352D02*
X150784507Y-103436971D01*
X150784507Y-103436971D02*
X150689269Y-103484590D01*
X150689269Y-103484590D02*
X150498793Y-103484590D01*
X150498793Y-103484590D02*
X150403555Y-103532209D01*
X150403555Y-103532209D02*
X150355936Y-103579828D01*
X150355936Y-103579828D02*
X150308317Y-103675066D01*
X150308317Y-103675066D02*
X150308317Y-103865542D01*
X150308317Y-103865542D02*
X150355936Y-103960780D01*
X150355936Y-103960780D02*
X150403555Y-104008400D01*
X150403555Y-104008400D02*
X150498793Y-104056019D01*
X150498793Y-104056019D02*
X150689269Y-104056019D01*
X150689269Y-104056019D02*
X150784507Y-104008400D01*
X150784507Y-104008400D02*
X150832126Y-103960780D01*
X150832126Y-103960780D02*
X150879745Y-103865542D01*
X150879745Y-103865542D02*
X150879745Y-103675066D01*
X150879745Y-103675066D02*
X150832126Y-103579828D01*
X150832126Y-103579828D02*
X150784507Y-103532209D01*
X150784507Y-103532209D02*
X150689269Y-103484590D01*
X100968983Y-113454019D02*
X100635650Y-112977828D01*
X100397555Y-113454019D02*
X100397555Y-112454019D01*
X100397555Y-112454019D02*
X100778507Y-112454019D01*
X100778507Y-112454019D02*
X100873745Y-112501638D01*
X100873745Y-112501638D02*
X100921364Y-112549257D01*
X100921364Y-112549257D02*
X100968983Y-112644495D01*
X100968983Y-112644495D02*
X100968983Y-112787352D01*
X100968983Y-112787352D02*
X100921364Y-112882590D01*
X100921364Y-112882590D02*
X100873745Y-112930209D01*
X100873745Y-112930209D02*
X100778507Y-112977828D01*
X100778507Y-112977828D02*
X100397555Y-112977828D01*
X101349936Y-112549257D02*
X101397555Y-112501638D01*
X101397555Y-112501638D02*
X101492793Y-112454019D01*
X101492793Y-112454019D02*
X101730888Y-112454019D01*
X101730888Y-112454019D02*
X101826126Y-112501638D01*
X101826126Y-112501638D02*
X101873745Y-112549257D01*
X101873745Y-112549257D02*
X101921364Y-112644495D01*
X101921364Y-112644495D02*
X101921364Y-112739733D01*
X101921364Y-112739733D02*
X101873745Y-112882590D01*
X101873745Y-112882590D02*
X101302317Y-113454019D01*
X101302317Y-113454019D02*
X101921364Y-113454019D01*
X102540412Y-112454019D02*
X102635650Y-112454019D01*
X102635650Y-112454019D02*
X102730888Y-112501638D01*
X102730888Y-112501638D02*
X102778507Y-112549257D01*
X102778507Y-112549257D02*
X102826126Y-112644495D01*
X102826126Y-112644495D02*
X102873745Y-112834971D01*
X102873745Y-112834971D02*
X102873745Y-113073066D01*
X102873745Y-113073066D02*
X102826126Y-113263542D01*
X102826126Y-113263542D02*
X102778507Y-113358780D01*
X102778507Y-113358780D02*
X102730888Y-113406400D01*
X102730888Y-113406400D02*
X102635650Y-113454019D01*
X102635650Y-113454019D02*
X102540412Y-113454019D01*
X102540412Y-113454019D02*
X102445174Y-113406400D01*
X102445174Y-113406400D02*
X102397555Y-113358780D01*
X102397555Y-113358780D02*
X102349936Y-113263542D01*
X102349936Y-113263542D02*
X102302317Y-113073066D01*
X102302317Y-113073066D02*
X102302317Y-112834971D01*
X102302317Y-112834971D02*
X102349936Y-112644495D01*
X102349936Y-112644495D02*
X102397555Y-112549257D01*
X102397555Y-112549257D02*
X102445174Y-112501638D01*
X102445174Y-112501638D02*
X102540412Y-112454019D01*
X158486421Y-89086666D02*
X158534041Y-89134285D01*
X158534041Y-89134285D02*
X158581660Y-89277142D01*
X158581660Y-89277142D02*
X158581660Y-89372380D01*
X158581660Y-89372380D02*
X158534041Y-89515237D01*
X158534041Y-89515237D02*
X158438802Y-89610475D01*
X158438802Y-89610475D02*
X158343564Y-89658094D01*
X158343564Y-89658094D02*
X158153088Y-89705713D01*
X158153088Y-89705713D02*
X158010231Y-89705713D01*
X158010231Y-89705713D02*
X157819755Y-89658094D01*
X157819755Y-89658094D02*
X157724517Y-89610475D01*
X157724517Y-89610475D02*
X157629279Y-89515237D01*
X157629279Y-89515237D02*
X157581660Y-89372380D01*
X157581660Y-89372380D02*
X157581660Y-89277142D01*
X157581660Y-89277142D02*
X157629279Y-89134285D01*
X157629279Y-89134285D02*
X157676898Y-89086666D01*
X157676898Y-88705713D02*
X157629279Y-88658094D01*
X157629279Y-88658094D02*
X157581660Y-88562856D01*
X157581660Y-88562856D02*
X157581660Y-88324761D01*
X157581660Y-88324761D02*
X157629279Y-88229523D01*
X157629279Y-88229523D02*
X157676898Y-88181904D01*
X157676898Y-88181904D02*
X157772136Y-88134285D01*
X157772136Y-88134285D02*
X157867374Y-88134285D01*
X157867374Y-88134285D02*
X158010231Y-88181904D01*
X158010231Y-88181904D02*
X158581660Y-88753332D01*
X158581660Y-88753332D02*
X158581660Y-88134285D01*
X132642783Y-94912019D02*
X132309450Y-94435828D01*
X132071355Y-94912019D02*
X132071355Y-93912019D01*
X132071355Y-93912019D02*
X132452307Y-93912019D01*
X132452307Y-93912019D02*
X132547545Y-93959638D01*
X132547545Y-93959638D02*
X132595164Y-94007257D01*
X132595164Y-94007257D02*
X132642783Y-94102495D01*
X132642783Y-94102495D02*
X132642783Y-94245352D01*
X132642783Y-94245352D02*
X132595164Y-94340590D01*
X132595164Y-94340590D02*
X132547545Y-94388209D01*
X132547545Y-94388209D02*
X132452307Y-94435828D01*
X132452307Y-94435828D02*
X132071355Y-94435828D01*
X133023736Y-94007257D02*
X133071355Y-93959638D01*
X133071355Y-93959638D02*
X133166593Y-93912019D01*
X133166593Y-93912019D02*
X133404688Y-93912019D01*
X133404688Y-93912019D02*
X133499926Y-93959638D01*
X133499926Y-93959638D02*
X133547545Y-94007257D01*
X133547545Y-94007257D02*
X133595164Y-94102495D01*
X133595164Y-94102495D02*
X133595164Y-94197733D01*
X133595164Y-94197733D02*
X133547545Y-94340590D01*
X133547545Y-94340590D02*
X132976117Y-94912019D01*
X132976117Y-94912019D02*
X133595164Y-94912019D01*
X134547545Y-94912019D02*
X133976117Y-94912019D01*
X134261831Y-94912019D02*
X134261831Y-93912019D01*
X134261831Y-93912019D02*
X134166593Y-94054876D01*
X134166593Y-94054876D02*
X134071355Y-94150114D01*
X134071355Y-94150114D02*
X133976117Y-94197733D01*
X126542860Y-85516304D02*
X127352383Y-85516304D01*
X127352383Y-85516304D02*
X127447621Y-85468685D01*
X127447621Y-85468685D02*
X127495241Y-85421066D01*
X127495241Y-85421066D02*
X127542860Y-85325828D01*
X127542860Y-85325828D02*
X127542860Y-85135352D01*
X127542860Y-85135352D02*
X127495241Y-85040114D01*
X127495241Y-85040114D02*
X127447621Y-84992495D01*
X127447621Y-84992495D02*
X127352383Y-84944876D01*
X127352383Y-84944876D02*
X126542860Y-84944876D01*
X127542860Y-83944876D02*
X127542860Y-84516304D01*
X127542860Y-84230590D02*
X126542860Y-84230590D01*
X126542860Y-84230590D02*
X126685717Y-84325828D01*
X126685717Y-84325828D02*
X126780955Y-84421066D01*
X126780955Y-84421066D02*
X126828574Y-84516304D01*
X167485174Y-86022019D02*
X167151841Y-85545828D01*
X166913746Y-86022019D02*
X166913746Y-85022019D01*
X166913746Y-85022019D02*
X167294698Y-85022019D01*
X167294698Y-85022019D02*
X167389936Y-85069638D01*
X167389936Y-85069638D02*
X167437555Y-85117257D01*
X167437555Y-85117257D02*
X167485174Y-85212495D01*
X167485174Y-85212495D02*
X167485174Y-85355352D01*
X167485174Y-85355352D02*
X167437555Y-85450590D01*
X167437555Y-85450590D02*
X167389936Y-85498209D01*
X167389936Y-85498209D02*
X167294698Y-85545828D01*
X167294698Y-85545828D02*
X166913746Y-85545828D01*
X168437555Y-86022019D02*
X167866127Y-86022019D01*
X168151841Y-86022019D02*
X168151841Y-85022019D01*
X168151841Y-85022019D02*
X168056603Y-85164876D01*
X168056603Y-85164876D02*
X167961365Y-85260114D01*
X167961365Y-85260114D02*
X167866127Y-85307733D01*
X132718983Y-108755019D02*
X132385650Y-108278828D01*
X132147555Y-108755019D02*
X132147555Y-107755019D01*
X132147555Y-107755019D02*
X132528507Y-107755019D01*
X132528507Y-107755019D02*
X132623745Y-107802638D01*
X132623745Y-107802638D02*
X132671364Y-107850257D01*
X132671364Y-107850257D02*
X132718983Y-107945495D01*
X132718983Y-107945495D02*
X132718983Y-108088352D01*
X132718983Y-108088352D02*
X132671364Y-108183590D01*
X132671364Y-108183590D02*
X132623745Y-108231209D01*
X132623745Y-108231209D02*
X132528507Y-108278828D01*
X132528507Y-108278828D02*
X132147555Y-108278828D01*
X133099936Y-107850257D02*
X133147555Y-107802638D01*
X133147555Y-107802638D02*
X133242793Y-107755019D01*
X133242793Y-107755019D02*
X133480888Y-107755019D01*
X133480888Y-107755019D02*
X133576126Y-107802638D01*
X133576126Y-107802638D02*
X133623745Y-107850257D01*
X133623745Y-107850257D02*
X133671364Y-107945495D01*
X133671364Y-107945495D02*
X133671364Y-108040733D01*
X133671364Y-108040733D02*
X133623745Y-108183590D01*
X133623745Y-108183590D02*
X133052317Y-108755019D01*
X133052317Y-108755019D02*
X133671364Y-108755019D01*
X134528507Y-108088352D02*
X134528507Y-108755019D01*
X134290412Y-107707400D02*
X134052317Y-108421685D01*
X134052317Y-108421685D02*
X134671364Y-108421685D01*
X116843983Y-99357019D02*
X116510650Y-98880828D01*
X116272555Y-99357019D02*
X116272555Y-98357019D01*
X116272555Y-98357019D02*
X116653507Y-98357019D01*
X116653507Y-98357019D02*
X116748745Y-98404638D01*
X116748745Y-98404638D02*
X116796364Y-98452257D01*
X116796364Y-98452257D02*
X116843983Y-98547495D01*
X116843983Y-98547495D02*
X116843983Y-98690352D01*
X116843983Y-98690352D02*
X116796364Y-98785590D01*
X116796364Y-98785590D02*
X116748745Y-98833209D01*
X116748745Y-98833209D02*
X116653507Y-98880828D01*
X116653507Y-98880828D02*
X116272555Y-98880828D01*
X117796364Y-99357019D02*
X117224936Y-99357019D01*
X117510650Y-99357019D02*
X117510650Y-98357019D01*
X117510650Y-98357019D02*
X117415412Y-98499876D01*
X117415412Y-98499876D02*
X117320174Y-98595114D01*
X117320174Y-98595114D02*
X117224936Y-98642733D01*
X118177317Y-98452257D02*
X118224936Y-98404638D01*
X118224936Y-98404638D02*
X118320174Y-98357019D01*
X118320174Y-98357019D02*
X118558269Y-98357019D01*
X118558269Y-98357019D02*
X118653507Y-98404638D01*
X118653507Y-98404638D02*
X118701126Y-98452257D01*
X118701126Y-98452257D02*
X118748745Y-98547495D01*
X118748745Y-98547495D02*
X118748745Y-98642733D01*
X118748745Y-98642733D02*
X118701126Y-98785590D01*
X118701126Y-98785590D02*
X118129698Y-99357019D01*
X118129698Y-99357019D02*
X118748745Y-99357019D01*
D11*
%TO.C,J4*%
X186295662Y-86895000D02*
X186728675Y-87145000D01*
X186295662Y-87395000D02*
X186295662Y-86895000D01*
X199530000Y-116500000D02*
X187190000Y-116500000D01*
X186728675Y-87145000D02*
X186295662Y-87395000D01*
X187190000Y-77180000D02*
X199530000Y-77180000D01*
X187190000Y-116500000D02*
X187190000Y-77180000D01*
%TO.C,R30*%
X145577841Y-115082000D02*
X146347841Y-115082000D01*
X146347841Y-113712000D02*
X146347841Y-116452000D01*
X146347841Y-116452000D02*
X152887841Y-116452000D01*
X152887841Y-113712000D02*
X146347841Y-113712000D01*
X152887841Y-116452000D02*
X152887841Y-113712000D01*
X153657841Y-115082000D02*
X152887841Y-115082000D01*
%TO.C,R23*%
X129321841Y-105430000D02*
X130091841Y-105430000D01*
X130091841Y-104060000D02*
X130091841Y-106800000D01*
X130091841Y-106800000D02*
X136631841Y-106800000D01*
X136631841Y-104060000D02*
X130091841Y-104060000D01*
X136631841Y-106800000D02*
X136631841Y-104060000D01*
X137401841Y-105430000D02*
X136631841Y-105430000D01*
%TO.C,J2*%
X125046841Y-81360000D02*
X125046841Y-80030000D01*
X126376841Y-81360000D02*
X125046841Y-81360000D01*
X127646841Y-81360000D02*
X140406841Y-81360000D01*
X127646841Y-81360000D02*
X127646841Y-78700000D01*
X140406841Y-81360000D02*
X140406841Y-78700000D01*
X127646841Y-78700000D02*
X140406841Y-78700000D01*
%TO.C,J3*%
X117226841Y-78700000D02*
X117226841Y-80030000D01*
X115896841Y-78700000D02*
X117226841Y-78700000D01*
X114626841Y-78700000D02*
X112026841Y-78700000D01*
X114626841Y-78700000D02*
X114626841Y-81360000D01*
X112026841Y-78700000D02*
X112026841Y-81360000D01*
X114626841Y-81360000D02*
X112026841Y-81360000D01*
%TO.C,R5*%
X163611841Y-114955000D02*
X164381841Y-114955000D01*
X164381841Y-113585000D02*
X164381841Y-116325000D01*
X164381841Y-116325000D02*
X170921841Y-116325000D01*
X170921841Y-113585000D02*
X164381841Y-113585000D01*
X170921841Y-116325000D02*
X170921841Y-113585000D01*
X171691841Y-114955000D02*
X170921841Y-114955000D01*
%TO.C,R13*%
X113446841Y-105430000D02*
X114216841Y-105430000D01*
X114216841Y-104060000D02*
X114216841Y-106800000D01*
X114216841Y-106800000D02*
X120756841Y-106800000D01*
X120756841Y-104060000D02*
X114216841Y-104060000D01*
X120756841Y-106800000D02*
X120756841Y-104060000D01*
X121526841Y-105430000D02*
X120756841Y-105430000D01*
%TO.C,R15*%
X113446841Y-114955000D02*
X114216841Y-114955000D01*
X114216841Y-113585000D02*
X114216841Y-116325000D01*
X114216841Y-116325000D02*
X120756841Y-116325000D01*
X120756841Y-113585000D02*
X114216841Y-113585000D01*
X120756841Y-116325000D02*
X120756841Y-113585000D01*
X121526841Y-114955000D02*
X120756841Y-114955000D01*
%TO.C,J1*%
X95196841Y-90255000D02*
X100396841Y-90255000D01*
X95226841Y-77435000D02*
X95196841Y-90255000D01*
X95226841Y-77435000D02*
X97826841Y-77435000D01*
X97822241Y-80060400D02*
X97826841Y-77435000D01*
X97822241Y-80060400D02*
X100392241Y-80060400D01*
X99062241Y-77444200D02*
X100392241Y-77444200D01*
X100387641Y-78820400D02*
X100387641Y-77490400D01*
X100392241Y-80060400D02*
X100396841Y-90255000D01*
%TO.C,U2*%
X104726841Y-91570000D02*
X122626841Y-91570000D01*
X122626841Y-91570000D02*
X122626841Y-86270000D01*
X104726841Y-89920000D02*
X104726841Y-91570000D01*
X104726841Y-86270000D02*
X104726841Y-87920000D01*
X122626841Y-86270000D02*
X104726841Y-86270000D01*
X104726841Y-89920000D02*
G75*
G03*
X104726841Y-87920000I0J1000000D01*
G01*
%TO.C,C3*%
X144731841Y-77410000D02*
X144731841Y-78774000D01*
X144731841Y-77410000D02*
X152471841Y-77410000D01*
X144731841Y-81286000D02*
X144731841Y-82650000D01*
X144731841Y-82650000D02*
X152471841Y-82650000D01*
X152471841Y-77410000D02*
X152471841Y-78774000D01*
X152471841Y-81286000D02*
X152471841Y-82650000D01*
%TO.C,R11*%
X113446841Y-96540000D02*
X114216841Y-96540000D01*
X114216841Y-95170000D02*
X114216841Y-97910000D01*
X114216841Y-97910000D02*
X120756841Y-97910000D01*
X120756841Y-95170000D02*
X114216841Y-95170000D01*
X120756841Y-97910000D02*
X120756841Y-95170000D01*
X121526841Y-96540000D02*
X120756841Y-96540000D01*
%TO.C,R17*%
X97571841Y-100985000D02*
X98341841Y-100985000D01*
X98341841Y-99615000D02*
X98341841Y-102355000D01*
X98341841Y-102355000D02*
X104881841Y-102355000D01*
X104881841Y-99615000D02*
X98341841Y-99615000D01*
X104881841Y-102355000D02*
X104881841Y-99615000D01*
X105651841Y-100985000D02*
X104881841Y-100985000D01*
%TO.C,Q8*%
X155691841Y-81880000D02*
X159291841Y-81880000D01*
X157491841Y-77430000D02*
G75*
G03*
X155653363Y-81868478I0J-2600000D01*
G01*
X159330319Y-81868478D02*
G75*
G03*
X157491841Y-77430000I-1838478J1838478D01*
G01*
%TO.C,R26*%
X145577841Y-96540000D02*
X146347841Y-96540000D01*
X146347841Y-95170000D02*
X146347841Y-97910000D01*
X146347841Y-97910000D02*
X152887841Y-97910000D01*
X152887841Y-95170000D02*
X146347841Y-95170000D01*
X152887841Y-97910000D02*
X152887841Y-95170000D01*
X153657841Y-96540000D02*
X152887841Y-96540000D01*
%TO.C,R27*%
X145577841Y-100985000D02*
X146347841Y-100985000D01*
X146347841Y-99615000D02*
X146347841Y-102355000D01*
X146347841Y-102355000D02*
X152887841Y-102355000D01*
X152887841Y-99615000D02*
X146347841Y-99615000D01*
X152887841Y-102355000D02*
X152887841Y-99615000D01*
X153657841Y-100985000D02*
X152887841Y-100985000D01*
%TO.C,Q3*%
X179136841Y-98550000D02*
X179136841Y-102150000D01*
X183586841Y-100350000D02*
G75*
G03*
X179148363Y-98511522I-2600000J0D01*
G01*
X179148363Y-102188478D02*
G75*
G03*
X183586841Y-100350000I1838478J1838478D01*
G01*
%TO.C,R19*%
X97571841Y-110383000D02*
X98341841Y-110383000D01*
X98341841Y-109013000D02*
X98341841Y-111753000D01*
X98341841Y-111753000D02*
X104881841Y-111753000D01*
X104881841Y-109013000D02*
X98341841Y-109013000D01*
X104881841Y-111753000D02*
X104881841Y-109013000D01*
X105651841Y-110383000D02*
X104881841Y-110383000D01*
%TO.C,Q2*%
X179136841Y-77595000D02*
X179136841Y-81195000D01*
X183586841Y-79395000D02*
G75*
G03*
X179148363Y-77556522I-2600000J0D01*
G01*
X179148363Y-81233478D02*
G75*
G03*
X183586841Y-79395000I1838478J1838478D01*
G01*
%TO.C,R29*%
X145577841Y-110510000D02*
X146347841Y-110510000D01*
X146347841Y-109140000D02*
X146347841Y-111880000D01*
X146347841Y-111880000D02*
X152887841Y-111880000D01*
X152887841Y-109140000D02*
X146347841Y-109140000D01*
X152887841Y-111880000D02*
X152887841Y-109140000D01*
X153657841Y-110510000D02*
X152887841Y-110510000D01*
%TO.C,R4*%
X163611841Y-92095000D02*
X164381841Y-92095000D01*
X164381841Y-90725000D02*
X164381841Y-93465000D01*
X164381841Y-93465000D02*
X170921841Y-93465000D01*
X170921841Y-90725000D02*
X164381841Y-90725000D01*
X170921841Y-93465000D02*
X170921841Y-90725000D01*
X171691841Y-92095000D02*
X170921841Y-92095000D01*
%TO.C,R14*%
X113446841Y-110383000D02*
X114216841Y-110383000D01*
X114216841Y-109013000D02*
X114216841Y-111753000D01*
X114216841Y-111753000D02*
X120756841Y-111753000D01*
X120756841Y-109013000D02*
X114216841Y-109013000D01*
X120756841Y-111753000D02*
X120756841Y-109013000D01*
X121526841Y-110383000D02*
X120756841Y-110383000D01*
%TO.C,R18*%
X97571841Y-105430000D02*
X98341841Y-105430000D01*
X98341841Y-104060000D02*
X98341841Y-106800000D01*
X98341841Y-106800000D02*
X104881841Y-106800000D01*
X104881841Y-104060000D02*
X98341841Y-104060000D01*
X104881841Y-106800000D02*
X104881841Y-104060000D01*
X105651841Y-105430000D02*
X104881841Y-105430000D01*
%TO.C,JP1*%
X108621841Y-78615000D02*
X108621841Y-81415000D01*
X106621841Y-78615000D02*
X108621841Y-78615000D01*
X108621841Y-81415000D02*
X106621841Y-81415000D01*
X106621841Y-81415000D02*
X106621841Y-78615000D01*
%TO.C,Q6*%
X179136841Y-105535000D02*
X179136841Y-109135000D01*
X183586841Y-107335000D02*
G75*
G03*
X179148363Y-105496522I-2600000J0D01*
G01*
X179148363Y-109173478D02*
G75*
G03*
X183586841Y-107335000I1838478J1838478D01*
G01*
%TO.C,R16*%
X97571841Y-96540000D02*
X98341841Y-96540000D01*
X98341841Y-95170000D02*
X98341841Y-97910000D01*
X98341841Y-97910000D02*
X104881841Y-97910000D01*
X104881841Y-95170000D02*
X98341841Y-95170000D01*
X104881841Y-97910000D02*
X104881841Y-95170000D01*
X105651841Y-96540000D02*
X104881841Y-96540000D01*
%TO.C,R8*%
X171691841Y-83205000D02*
X170921841Y-83205000D01*
X170921841Y-84575000D02*
X170921841Y-81835000D01*
X170921841Y-81835000D02*
X164381841Y-81835000D01*
X164381841Y-84575000D02*
X170921841Y-84575000D01*
X164381841Y-81835000D02*
X164381841Y-84575000D01*
X163611841Y-83205000D02*
X164381841Y-83205000D01*
%TO.C,R10*%
X171691841Y-110383000D02*
X170921841Y-110383000D01*
X170921841Y-111753000D02*
X170921841Y-109013000D01*
X170921841Y-109013000D02*
X164381841Y-109013000D01*
X164381841Y-111753000D02*
X170921841Y-111753000D01*
X164381841Y-109013000D02*
X164381841Y-111753000D01*
X163611841Y-110383000D02*
X164381841Y-110383000D01*
%TO.C,R3*%
X163611841Y-100985000D02*
X164381841Y-100985000D01*
X164381841Y-99615000D02*
X164381841Y-102355000D01*
X164381841Y-102355000D02*
X170921841Y-102355000D01*
X170921841Y-99615000D02*
X164381841Y-99615000D01*
X170921841Y-102355000D02*
X170921841Y-99615000D01*
X171691841Y-100985000D02*
X170921841Y-100985000D01*
%TO.C,R25*%
X129321841Y-114955000D02*
X130091841Y-114955000D01*
X130091841Y-113585000D02*
X130091841Y-116325000D01*
X130091841Y-116325000D02*
X136631841Y-116325000D01*
X136631841Y-113585000D02*
X130091841Y-113585000D01*
X136631841Y-116325000D02*
X136631841Y-113585000D01*
X137401841Y-114955000D02*
X136631841Y-114955000D01*
%TO.C,R6*%
X163611841Y-105684000D02*
X164381841Y-105684000D01*
X164381841Y-104314000D02*
X164381841Y-107054000D01*
X164381841Y-107054000D02*
X170921841Y-107054000D01*
X170921841Y-104314000D02*
X164381841Y-104314000D01*
X170921841Y-107054000D02*
X170921841Y-104314000D01*
X171691841Y-105684000D02*
X170921841Y-105684000D01*
%TO.C,C1*%
X126476841Y-86300000D02*
X126161841Y-86300000D01*
X126476841Y-86300000D02*
X126476841Y-91540000D01*
X124051841Y-86300000D02*
X123736841Y-86300000D01*
X123736841Y-86300000D02*
X123736841Y-91540000D01*
X126476841Y-91540000D02*
X126161841Y-91540000D01*
X124051841Y-91540000D02*
X123736841Y-91540000D01*
%TO.C,Q5*%
X179136841Y-112520000D02*
X179136841Y-116120000D01*
X183586841Y-114320000D02*
G75*
G03*
X179148363Y-112481522I-2600000J0D01*
G01*
X179148363Y-116158478D02*
G75*
G03*
X183586841Y-114320000I1838478J1838478D01*
G01*
%TO.C,Q1*%
X179136841Y-84580000D02*
X179136841Y-88180000D01*
X183586841Y-86380000D02*
G75*
G03*
X179148363Y-84541522I-2600000J0D01*
G01*
X179148363Y-88218478D02*
G75*
G03*
X183586841Y-86380000I1838478J1838478D01*
G01*
%TO.C,R2*%
X163611841Y-78760000D02*
X164381841Y-78760000D01*
X164381841Y-77390000D02*
X164381841Y-80130000D01*
X164381841Y-80130000D02*
X170921841Y-80130000D01*
X170921841Y-77390000D02*
X164381841Y-77390000D01*
X170921841Y-80130000D02*
X170921841Y-77390000D01*
X171691841Y-78760000D02*
X170921841Y-78760000D01*
%TO.C,R9*%
X171691841Y-96540000D02*
X170921841Y-96540000D01*
X170921841Y-97910000D02*
X170921841Y-95170000D01*
X170921841Y-95170000D02*
X164381841Y-95170000D01*
X164381841Y-97910000D02*
X170921841Y-97910000D01*
X164381841Y-95170000D02*
X164381841Y-97910000D01*
X163611841Y-96540000D02*
X164381841Y-96540000D01*
%TO.C,Q4*%
X179136841Y-91565000D02*
X179136841Y-95165000D01*
X183586841Y-93365000D02*
G75*
G03*
X179148363Y-91526522I-2600000J0D01*
G01*
X179148363Y-95203478D02*
G75*
G03*
X183586841Y-93365000I1838478J1838478D01*
G01*
%TO.C,R22*%
X129321841Y-100985000D02*
X130091841Y-100985000D01*
X130091841Y-99615000D02*
X130091841Y-102355000D01*
X130091841Y-102355000D02*
X136631841Y-102355000D01*
X136631841Y-99615000D02*
X130091841Y-99615000D01*
X136631841Y-102355000D02*
X136631841Y-99615000D01*
X137401841Y-100985000D02*
X136631841Y-100985000D01*
%TO.C,R28*%
X145577841Y-105684000D02*
X146347841Y-105684000D01*
X146347841Y-104314000D02*
X146347841Y-107054000D01*
X146347841Y-107054000D02*
X152887841Y-107054000D01*
X152887841Y-104314000D02*
X146347841Y-104314000D01*
X152887841Y-107054000D02*
X152887841Y-104314000D01*
X153657841Y-105684000D02*
X152887841Y-105684000D01*
%TO.C,R20*%
X97571841Y-115082000D02*
X98341841Y-115082000D01*
X98341841Y-113712000D02*
X98341841Y-116452000D01*
X98341841Y-116452000D02*
X104881841Y-116452000D01*
X104881841Y-113712000D02*
X98341841Y-113712000D01*
X104881841Y-116452000D02*
X104881841Y-113712000D01*
X105651841Y-115082000D02*
X104881841Y-115082000D01*
%TO.C,C2*%
X154216841Y-91540000D02*
X154531841Y-91540000D01*
X154216841Y-91540000D02*
X154216841Y-86300000D01*
X156641841Y-91540000D02*
X156956841Y-91540000D01*
X156956841Y-91540000D02*
X156956841Y-86300000D01*
X154216841Y-86300000D02*
X154531841Y-86300000D01*
X156641841Y-86300000D02*
X156956841Y-86300000D01*
%TO.C,R21*%
X129321841Y-96540000D02*
X130091841Y-96540000D01*
X130091841Y-95170000D02*
X130091841Y-97910000D01*
X130091841Y-97910000D02*
X136631841Y-97910000D01*
X136631841Y-95170000D02*
X130091841Y-95170000D01*
X136631841Y-97910000D02*
X136631841Y-95170000D01*
X137401841Y-96540000D02*
X136631841Y-96540000D01*
%TO.C,U1*%
X127586841Y-91570000D02*
X153106841Y-91570000D01*
X153106841Y-91570000D02*
X153106841Y-86270000D01*
X127586841Y-89920000D02*
X127586841Y-91570000D01*
X127586841Y-86270000D02*
X127586841Y-87920000D01*
X153106841Y-86270000D02*
X127586841Y-86270000D01*
X127586841Y-89920000D02*
G75*
G03*
X127586841Y-87920000I0J1000000D01*
G01*
%TO.C,R1*%
X163611841Y-87650000D02*
X164381841Y-87650000D01*
X164381841Y-86280000D02*
X164381841Y-89020000D01*
X164381841Y-89020000D02*
X170921841Y-89020000D01*
X170921841Y-86280000D02*
X164381841Y-86280000D01*
X170921841Y-89020000D02*
X170921841Y-86280000D01*
X171691841Y-87650000D02*
X170921841Y-87650000D01*
%TO.C,R24*%
X129321841Y-110383000D02*
X130091841Y-110383000D01*
X130091841Y-109013000D02*
X130091841Y-111753000D01*
X130091841Y-111753000D02*
X136631841Y-111753000D01*
X136631841Y-109013000D02*
X130091841Y-109013000D01*
X136631841Y-111753000D02*
X136631841Y-109013000D01*
X137401841Y-110383000D02*
X136631841Y-110383000D01*
%TO.C,R12*%
X113446841Y-100985000D02*
X114216841Y-100985000D01*
X114216841Y-99615000D02*
X114216841Y-102355000D01*
X114216841Y-102355000D02*
X120756841Y-102355000D01*
X120756841Y-99615000D02*
X114216841Y-99615000D01*
X120756841Y-102355000D02*
X120756841Y-99615000D01*
X121526841Y-100985000D02*
X120756841Y-100985000D01*
%TD*%
M02*
