%TF.GenerationSoftware,KiCad,Pcbnew,7.0.8*%
%TF.CreationDate,2025-03-02T18:31:22+01:00*%
%TF.ProjectId,a2keyboardToPCT-XT2AT,61326b65-7962-46f6-9172-64546f504354,rev?*%
%TF.SameCoordinates,Original*%
%TF.FileFunction,Legend,Top*%
%TF.FilePolarity,Positive*%
%FSLAX46Y46*%
G04 Gerber Fmt 4.6, Leading zero omitted, Abs format (unit mm)*
G04 Created by KiCad (PCBNEW 7.0.8) date 2025-03-02 18:31:22*
%MOMM*%
%LPD*%
G01*
G04 APERTURE LIST*
%ADD10C,0.150000*%
%ADD11C,0.120000*%
G04 APERTURE END LIST*
D10*
X54749819Y-54416077D02*
X54749819Y-53844649D01*
X55749819Y-54130363D02*
X54749819Y-54130363D01*
X55749819Y-53368458D02*
X55702200Y-53463696D01*
X55702200Y-53463696D02*
X55654580Y-53511315D01*
X55654580Y-53511315D02*
X55559342Y-53558934D01*
X55559342Y-53558934D02*
X55273628Y-53558934D01*
X55273628Y-53558934D02*
X55178390Y-53511315D01*
X55178390Y-53511315D02*
X55130771Y-53463696D01*
X55130771Y-53463696D02*
X55083152Y-53368458D01*
X55083152Y-53368458D02*
X55083152Y-53225601D01*
X55083152Y-53225601D02*
X55130771Y-53130363D01*
X55130771Y-53130363D02*
X55178390Y-53082744D01*
X55178390Y-53082744D02*
X55273628Y-53035125D01*
X55273628Y-53035125D02*
X55559342Y-53035125D01*
X55559342Y-53035125D02*
X55654580Y-53082744D01*
X55654580Y-53082744D02*
X55702200Y-53130363D01*
X55702200Y-53130363D02*
X55749819Y-53225601D01*
X55749819Y-53225601D02*
X55749819Y-53368458D01*
X55749819Y-52606553D02*
X54749819Y-52606553D01*
X54749819Y-52606553D02*
X54749819Y-52225601D01*
X54749819Y-52225601D02*
X54797438Y-52130363D01*
X54797438Y-52130363D02*
X54845057Y-52082744D01*
X54845057Y-52082744D02*
X54940295Y-52035125D01*
X54940295Y-52035125D02*
X55083152Y-52035125D01*
X55083152Y-52035125D02*
X55178390Y-52082744D01*
X55178390Y-52082744D02*
X55226009Y-52130363D01*
X55226009Y-52130363D02*
X55273628Y-52225601D01*
X55273628Y-52225601D02*
X55273628Y-52606553D01*
X55654580Y-51035125D02*
X55702200Y-51082744D01*
X55702200Y-51082744D02*
X55749819Y-51225601D01*
X55749819Y-51225601D02*
X55749819Y-51320839D01*
X55749819Y-51320839D02*
X55702200Y-51463696D01*
X55702200Y-51463696D02*
X55606961Y-51558934D01*
X55606961Y-51558934D02*
X55511723Y-51606553D01*
X55511723Y-51606553D02*
X55321247Y-51654172D01*
X55321247Y-51654172D02*
X55178390Y-51654172D01*
X55178390Y-51654172D02*
X54987914Y-51606553D01*
X54987914Y-51606553D02*
X54892676Y-51558934D01*
X54892676Y-51558934D02*
X54797438Y-51463696D01*
X54797438Y-51463696D02*
X54749819Y-51320839D01*
X54749819Y-51320839D02*
X54749819Y-51225601D01*
X54749819Y-51225601D02*
X54797438Y-51082744D01*
X54797438Y-51082744D02*
X54845057Y-51035125D01*
X54749819Y-50749410D02*
X54749819Y-50177982D01*
X55749819Y-50463696D02*
X54749819Y-50463696D01*
X66341666Y-45174819D02*
X66341666Y-45889104D01*
X66341666Y-45889104D02*
X66294047Y-46031961D01*
X66294047Y-46031961D02*
X66198809Y-46127200D01*
X66198809Y-46127200D02*
X66055952Y-46174819D01*
X66055952Y-46174819D02*
X65960714Y-46174819D01*
X66770238Y-45270057D02*
X66817857Y-45222438D01*
X66817857Y-45222438D02*
X66913095Y-45174819D01*
X66913095Y-45174819D02*
X67151190Y-45174819D01*
X67151190Y-45174819D02*
X67246428Y-45222438D01*
X67246428Y-45222438D02*
X67294047Y-45270057D01*
X67294047Y-45270057D02*
X67341666Y-45365295D01*
X67341666Y-45365295D02*
X67341666Y-45460533D01*
X67341666Y-45460533D02*
X67294047Y-45603390D01*
X67294047Y-45603390D02*
X66722619Y-46174819D01*
X66722619Y-46174819D02*
X67341666Y-46174819D01*
X61458095Y-57654819D02*
X61458095Y-58464342D01*
X61458095Y-58464342D02*
X61505714Y-58559580D01*
X61505714Y-58559580D02*
X61553333Y-58607200D01*
X61553333Y-58607200D02*
X61648571Y-58654819D01*
X61648571Y-58654819D02*
X61839047Y-58654819D01*
X61839047Y-58654819D02*
X61934285Y-58607200D01*
X61934285Y-58607200D02*
X61981904Y-58559580D01*
X61981904Y-58559580D02*
X62029523Y-58464342D01*
X62029523Y-58464342D02*
X62029523Y-57654819D01*
X63029523Y-58654819D02*
X62458095Y-58654819D01*
X62743809Y-58654819D02*
X62743809Y-57654819D01*
X62743809Y-57654819D02*
X62648571Y-57797676D01*
X62648571Y-57797676D02*
X62553333Y-57892914D01*
X62553333Y-57892914D02*
X62458095Y-57940533D01*
X54911666Y-45174819D02*
X54911666Y-45889104D01*
X54911666Y-45889104D02*
X54864047Y-46031961D01*
X54864047Y-46031961D02*
X54768809Y-46127200D01*
X54768809Y-46127200D02*
X54625952Y-46174819D01*
X54625952Y-46174819D02*
X54530714Y-46174819D01*
X55911666Y-46174819D02*
X55340238Y-46174819D01*
X55625952Y-46174819D02*
X55625952Y-45174819D01*
X55625952Y-45174819D02*
X55530714Y-45317676D01*
X55530714Y-45317676D02*
X55435476Y-45412914D01*
X55435476Y-45412914D02*
X55340238Y-45460533D01*
D11*
%TO.C,J2*%
X79315000Y-56770000D02*
X79315000Y-57530000D01*
X70257929Y-54230000D02*
X70655000Y-54230000D01*
X79315000Y-57530000D02*
X73315000Y-57530000D01*
X67945000Y-46990000D02*
X67945000Y-45720000D01*
X73315000Y-56770000D02*
X79315000Y-56770000D01*
X73315000Y-46610000D02*
X79315000Y-46610000D01*
X79315000Y-46610000D02*
X79315000Y-47370000D01*
X79315000Y-54230000D02*
X79315000Y-54990000D01*
X73315000Y-54230000D02*
X79315000Y-54230000D01*
X73315000Y-47150000D02*
X79315000Y-47150000D01*
X70257929Y-49910000D02*
X70655000Y-49910000D01*
X73315000Y-47270000D02*
X79315000Y-47270000D01*
X70325000Y-46610000D02*
X70655000Y-46610000D01*
X73315000Y-46910000D02*
X79315000Y-46910000D01*
X79315000Y-49150000D02*
X79315000Y-49910000D01*
X73315000Y-46790000D02*
X79315000Y-46790000D01*
X70257929Y-49150000D02*
X70655000Y-49150000D01*
X73315000Y-46670000D02*
X79315000Y-46670000D01*
X79315000Y-47370000D02*
X73315000Y-47370000D01*
X73315000Y-47030000D02*
X79315000Y-47030000D01*
X70655000Y-58480000D02*
X73315000Y-58480000D01*
X79315000Y-52450000D02*
X73315000Y-52450000D01*
X73315000Y-51690000D02*
X79315000Y-51690000D01*
X70257929Y-56770000D02*
X70655000Y-56770000D01*
X73315000Y-49150000D02*
X79315000Y-49150000D01*
X79315000Y-51690000D02*
X79315000Y-52450000D01*
X70257929Y-57530000D02*
X70655000Y-57530000D01*
X70655000Y-45660000D02*
X70655000Y-58480000D01*
X70325000Y-47370000D02*
X70655000Y-47370000D01*
X70655000Y-53340000D02*
X73315000Y-53340000D01*
X70655000Y-48260000D02*
X73315000Y-48260000D01*
X79315000Y-49910000D02*
X73315000Y-49910000D01*
X67945000Y-45720000D02*
X69215000Y-45720000D01*
X70257929Y-51690000D02*
X70655000Y-51690000D01*
X70655000Y-55880000D02*
X73315000Y-55880000D01*
X70257929Y-52450000D02*
X70655000Y-52450000D01*
X70655000Y-50800000D02*
X73315000Y-50800000D01*
X73315000Y-45660000D02*
X70655000Y-45660000D01*
X73315000Y-58480000D02*
X73315000Y-45660000D01*
X79315000Y-54990000D02*
X73315000Y-54990000D01*
X70257929Y-54990000D02*
X70655000Y-54990000D01*
%TO.C,U1*%
X59570000Y-57200000D02*
X61220000Y-57200000D01*
X64870000Y-57200000D02*
X64870000Y-46920000D01*
X59570000Y-46920000D02*
X59570000Y-57200000D01*
X63220000Y-57200000D02*
X64870000Y-57200000D01*
X64870000Y-46920000D02*
X59570000Y-46920000D01*
X63220000Y-57200000D02*
G75*
G03*
X61220000Y-57200000I-1000000J0D01*
G01*
%TO.C,J1*%
X52730000Y-45660000D02*
X54060000Y-45660000D01*
X51400000Y-58480000D02*
X54060000Y-58480000D01*
X51400000Y-48260000D02*
X54060000Y-48260000D01*
X51400000Y-48260000D02*
X51400000Y-58480000D01*
X54060000Y-48260000D02*
X54060000Y-58480000D01*
X54060000Y-45660000D02*
X54060000Y-46990000D01*
%TD*%
M02*
