%TF.GenerationSoftware,KiCad,Pcbnew,7.0.8*%
%TF.CreationDate,2024-12-22T17:31:23+01:00*%
%TF.ProjectId,pctransporter,70637472-616e-4737-906f-727465722e6b,rev?*%
%TF.SameCoordinates,Original*%
%TF.FileFunction,Legend,Top*%
%TF.FilePolarity,Positive*%
%FSLAX46Y46*%
G04 Gerber Fmt 4.6, Leading zero omitted, Abs format (unit mm)*
G04 Created by KiCad (PCBNEW 7.0.8) date 2024-12-22 17:31:23*
%MOMM*%
%LPD*%
G01*
G04 APERTURE LIST*
%ADD10C,0.300000*%
%ADD11C,0.150000*%
%ADD12C,0.120000*%
G04 APERTURE END LIST*
D10*
X29010828Y-41990489D02*
X27510828Y-41990489D01*
X28439400Y-41847632D02*
X29010828Y-41419060D01*
X28010828Y-41419060D02*
X28582257Y-41990489D01*
X28939400Y-40204774D02*
X29010828Y-40347631D01*
X29010828Y-40347631D02*
X29010828Y-40633346D01*
X29010828Y-40633346D02*
X28939400Y-40776203D01*
X28939400Y-40776203D02*
X28796542Y-40847631D01*
X28796542Y-40847631D02*
X28225114Y-40847631D01*
X28225114Y-40847631D02*
X28082257Y-40776203D01*
X28082257Y-40776203D02*
X28010828Y-40633346D01*
X28010828Y-40633346D02*
X28010828Y-40347631D01*
X28010828Y-40347631D02*
X28082257Y-40204774D01*
X28082257Y-40204774D02*
X28225114Y-40133346D01*
X28225114Y-40133346D02*
X28367971Y-40133346D01*
X28367971Y-40133346D02*
X28510828Y-40847631D01*
X28010828Y-39633346D02*
X29010828Y-39276203D01*
X28010828Y-38919060D02*
X29010828Y-39276203D01*
X29010828Y-39276203D02*
X29367971Y-39419060D01*
X29367971Y-39419060D02*
X29439400Y-39490489D01*
X29439400Y-39490489D02*
X29510828Y-39633346D01*
X29010828Y-38347632D02*
X27510828Y-38347632D01*
X28082257Y-38347632D02*
X28010828Y-38204775D01*
X28010828Y-38204775D02*
X28010828Y-37919060D01*
X28010828Y-37919060D02*
X28082257Y-37776203D01*
X28082257Y-37776203D02*
X28153685Y-37704775D01*
X28153685Y-37704775D02*
X28296542Y-37633346D01*
X28296542Y-37633346D02*
X28725114Y-37633346D01*
X28725114Y-37633346D02*
X28867971Y-37704775D01*
X28867971Y-37704775D02*
X28939400Y-37776203D01*
X28939400Y-37776203D02*
X29010828Y-37919060D01*
X29010828Y-37919060D02*
X29010828Y-38204775D01*
X29010828Y-38204775D02*
X28939400Y-38347632D01*
X29010828Y-36776203D02*
X28939400Y-36919060D01*
X28939400Y-36919060D02*
X28867971Y-36990489D01*
X28867971Y-36990489D02*
X28725114Y-37061917D01*
X28725114Y-37061917D02*
X28296542Y-37061917D01*
X28296542Y-37061917D02*
X28153685Y-36990489D01*
X28153685Y-36990489D02*
X28082257Y-36919060D01*
X28082257Y-36919060D02*
X28010828Y-36776203D01*
X28010828Y-36776203D02*
X28010828Y-36561917D01*
X28010828Y-36561917D02*
X28082257Y-36419060D01*
X28082257Y-36419060D02*
X28153685Y-36347632D01*
X28153685Y-36347632D02*
X28296542Y-36276203D01*
X28296542Y-36276203D02*
X28725114Y-36276203D01*
X28725114Y-36276203D02*
X28867971Y-36347632D01*
X28867971Y-36347632D02*
X28939400Y-36419060D01*
X28939400Y-36419060D02*
X29010828Y-36561917D01*
X29010828Y-36561917D02*
X29010828Y-36776203D01*
X29010828Y-34990489D02*
X28225114Y-34990489D01*
X28225114Y-34990489D02*
X28082257Y-35061917D01*
X28082257Y-35061917D02*
X28010828Y-35204774D01*
X28010828Y-35204774D02*
X28010828Y-35490489D01*
X28010828Y-35490489D02*
X28082257Y-35633346D01*
X28939400Y-34990489D02*
X29010828Y-35133346D01*
X29010828Y-35133346D02*
X29010828Y-35490489D01*
X29010828Y-35490489D02*
X28939400Y-35633346D01*
X28939400Y-35633346D02*
X28796542Y-35704774D01*
X28796542Y-35704774D02*
X28653685Y-35704774D01*
X28653685Y-35704774D02*
X28510828Y-35633346D01*
X28510828Y-35633346D02*
X28439400Y-35490489D01*
X28439400Y-35490489D02*
X28439400Y-35133346D01*
X28439400Y-35133346D02*
X28367971Y-34990489D01*
X29010828Y-34276203D02*
X28010828Y-34276203D01*
X28296542Y-34276203D02*
X28153685Y-34204774D01*
X28153685Y-34204774D02*
X28082257Y-34133346D01*
X28082257Y-34133346D02*
X28010828Y-33990488D01*
X28010828Y-33990488D02*
X28010828Y-33847631D01*
X29010828Y-32704775D02*
X27510828Y-32704775D01*
X28939400Y-32704775D02*
X29010828Y-32847632D01*
X29010828Y-32847632D02*
X29010828Y-33133346D01*
X29010828Y-33133346D02*
X28939400Y-33276203D01*
X28939400Y-33276203D02*
X28867971Y-33347632D01*
X28867971Y-33347632D02*
X28725114Y-33419060D01*
X28725114Y-33419060D02*
X28296542Y-33419060D01*
X28296542Y-33419060D02*
X28153685Y-33347632D01*
X28153685Y-33347632D02*
X28082257Y-33276203D01*
X28082257Y-33276203D02*
X28010828Y-33133346D01*
X28010828Y-33133346D02*
X28010828Y-32847632D01*
X28010828Y-32847632D02*
X28082257Y-32704775D01*
X28439400Y-30847632D02*
X28439400Y-29704775D01*
X28439400Y-28990489D02*
X28439400Y-27847632D01*
X28010828Y-27133346D02*
X28439400Y-25990489D01*
X28439400Y-25990489D02*
X28867971Y-27133346D01*
X28010828Y-80852632D02*
X28439400Y-81995489D01*
X28439400Y-81995489D02*
X28867971Y-80852632D01*
X28439400Y-80138346D02*
X28439400Y-78995489D01*
X28439400Y-78281203D02*
X28439400Y-77138346D01*
X29010828Y-75281203D02*
X27510828Y-75281203D01*
X28082257Y-75281203D02*
X28010828Y-75138346D01*
X28010828Y-75138346D02*
X28010828Y-74852631D01*
X28010828Y-74852631D02*
X28082257Y-74709774D01*
X28082257Y-74709774D02*
X28153685Y-74638346D01*
X28153685Y-74638346D02*
X28296542Y-74566917D01*
X28296542Y-74566917D02*
X28725114Y-74566917D01*
X28725114Y-74566917D02*
X28867971Y-74638346D01*
X28867971Y-74638346D02*
X28939400Y-74709774D01*
X28939400Y-74709774D02*
X29010828Y-74852631D01*
X29010828Y-74852631D02*
X29010828Y-75138346D01*
X29010828Y-75138346D02*
X28939400Y-75281203D01*
X29010828Y-73281203D02*
X28225114Y-73281203D01*
X28225114Y-73281203D02*
X28082257Y-73352631D01*
X28082257Y-73352631D02*
X28010828Y-73495488D01*
X28010828Y-73495488D02*
X28010828Y-73781203D01*
X28010828Y-73781203D02*
X28082257Y-73924060D01*
X28939400Y-73281203D02*
X29010828Y-73424060D01*
X29010828Y-73424060D02*
X29010828Y-73781203D01*
X29010828Y-73781203D02*
X28939400Y-73924060D01*
X28939400Y-73924060D02*
X28796542Y-73995488D01*
X28796542Y-73995488D02*
X28653685Y-73995488D01*
X28653685Y-73995488D02*
X28510828Y-73924060D01*
X28510828Y-73924060D02*
X28439400Y-73781203D01*
X28439400Y-73781203D02*
X28439400Y-73424060D01*
X28439400Y-73424060D02*
X28367971Y-73281203D01*
X28939400Y-71924060D02*
X29010828Y-72066917D01*
X29010828Y-72066917D02*
X29010828Y-72352631D01*
X29010828Y-72352631D02*
X28939400Y-72495488D01*
X28939400Y-72495488D02*
X28867971Y-72566917D01*
X28867971Y-72566917D02*
X28725114Y-72638345D01*
X28725114Y-72638345D02*
X28296542Y-72638345D01*
X28296542Y-72638345D02*
X28153685Y-72566917D01*
X28153685Y-72566917D02*
X28082257Y-72495488D01*
X28082257Y-72495488D02*
X28010828Y-72352631D01*
X28010828Y-72352631D02*
X28010828Y-72066917D01*
X28010828Y-72066917D02*
X28082257Y-71924060D01*
X29010828Y-71281203D02*
X27510828Y-71281203D01*
X28439400Y-71138346D02*
X29010828Y-70709774D01*
X28010828Y-70709774D02*
X28582257Y-71281203D01*
D11*
X32204819Y-36991666D02*
X31728628Y-37324999D01*
X32204819Y-37563094D02*
X31204819Y-37563094D01*
X31204819Y-37563094D02*
X31204819Y-37182142D01*
X31204819Y-37182142D02*
X31252438Y-37086904D01*
X31252438Y-37086904D02*
X31300057Y-37039285D01*
X31300057Y-37039285D02*
X31395295Y-36991666D01*
X31395295Y-36991666D02*
X31538152Y-36991666D01*
X31538152Y-36991666D02*
X31633390Y-37039285D01*
X31633390Y-37039285D02*
X31681009Y-37086904D01*
X31681009Y-37086904D02*
X31728628Y-37182142D01*
X31728628Y-37182142D02*
X31728628Y-37563094D01*
X32204819Y-36039285D02*
X32204819Y-36610713D01*
X32204819Y-36324999D02*
X31204819Y-36324999D01*
X31204819Y-36324999D02*
X31347676Y-36420237D01*
X31347676Y-36420237D02*
X31442914Y-36515475D01*
X31442914Y-36515475D02*
X31490533Y-36610713D01*
X35861666Y-72479819D02*
X35861666Y-73194104D01*
X35861666Y-73194104D02*
X35814047Y-73336961D01*
X35814047Y-73336961D02*
X35718809Y-73432200D01*
X35718809Y-73432200D02*
X35575952Y-73479819D01*
X35575952Y-73479819D02*
X35480714Y-73479819D01*
X36861666Y-73479819D02*
X36290238Y-73479819D01*
X36575952Y-73479819D02*
X36575952Y-72479819D01*
X36575952Y-72479819D02*
X36480714Y-72622676D01*
X36480714Y-72622676D02*
X36385476Y-72717914D01*
X36385476Y-72717914D02*
X36290238Y-72765533D01*
X42364819Y-62165001D02*
X41364819Y-62165001D01*
X41364819Y-62165001D02*
X41364819Y-61784049D01*
X41364819Y-61784049D02*
X41412438Y-61688811D01*
X41412438Y-61688811D02*
X41460057Y-61641192D01*
X41460057Y-61641192D02*
X41555295Y-61593573D01*
X41555295Y-61593573D02*
X41698152Y-61593573D01*
X41698152Y-61593573D02*
X41793390Y-61641192D01*
X41793390Y-61641192D02*
X41841009Y-61688811D01*
X41841009Y-61688811D02*
X41888628Y-61784049D01*
X41888628Y-61784049D02*
X41888628Y-62165001D01*
X42269580Y-60593573D02*
X42317200Y-60641192D01*
X42317200Y-60641192D02*
X42364819Y-60784049D01*
X42364819Y-60784049D02*
X42364819Y-60879287D01*
X42364819Y-60879287D02*
X42317200Y-61022144D01*
X42317200Y-61022144D02*
X42221961Y-61117382D01*
X42221961Y-61117382D02*
X42126723Y-61165001D01*
X42126723Y-61165001D02*
X41936247Y-61212620D01*
X41936247Y-61212620D02*
X41793390Y-61212620D01*
X41793390Y-61212620D02*
X41602914Y-61165001D01*
X41602914Y-61165001D02*
X41507676Y-61117382D01*
X41507676Y-61117382D02*
X41412438Y-61022144D01*
X41412438Y-61022144D02*
X41364819Y-60879287D01*
X41364819Y-60879287D02*
X41364819Y-60784049D01*
X41364819Y-60784049D02*
X41412438Y-60641192D01*
X41412438Y-60641192D02*
X41460057Y-60593573D01*
X41364819Y-60307858D02*
X41364819Y-59736430D01*
X42364819Y-60022144D02*
X41364819Y-60022144D01*
X41983866Y-59403096D02*
X41983866Y-58641192D01*
X42079104Y-58212620D02*
X42079104Y-57736430D01*
X42364819Y-58307858D02*
X41364819Y-57974525D01*
X41364819Y-57974525D02*
X42364819Y-57641192D01*
X41698152Y-57307858D02*
X42698152Y-57307858D01*
X41745771Y-57307858D02*
X41698152Y-57212620D01*
X41698152Y-57212620D02*
X41698152Y-57022144D01*
X41698152Y-57022144D02*
X41745771Y-56926906D01*
X41745771Y-56926906D02*
X41793390Y-56879287D01*
X41793390Y-56879287D02*
X41888628Y-56831668D01*
X41888628Y-56831668D02*
X42174342Y-56831668D01*
X42174342Y-56831668D02*
X42269580Y-56879287D01*
X42269580Y-56879287D02*
X42317200Y-56926906D01*
X42317200Y-56926906D02*
X42364819Y-57022144D01*
X42364819Y-57022144D02*
X42364819Y-57212620D01*
X42364819Y-57212620D02*
X42317200Y-57307858D01*
X41698152Y-56403096D02*
X42698152Y-56403096D01*
X41745771Y-56403096D02*
X41698152Y-56307858D01*
X41698152Y-56307858D02*
X41698152Y-56117382D01*
X41698152Y-56117382D02*
X41745771Y-56022144D01*
X41745771Y-56022144D02*
X41793390Y-55974525D01*
X41793390Y-55974525D02*
X41888628Y-55926906D01*
X41888628Y-55926906D02*
X42174342Y-55926906D01*
X42174342Y-55926906D02*
X42269580Y-55974525D01*
X42269580Y-55974525D02*
X42317200Y-56022144D01*
X42317200Y-56022144D02*
X42364819Y-56117382D01*
X42364819Y-56117382D02*
X42364819Y-56307858D01*
X42364819Y-56307858D02*
X42317200Y-56403096D01*
X42364819Y-55355477D02*
X42317200Y-55450715D01*
X42317200Y-55450715D02*
X42221961Y-55498334D01*
X42221961Y-55498334D02*
X41364819Y-55498334D01*
X42317200Y-54593572D02*
X42364819Y-54688810D01*
X42364819Y-54688810D02*
X42364819Y-54879286D01*
X42364819Y-54879286D02*
X42317200Y-54974524D01*
X42317200Y-54974524D02*
X42221961Y-55022143D01*
X42221961Y-55022143D02*
X41841009Y-55022143D01*
X41841009Y-55022143D02*
X41745771Y-54974524D01*
X41745771Y-54974524D02*
X41698152Y-54879286D01*
X41698152Y-54879286D02*
X41698152Y-54688810D01*
X41698152Y-54688810D02*
X41745771Y-54593572D01*
X41745771Y-54593572D02*
X41841009Y-54545953D01*
X41841009Y-54545953D02*
X41936247Y-54545953D01*
X41936247Y-54545953D02*
X42031485Y-55022143D01*
X41460057Y-53403095D02*
X41412438Y-53355476D01*
X41412438Y-53355476D02*
X41364819Y-53260238D01*
X41364819Y-53260238D02*
X41364819Y-53022143D01*
X41364819Y-53022143D02*
X41412438Y-52926905D01*
X41412438Y-52926905D02*
X41460057Y-52879286D01*
X41460057Y-52879286D02*
X41555295Y-52831667D01*
X41555295Y-52831667D02*
X41650533Y-52831667D01*
X41650533Y-52831667D02*
X41793390Y-52879286D01*
X41793390Y-52879286D02*
X42364819Y-53450714D01*
X42364819Y-53450714D02*
X42364819Y-52831667D01*
X42317200Y-52022143D02*
X42364819Y-52117381D01*
X42364819Y-52117381D02*
X42364819Y-52307857D01*
X42364819Y-52307857D02*
X42317200Y-52403095D01*
X42317200Y-52403095D02*
X42221961Y-52450714D01*
X42221961Y-52450714D02*
X41841009Y-52450714D01*
X41841009Y-52450714D02*
X41745771Y-52403095D01*
X41745771Y-52403095D02*
X41698152Y-52307857D01*
X41698152Y-52307857D02*
X41698152Y-52117381D01*
X41698152Y-52117381D02*
X41745771Y-52022143D01*
X41745771Y-52022143D02*
X41841009Y-51974524D01*
X41841009Y-51974524D02*
X41936247Y-51974524D01*
X41936247Y-51974524D02*
X42031485Y-52450714D01*
X42364819Y-50784047D02*
X41364819Y-50784047D01*
X41983866Y-50688809D02*
X42364819Y-50403095D01*
X41698152Y-50403095D02*
X42079104Y-50784047D01*
X42317200Y-49593571D02*
X42364819Y-49688809D01*
X42364819Y-49688809D02*
X42364819Y-49879285D01*
X42364819Y-49879285D02*
X42317200Y-49974523D01*
X42317200Y-49974523D02*
X42221961Y-50022142D01*
X42221961Y-50022142D02*
X41841009Y-50022142D01*
X41841009Y-50022142D02*
X41745771Y-49974523D01*
X41745771Y-49974523D02*
X41698152Y-49879285D01*
X41698152Y-49879285D02*
X41698152Y-49688809D01*
X41698152Y-49688809D02*
X41745771Y-49593571D01*
X41745771Y-49593571D02*
X41841009Y-49545952D01*
X41841009Y-49545952D02*
X41936247Y-49545952D01*
X41936247Y-49545952D02*
X42031485Y-50022142D01*
X41698152Y-49212618D02*
X42364819Y-48974523D01*
X41698152Y-48736428D02*
X42364819Y-48974523D01*
X42364819Y-48974523D02*
X42602914Y-49069761D01*
X42602914Y-49069761D02*
X42650533Y-49117380D01*
X42650533Y-49117380D02*
X42698152Y-49212618D01*
X42364819Y-48355475D02*
X41364819Y-48355475D01*
X41745771Y-48355475D02*
X41698152Y-48260237D01*
X41698152Y-48260237D02*
X41698152Y-48069761D01*
X41698152Y-48069761D02*
X41745771Y-47974523D01*
X41745771Y-47974523D02*
X41793390Y-47926904D01*
X41793390Y-47926904D02*
X41888628Y-47879285D01*
X41888628Y-47879285D02*
X42174342Y-47879285D01*
X42174342Y-47879285D02*
X42269580Y-47926904D01*
X42269580Y-47926904D02*
X42317200Y-47974523D01*
X42317200Y-47974523D02*
X42364819Y-48069761D01*
X42364819Y-48069761D02*
X42364819Y-48260237D01*
X42364819Y-48260237D02*
X42317200Y-48355475D01*
X42364819Y-47307856D02*
X42317200Y-47403094D01*
X42317200Y-47403094D02*
X42269580Y-47450713D01*
X42269580Y-47450713D02*
X42174342Y-47498332D01*
X42174342Y-47498332D02*
X41888628Y-47498332D01*
X41888628Y-47498332D02*
X41793390Y-47450713D01*
X41793390Y-47450713D02*
X41745771Y-47403094D01*
X41745771Y-47403094D02*
X41698152Y-47307856D01*
X41698152Y-47307856D02*
X41698152Y-47164999D01*
X41698152Y-47164999D02*
X41745771Y-47069761D01*
X41745771Y-47069761D02*
X41793390Y-47022142D01*
X41793390Y-47022142D02*
X41888628Y-46974523D01*
X41888628Y-46974523D02*
X42174342Y-46974523D01*
X42174342Y-46974523D02*
X42269580Y-47022142D01*
X42269580Y-47022142D02*
X42317200Y-47069761D01*
X42317200Y-47069761D02*
X42364819Y-47164999D01*
X42364819Y-47164999D02*
X42364819Y-47307856D01*
X42364819Y-46117380D02*
X41841009Y-46117380D01*
X41841009Y-46117380D02*
X41745771Y-46164999D01*
X41745771Y-46164999D02*
X41698152Y-46260237D01*
X41698152Y-46260237D02*
X41698152Y-46450713D01*
X41698152Y-46450713D02*
X41745771Y-46545951D01*
X42317200Y-46117380D02*
X42364819Y-46212618D01*
X42364819Y-46212618D02*
X42364819Y-46450713D01*
X42364819Y-46450713D02*
X42317200Y-46545951D01*
X42317200Y-46545951D02*
X42221961Y-46593570D01*
X42221961Y-46593570D02*
X42126723Y-46593570D01*
X42126723Y-46593570D02*
X42031485Y-46545951D01*
X42031485Y-46545951D02*
X41983866Y-46450713D01*
X41983866Y-46450713D02*
X41983866Y-46212618D01*
X41983866Y-46212618D02*
X41936247Y-46117380D01*
X42364819Y-45641189D02*
X41698152Y-45641189D01*
X41888628Y-45641189D02*
X41793390Y-45593570D01*
X41793390Y-45593570D02*
X41745771Y-45545951D01*
X41745771Y-45545951D02*
X41698152Y-45450713D01*
X41698152Y-45450713D02*
X41698152Y-45355475D01*
X42364819Y-44593570D02*
X41364819Y-44593570D01*
X42317200Y-44593570D02*
X42364819Y-44688808D01*
X42364819Y-44688808D02*
X42364819Y-44879284D01*
X42364819Y-44879284D02*
X42317200Y-44974522D01*
X42317200Y-44974522D02*
X42269580Y-45022141D01*
X42269580Y-45022141D02*
X42174342Y-45069760D01*
X42174342Y-45069760D02*
X41888628Y-45069760D01*
X41888628Y-45069760D02*
X41793390Y-45022141D01*
X41793390Y-45022141D02*
X41745771Y-44974522D01*
X41745771Y-44974522D02*
X41698152Y-44879284D01*
X41698152Y-44879284D02*
X41698152Y-44688808D01*
X41698152Y-44688808D02*
X41745771Y-44593570D01*
X42364819Y-42926903D02*
X41841009Y-42926903D01*
X41841009Y-42926903D02*
X41745771Y-42974522D01*
X41745771Y-42974522D02*
X41698152Y-43069760D01*
X41698152Y-43069760D02*
X41698152Y-43260236D01*
X41698152Y-43260236D02*
X41745771Y-43355474D01*
X42317200Y-42926903D02*
X42364819Y-43022141D01*
X42364819Y-43022141D02*
X42364819Y-43260236D01*
X42364819Y-43260236D02*
X42317200Y-43355474D01*
X42317200Y-43355474D02*
X42221961Y-43403093D01*
X42221961Y-43403093D02*
X42126723Y-43403093D01*
X42126723Y-43403093D02*
X42031485Y-43355474D01*
X42031485Y-43355474D02*
X41983866Y-43260236D01*
X41983866Y-43260236D02*
X41983866Y-43022141D01*
X41983866Y-43022141D02*
X41936247Y-42926903D01*
X42364819Y-42022141D02*
X41364819Y-42022141D01*
X42317200Y-42022141D02*
X42364819Y-42117379D01*
X42364819Y-42117379D02*
X42364819Y-42307855D01*
X42364819Y-42307855D02*
X42317200Y-42403093D01*
X42317200Y-42403093D02*
X42269580Y-42450712D01*
X42269580Y-42450712D02*
X42174342Y-42498331D01*
X42174342Y-42498331D02*
X41888628Y-42498331D01*
X41888628Y-42498331D02*
X41793390Y-42450712D01*
X41793390Y-42450712D02*
X41745771Y-42403093D01*
X41745771Y-42403093D02*
X41698152Y-42307855D01*
X41698152Y-42307855D02*
X41698152Y-42117379D01*
X41698152Y-42117379D02*
X41745771Y-42022141D01*
X42364819Y-41117379D02*
X41841009Y-41117379D01*
X41841009Y-41117379D02*
X41745771Y-41164998D01*
X41745771Y-41164998D02*
X41698152Y-41260236D01*
X41698152Y-41260236D02*
X41698152Y-41450712D01*
X41698152Y-41450712D02*
X41745771Y-41545950D01*
X42317200Y-41117379D02*
X42364819Y-41212617D01*
X42364819Y-41212617D02*
X42364819Y-41450712D01*
X42364819Y-41450712D02*
X42317200Y-41545950D01*
X42317200Y-41545950D02*
X42221961Y-41593569D01*
X42221961Y-41593569D02*
X42126723Y-41593569D01*
X42126723Y-41593569D02*
X42031485Y-41545950D01*
X42031485Y-41545950D02*
X41983866Y-41450712D01*
X41983866Y-41450712D02*
X41983866Y-41212617D01*
X41983866Y-41212617D02*
X41936247Y-41117379D01*
X41698152Y-40641188D02*
X42698152Y-40641188D01*
X41745771Y-40641188D02*
X41698152Y-40545950D01*
X41698152Y-40545950D02*
X41698152Y-40355474D01*
X41698152Y-40355474D02*
X41745771Y-40260236D01*
X41745771Y-40260236D02*
X41793390Y-40212617D01*
X41793390Y-40212617D02*
X41888628Y-40164998D01*
X41888628Y-40164998D02*
X42174342Y-40164998D01*
X42174342Y-40164998D02*
X42269580Y-40212617D01*
X42269580Y-40212617D02*
X42317200Y-40260236D01*
X42317200Y-40260236D02*
X42364819Y-40355474D01*
X42364819Y-40355474D02*
X42364819Y-40545950D01*
X42364819Y-40545950D02*
X42317200Y-40641188D01*
X41698152Y-39879283D02*
X41698152Y-39498331D01*
X41364819Y-39736426D02*
X42221961Y-39736426D01*
X42221961Y-39736426D02*
X42317200Y-39688807D01*
X42317200Y-39688807D02*
X42364819Y-39593569D01*
X42364819Y-39593569D02*
X42364819Y-39498331D01*
X42317200Y-38784045D02*
X42364819Y-38879283D01*
X42364819Y-38879283D02*
X42364819Y-39069759D01*
X42364819Y-39069759D02*
X42317200Y-39164997D01*
X42317200Y-39164997D02*
X42221961Y-39212616D01*
X42221961Y-39212616D02*
X41841009Y-39212616D01*
X41841009Y-39212616D02*
X41745771Y-39164997D01*
X41745771Y-39164997D02*
X41698152Y-39069759D01*
X41698152Y-39069759D02*
X41698152Y-38879283D01*
X41698152Y-38879283D02*
X41745771Y-38784045D01*
X41745771Y-38784045D02*
X41841009Y-38736426D01*
X41841009Y-38736426D02*
X41936247Y-38736426D01*
X41936247Y-38736426D02*
X42031485Y-39212616D01*
X42364819Y-38307854D02*
X41698152Y-38307854D01*
X41888628Y-38307854D02*
X41793390Y-38260235D01*
X41793390Y-38260235D02*
X41745771Y-38212616D01*
X41745771Y-38212616D02*
X41698152Y-38117378D01*
X41698152Y-38117378D02*
X41698152Y-38022140D01*
X32244819Y-64931666D02*
X31768628Y-65264999D01*
X32244819Y-65503094D02*
X31244819Y-65503094D01*
X31244819Y-65503094D02*
X31244819Y-65122142D01*
X31244819Y-65122142D02*
X31292438Y-65026904D01*
X31292438Y-65026904D02*
X31340057Y-64979285D01*
X31340057Y-64979285D02*
X31435295Y-64931666D01*
X31435295Y-64931666D02*
X31578152Y-64931666D01*
X31578152Y-64931666D02*
X31673390Y-64979285D01*
X31673390Y-64979285D02*
X31721009Y-65026904D01*
X31721009Y-65026904D02*
X31768628Y-65122142D01*
X31768628Y-65122142D02*
X31768628Y-65503094D01*
X31340057Y-64550713D02*
X31292438Y-64503094D01*
X31292438Y-64503094D02*
X31244819Y-64407856D01*
X31244819Y-64407856D02*
X31244819Y-64169761D01*
X31244819Y-64169761D02*
X31292438Y-64074523D01*
X31292438Y-64074523D02*
X31340057Y-64026904D01*
X31340057Y-64026904D02*
X31435295Y-63979285D01*
X31435295Y-63979285D02*
X31530533Y-63979285D01*
X31530533Y-63979285D02*
X31673390Y-64026904D01*
X31673390Y-64026904D02*
X32244819Y-64598332D01*
X32244819Y-64598332D02*
X32244819Y-63979285D01*
X28346666Y-54059819D02*
X28346666Y-54774104D01*
X28346666Y-54774104D02*
X28299047Y-54916961D01*
X28299047Y-54916961D02*
X28203809Y-55012200D01*
X28203809Y-55012200D02*
X28060952Y-55059819D01*
X28060952Y-55059819D02*
X27965714Y-55059819D01*
X28822857Y-55059819D02*
X28822857Y-54059819D01*
X28822857Y-54059819D02*
X29203809Y-54059819D01*
X29203809Y-54059819D02*
X29299047Y-54107438D01*
X29299047Y-54107438D02*
X29346666Y-54155057D01*
X29346666Y-54155057D02*
X29394285Y-54250295D01*
X29394285Y-54250295D02*
X29394285Y-54393152D01*
X29394285Y-54393152D02*
X29346666Y-54488390D01*
X29346666Y-54488390D02*
X29299047Y-54536009D01*
X29299047Y-54536009D02*
X29203809Y-54583628D01*
X29203809Y-54583628D02*
X28822857Y-54583628D01*
X30299047Y-54059819D02*
X29822857Y-54059819D01*
X29822857Y-54059819D02*
X29775238Y-54536009D01*
X29775238Y-54536009D02*
X29822857Y-54488390D01*
X29822857Y-54488390D02*
X29918095Y-54440771D01*
X29918095Y-54440771D02*
X30156190Y-54440771D01*
X30156190Y-54440771D02*
X30251428Y-54488390D01*
X30251428Y-54488390D02*
X30299047Y-54536009D01*
X30299047Y-54536009D02*
X30346666Y-54631247D01*
X30346666Y-54631247D02*
X30346666Y-54869342D01*
X30346666Y-54869342D02*
X30299047Y-54964580D01*
X30299047Y-54964580D02*
X30251428Y-55012200D01*
X30251428Y-55012200D02*
X30156190Y-55059819D01*
X30156190Y-55059819D02*
X29918095Y-55059819D01*
X29918095Y-55059819D02*
X29822857Y-55012200D01*
X29822857Y-55012200D02*
X29775238Y-54964580D01*
X28346666Y-46439819D02*
X28346666Y-47154104D01*
X28346666Y-47154104D02*
X28299047Y-47296961D01*
X28299047Y-47296961D02*
X28203809Y-47392200D01*
X28203809Y-47392200D02*
X28060952Y-47439819D01*
X28060952Y-47439819D02*
X27965714Y-47439819D01*
X28822857Y-47439819D02*
X28822857Y-46439819D01*
X28822857Y-46439819D02*
X29203809Y-46439819D01*
X29203809Y-46439819D02*
X29299047Y-46487438D01*
X29299047Y-46487438D02*
X29346666Y-46535057D01*
X29346666Y-46535057D02*
X29394285Y-46630295D01*
X29394285Y-46630295D02*
X29394285Y-46773152D01*
X29394285Y-46773152D02*
X29346666Y-46868390D01*
X29346666Y-46868390D02*
X29299047Y-46916009D01*
X29299047Y-46916009D02*
X29203809Y-46963628D01*
X29203809Y-46963628D02*
X28822857Y-46963628D01*
X30251428Y-46773152D02*
X30251428Y-47439819D01*
X30013333Y-46392200D02*
X29775238Y-47106485D01*
X29775238Y-47106485D02*
X30394285Y-47106485D01*
X37891666Y-25484819D02*
X37891666Y-26199104D01*
X37891666Y-26199104D02*
X37844047Y-26341961D01*
X37844047Y-26341961D02*
X37748809Y-26437200D01*
X37748809Y-26437200D02*
X37605952Y-26484819D01*
X37605952Y-26484819D02*
X37510714Y-26484819D01*
X38367857Y-26484819D02*
X38367857Y-25484819D01*
X38367857Y-25484819D02*
X38748809Y-25484819D01*
X38748809Y-25484819D02*
X38844047Y-25532438D01*
X38844047Y-25532438D02*
X38891666Y-25580057D01*
X38891666Y-25580057D02*
X38939285Y-25675295D01*
X38939285Y-25675295D02*
X38939285Y-25818152D01*
X38939285Y-25818152D02*
X38891666Y-25913390D01*
X38891666Y-25913390D02*
X38844047Y-25961009D01*
X38844047Y-25961009D02*
X38748809Y-26008628D01*
X38748809Y-26008628D02*
X38367857Y-26008628D01*
X39891666Y-26484819D02*
X39320238Y-26484819D01*
X39605952Y-26484819D02*
X39605952Y-25484819D01*
X39605952Y-25484819D02*
X39510714Y-25627676D01*
X39510714Y-25627676D02*
X39415476Y-25722914D01*
X39415476Y-25722914D02*
X39320238Y-25770533D01*
X45561666Y-25484819D02*
X45561666Y-26199104D01*
X45561666Y-26199104D02*
X45514047Y-26341961D01*
X45514047Y-26341961D02*
X45418809Y-26437200D01*
X45418809Y-26437200D02*
X45275952Y-26484819D01*
X45275952Y-26484819D02*
X45180714Y-26484819D01*
X46037857Y-26484819D02*
X46037857Y-25484819D01*
X46037857Y-25484819D02*
X46418809Y-25484819D01*
X46418809Y-25484819D02*
X46514047Y-25532438D01*
X46514047Y-25532438D02*
X46561666Y-25580057D01*
X46561666Y-25580057D02*
X46609285Y-25675295D01*
X46609285Y-25675295D02*
X46609285Y-25818152D01*
X46609285Y-25818152D02*
X46561666Y-25913390D01*
X46561666Y-25913390D02*
X46514047Y-25961009D01*
X46514047Y-25961009D02*
X46418809Y-26008628D01*
X46418809Y-26008628D02*
X46037857Y-26008628D01*
X46942619Y-25484819D02*
X47561666Y-25484819D01*
X47561666Y-25484819D02*
X47228333Y-25865771D01*
X47228333Y-25865771D02*
X47371190Y-25865771D01*
X47371190Y-25865771D02*
X47466428Y-25913390D01*
X47466428Y-25913390D02*
X47514047Y-25961009D01*
X47514047Y-25961009D02*
X47561666Y-26056247D01*
X47561666Y-26056247D02*
X47561666Y-26294342D01*
X47561666Y-26294342D02*
X47514047Y-26389580D01*
X47514047Y-26389580D02*
X47466428Y-26437200D01*
X47466428Y-26437200D02*
X47371190Y-26484819D01*
X47371190Y-26484819D02*
X47085476Y-26484819D01*
X47085476Y-26484819D02*
X46990238Y-26437200D01*
X46990238Y-26437200D02*
X46942619Y-26389580D01*
X41726666Y-25484819D02*
X41726666Y-26199104D01*
X41726666Y-26199104D02*
X41679047Y-26341961D01*
X41679047Y-26341961D02*
X41583809Y-26437200D01*
X41583809Y-26437200D02*
X41440952Y-26484819D01*
X41440952Y-26484819D02*
X41345714Y-26484819D01*
X42202857Y-26484819D02*
X42202857Y-25484819D01*
X42202857Y-25484819D02*
X42583809Y-25484819D01*
X42583809Y-25484819D02*
X42679047Y-25532438D01*
X42679047Y-25532438D02*
X42726666Y-25580057D01*
X42726666Y-25580057D02*
X42774285Y-25675295D01*
X42774285Y-25675295D02*
X42774285Y-25818152D01*
X42774285Y-25818152D02*
X42726666Y-25913390D01*
X42726666Y-25913390D02*
X42679047Y-25961009D01*
X42679047Y-25961009D02*
X42583809Y-26008628D01*
X42583809Y-26008628D02*
X42202857Y-26008628D01*
X43155238Y-25580057D02*
X43202857Y-25532438D01*
X43202857Y-25532438D02*
X43298095Y-25484819D01*
X43298095Y-25484819D02*
X43536190Y-25484819D01*
X43536190Y-25484819D02*
X43631428Y-25532438D01*
X43631428Y-25532438D02*
X43679047Y-25580057D01*
X43679047Y-25580057D02*
X43726666Y-25675295D01*
X43726666Y-25675295D02*
X43726666Y-25770533D01*
X43726666Y-25770533D02*
X43679047Y-25913390D01*
X43679047Y-25913390D02*
X43107619Y-26484819D01*
X43107619Y-26484819D02*
X43726666Y-26484819D01*
X50506666Y-28659819D02*
X50506666Y-29374104D01*
X50506666Y-29374104D02*
X50459047Y-29516961D01*
X50459047Y-29516961D02*
X50363809Y-29612200D01*
X50363809Y-29612200D02*
X50220952Y-29659819D01*
X50220952Y-29659819D02*
X50125714Y-29659819D01*
X50935238Y-28755057D02*
X50982857Y-28707438D01*
X50982857Y-28707438D02*
X51078095Y-28659819D01*
X51078095Y-28659819D02*
X51316190Y-28659819D01*
X51316190Y-28659819D02*
X51411428Y-28707438D01*
X51411428Y-28707438D02*
X51459047Y-28755057D01*
X51459047Y-28755057D02*
X51506666Y-28850295D01*
X51506666Y-28850295D02*
X51506666Y-28945533D01*
X51506666Y-28945533D02*
X51459047Y-29088390D01*
X51459047Y-29088390D02*
X50887619Y-29659819D01*
X50887619Y-29659819D02*
X51506666Y-29659819D01*
X42999819Y-71040238D02*
X41999819Y-71040238D01*
X42618866Y-70945000D02*
X42999819Y-70659286D01*
X42333152Y-70659286D02*
X42714104Y-71040238D01*
X42952200Y-69849762D02*
X42999819Y-69945000D01*
X42999819Y-69945000D02*
X42999819Y-70135476D01*
X42999819Y-70135476D02*
X42952200Y-70230714D01*
X42952200Y-70230714D02*
X42856961Y-70278333D01*
X42856961Y-70278333D02*
X42476009Y-70278333D01*
X42476009Y-70278333D02*
X42380771Y-70230714D01*
X42380771Y-70230714D02*
X42333152Y-70135476D01*
X42333152Y-70135476D02*
X42333152Y-69945000D01*
X42333152Y-69945000D02*
X42380771Y-69849762D01*
X42380771Y-69849762D02*
X42476009Y-69802143D01*
X42476009Y-69802143D02*
X42571247Y-69802143D01*
X42571247Y-69802143D02*
X42666485Y-70278333D01*
X42333152Y-69468809D02*
X42999819Y-69230714D01*
X42333152Y-68992619D02*
X42999819Y-69230714D01*
X42999819Y-69230714D02*
X43237914Y-69325952D01*
X43237914Y-69325952D02*
X43285533Y-69373571D01*
X43285533Y-69373571D02*
X43333152Y-69468809D01*
X42999819Y-68611666D02*
X41999819Y-68611666D01*
X42380771Y-68611666D02*
X42333152Y-68516428D01*
X42333152Y-68516428D02*
X42333152Y-68325952D01*
X42333152Y-68325952D02*
X42380771Y-68230714D01*
X42380771Y-68230714D02*
X42428390Y-68183095D01*
X42428390Y-68183095D02*
X42523628Y-68135476D01*
X42523628Y-68135476D02*
X42809342Y-68135476D01*
X42809342Y-68135476D02*
X42904580Y-68183095D01*
X42904580Y-68183095D02*
X42952200Y-68230714D01*
X42952200Y-68230714D02*
X42999819Y-68325952D01*
X42999819Y-68325952D02*
X42999819Y-68516428D01*
X42999819Y-68516428D02*
X42952200Y-68611666D01*
X42999819Y-67564047D02*
X42952200Y-67659285D01*
X42952200Y-67659285D02*
X42904580Y-67706904D01*
X42904580Y-67706904D02*
X42809342Y-67754523D01*
X42809342Y-67754523D02*
X42523628Y-67754523D01*
X42523628Y-67754523D02*
X42428390Y-67706904D01*
X42428390Y-67706904D02*
X42380771Y-67659285D01*
X42380771Y-67659285D02*
X42333152Y-67564047D01*
X42333152Y-67564047D02*
X42333152Y-67421190D01*
X42333152Y-67421190D02*
X42380771Y-67325952D01*
X42380771Y-67325952D02*
X42428390Y-67278333D01*
X42428390Y-67278333D02*
X42523628Y-67230714D01*
X42523628Y-67230714D02*
X42809342Y-67230714D01*
X42809342Y-67230714D02*
X42904580Y-67278333D01*
X42904580Y-67278333D02*
X42952200Y-67325952D01*
X42952200Y-67325952D02*
X42999819Y-67421190D01*
X42999819Y-67421190D02*
X42999819Y-67564047D01*
X42999819Y-66373571D02*
X42476009Y-66373571D01*
X42476009Y-66373571D02*
X42380771Y-66421190D01*
X42380771Y-66421190D02*
X42333152Y-66516428D01*
X42333152Y-66516428D02*
X42333152Y-66706904D01*
X42333152Y-66706904D02*
X42380771Y-66802142D01*
X42952200Y-66373571D02*
X42999819Y-66468809D01*
X42999819Y-66468809D02*
X42999819Y-66706904D01*
X42999819Y-66706904D02*
X42952200Y-66802142D01*
X42952200Y-66802142D02*
X42856961Y-66849761D01*
X42856961Y-66849761D02*
X42761723Y-66849761D01*
X42761723Y-66849761D02*
X42666485Y-66802142D01*
X42666485Y-66802142D02*
X42618866Y-66706904D01*
X42618866Y-66706904D02*
X42618866Y-66468809D01*
X42618866Y-66468809D02*
X42571247Y-66373571D01*
X42999819Y-65897380D02*
X42333152Y-65897380D01*
X42523628Y-65897380D02*
X42428390Y-65849761D01*
X42428390Y-65849761D02*
X42380771Y-65802142D01*
X42380771Y-65802142D02*
X42333152Y-65706904D01*
X42333152Y-65706904D02*
X42333152Y-65611666D01*
X42999819Y-64849761D02*
X41999819Y-64849761D01*
X42952200Y-64849761D02*
X42999819Y-64944999D01*
X42999819Y-64944999D02*
X42999819Y-65135475D01*
X42999819Y-65135475D02*
X42952200Y-65230713D01*
X42952200Y-65230713D02*
X42904580Y-65278332D01*
X42904580Y-65278332D02*
X42809342Y-65325951D01*
X42809342Y-65325951D02*
X42523628Y-65325951D01*
X42523628Y-65325951D02*
X42428390Y-65278332D01*
X42428390Y-65278332D02*
X42380771Y-65230713D01*
X42380771Y-65230713D02*
X42333152Y-65135475D01*
X42333152Y-65135475D02*
X42333152Y-64944999D01*
X42333152Y-64944999D02*
X42380771Y-64849761D01*
D12*
%TO.C,R1*%
X33470000Y-41445000D02*
X33470000Y-32205000D01*
X30030000Y-41445000D02*
X33470000Y-41445000D01*
X30030000Y-32205000D02*
X30030000Y-41445000D01*
X31750000Y-43405000D02*
X31750000Y-41445000D01*
X33470000Y-32205000D02*
X30030000Y-32205000D01*
X31750000Y-30245000D02*
X31750000Y-32205000D01*
%TO.C,J1*%
X52200000Y-74175000D02*
X52200000Y-83295000D01*
X52200000Y-83295000D02*
X31620000Y-83295000D01*
X46490000Y-72785000D02*
X46990000Y-73785000D01*
X32920000Y-75485000D02*
X39860000Y-75485000D01*
X43960000Y-75485000D02*
X50900000Y-75485000D01*
X31620000Y-83295000D02*
X31620000Y-74175000D01*
X46990000Y-73785000D02*
X47490000Y-72785000D01*
X39860000Y-75485000D02*
X39860000Y-74175000D01*
X50900000Y-75485000D02*
X50900000Y-81985000D01*
X39860000Y-75485000D02*
X39860000Y-75485000D01*
X32920000Y-81985000D02*
X32920000Y-75485000D01*
X47490000Y-72785000D02*
X46490000Y-72785000D01*
X50900000Y-81985000D02*
X32920000Y-81985000D01*
X43960000Y-74175000D02*
X43960000Y-75485000D01*
X31620000Y-74175000D02*
X52200000Y-74175000D01*
%TO.C,R2*%
X30070000Y-60145000D02*
X30070000Y-69385000D01*
X33510000Y-60145000D02*
X30070000Y-60145000D01*
X33510000Y-69385000D02*
X33510000Y-60145000D01*
X31790000Y-58185000D02*
X31790000Y-60145000D01*
X30070000Y-69385000D02*
X33510000Y-69385000D01*
X31790000Y-71345000D02*
X31790000Y-69385000D01*
%TO.C,JP5*%
X33770000Y-53605000D02*
X33770000Y-55605000D01*
X30970000Y-55605000D02*
X30970000Y-53605000D01*
X33770000Y-55605000D02*
X30970000Y-55605000D01*
X30970000Y-53605000D02*
X33770000Y-53605000D01*
%TO.C,JP4*%
X33770000Y-45985000D02*
X33770000Y-47985000D01*
X30970000Y-47985000D02*
X30970000Y-45985000D01*
X33770000Y-47985000D02*
X30970000Y-47985000D01*
X30970000Y-45985000D02*
X33770000Y-45985000D01*
%TO.C,JP1*%
X37350000Y-28935000D02*
X37350000Y-26935000D01*
X40150000Y-28935000D02*
X37350000Y-28935000D01*
X40150000Y-26935000D02*
X40150000Y-28935000D01*
X37350000Y-26935000D02*
X40150000Y-26935000D01*
%TO.C,JP3*%
X47800000Y-26935000D02*
X47800000Y-28935000D01*
X45000000Y-26935000D02*
X47800000Y-26935000D01*
X45000000Y-28935000D02*
X45000000Y-26935000D01*
X47800000Y-28935000D02*
X45000000Y-28935000D01*
%TO.C,JP2*%
X43960000Y-26935000D02*
X43960000Y-28935000D01*
X41160000Y-26935000D02*
X43960000Y-26935000D01*
X41160000Y-28935000D02*
X41160000Y-26935000D01*
X43960000Y-28935000D02*
X41160000Y-28935000D01*
%TO.C,J2*%
X43700000Y-48745000D02*
X45010000Y-48745000D01*
X51510000Y-31645000D02*
X51510000Y-69945000D01*
X45010000Y-48745000D02*
X45010000Y-31645000D01*
X45010000Y-52845000D02*
X45010000Y-52845000D01*
X45010000Y-69945000D02*
X45010000Y-52845000D01*
X43700000Y-30345000D02*
X52820000Y-30345000D01*
X42310000Y-36055000D02*
X43310000Y-35555000D01*
X45010000Y-52845000D02*
X43700000Y-52845000D01*
X43700000Y-71245000D02*
X43700000Y-30345000D01*
X51510000Y-69945000D02*
X45010000Y-69945000D01*
X43310000Y-35555000D02*
X42310000Y-35055000D01*
X52820000Y-30345000D02*
X52820000Y-71245000D01*
X52820000Y-71245000D02*
X43700000Y-71245000D01*
X45010000Y-31645000D02*
X51510000Y-31645000D01*
X42310000Y-35055000D02*
X42310000Y-36055000D01*
%TD*%
M02*
