M48
; DRILL file {KiCad 7.0.8} date 2024 December 22, Sunday 17:31:44
; FORMAT={-:-/ absolute / inch / decimal}
; #@! TF.CreationDate,2024-12-22T17:31:44+01:00
; #@! TF.GenerationSoftware,Kicad,Pcbnew,7.0.8
; #@! TF.FileFunction,Plated,1,2,PTH
FMAT,2
INCH
; #@! TA.AperFunction,Plated,PTH,ViaDrill
T1C0.0157
; #@! TA.AperFunction,Plated,PTH,ComponentDrill
T2C0.0315
; #@! TA.AperFunction,Plated,PTH,ComponentDrill
T3C0.0394
%
G90
G05
T1
X1.239Y-1.4248
T2
X1.25Y-1.1498
X1.25Y-1.7498
X1.2516Y-2.2498
X1.2516Y-2.8498
T3
X1.45Y-3.0498
X1.45Y-3.1498
X1.4516Y-1.3998
X1.4516Y-1.4998
X1.4516Y-1.5998
X1.4516Y-1.6998
X1.4516Y-1.7998
X1.4516Y-1.8998
X1.4516Y-1.9998
X1.4516Y-2.0998
X1.4516Y-2.1998
X1.4516Y-2.2998
X1.4516Y-2.3998
X1.4516Y-2.4998
X1.4516Y-2.5998
X1.55Y-3.0498
X1.55Y-3.1498
X1.5516Y-1.3998
X1.5516Y-1.4998
X1.5516Y-1.5998
X1.5516Y-1.6998
X1.5516Y-1.7998
X1.5516Y-1.8998
X1.5516Y-1.9998
X1.5516Y-2.0998
X1.5516Y-2.1998
X1.5516Y-2.2998
X1.5516Y-2.3998
X1.5516Y-2.4998
X1.5516Y-2.5998
X1.65Y-3.0498
X1.65Y-3.1498
X1.75Y-3.0498
X1.75Y-3.1498
X1.85Y-1.3998
X1.85Y-1.4998
X1.85Y-1.5998
X1.85Y-1.6998
X1.85Y-1.7998
X1.85Y-1.8998
X1.85Y-1.9998
X1.85Y-2.0998
X1.85Y-2.1998
X1.85Y-2.2998
X1.85Y-2.3998
X1.85Y-2.4998
X1.85Y-2.5998
X1.85Y-3.0498
X1.85Y-3.1498
X1.95Y-1.3998
X1.95Y-1.4998
X1.95Y-1.5998
X1.95Y-1.6998
X1.95Y-1.7998
X1.95Y-1.8998
X1.95Y-1.9998
X1.95Y-2.0998
X1.95Y-2.1998
X1.95Y-2.2998
X1.95Y-2.3998
X1.95Y-2.4998
X1.95Y-2.5998
T0
M30
