%TF.GenerationSoftware,KiCad,Pcbnew,7.0.8*%
%TF.CreationDate,2024-12-22T17:31:23+01:00*%
%TF.ProjectId,pctransporter,70637472-616e-4737-906f-727465722e6b,rev?*%
%TF.SameCoordinates,Original*%
%TF.FileFunction,Soldermask,Top*%
%TF.FilePolarity,Negative*%
%FSLAX46Y46*%
G04 Gerber Fmt 4.6, Leading zero omitted, Abs format (unit mm)*
G04 Created by KiCad (PCBNEW 7.0.8) date 2024-12-22 17:31:23*
%MOMM*%
%LPD*%
G01*
G04 APERTURE LIST*
G04 Aperture macros list*
%AMRoundRect*
0 Rectangle with rounded corners*
0 $1 Rounding radius*
0 $2 $3 $4 $5 $6 $7 $8 $9 X,Y pos of 4 corners*
0 Add a 4 corners polygon primitive as box body*
4,1,4,$2,$3,$4,$5,$6,$7,$8,$9,$2,$3,0*
0 Add four circle primitives for the rounded corners*
1,1,$1+$1,$2,$3*
1,1,$1+$1,$4,$5*
1,1,$1+$1,$6,$7*
1,1,$1+$1,$8,$9*
0 Add four rect primitives between the rounded corners*
20,1,$1+$1,$2,$3,$4,$5,0*
20,1,$1+$1,$4,$5,$6,$7,0*
20,1,$1+$1,$6,$7,$8,$9,0*
20,1,$1+$1,$8,$9,$2,$3,0*%
G04 Aperture macros list end*
%ADD10R,1.700000X1.700000*%
%ADD11O,1.700000X1.700000*%
%ADD12O,1.600000X1.600000*%
%ADD13C,1.600000*%
%ADD14C,1.700000*%
%ADD15RoundRect,0.250000X-0.600000X0.600000X-0.600000X-0.600000X0.600000X-0.600000X0.600000X0.600000X0*%
%ADD16R,1.000000X1.500000*%
%ADD17RoundRect,0.250000X-0.600000X-0.600000X0.600000X-0.600000X0.600000X0.600000X-0.600000X0.600000X0*%
G04 APERTURE END LIST*
D10*
%TO.C,J17*%
X36870000Y-35555000D03*
D11*
X39410000Y-35555000D03*
X36870000Y-38095000D03*
X39410000Y-38095000D03*
X36870000Y-40635000D03*
X39410000Y-40635000D03*
X36870000Y-43175000D03*
X39410000Y-43175000D03*
X36870000Y-45715000D03*
X39410000Y-45715000D03*
X36870000Y-48255000D03*
X39410000Y-48255000D03*
X36870000Y-50795000D03*
X39410000Y-50795000D03*
X36870000Y-53335000D03*
X39410000Y-53335000D03*
X36870000Y-55875000D03*
X39410000Y-55875000D03*
X36870000Y-58415000D03*
X39410000Y-58415000D03*
X36870000Y-60955000D03*
X39410000Y-60955000D03*
X36870000Y-63495000D03*
X39410000Y-63495000D03*
X36870000Y-66035000D03*
X39410000Y-66035000D03*
%TD*%
D12*
%TO.C,R1*%
X31750000Y-29205000D03*
D13*
X31750000Y-44445000D03*
%TD*%
D14*
%TO.C,J1*%
X36830000Y-80005000D03*
X36830000Y-77465000D03*
X39370000Y-80005000D03*
X39370000Y-77465000D03*
X41910000Y-80005000D03*
X41910000Y-77465000D03*
X44450000Y-80005000D03*
X44450000Y-77465000D03*
X46990000Y-80005000D03*
D15*
X46990000Y-77465000D03*
%TD*%
D12*
%TO.C,R2*%
X31790000Y-72385000D03*
D13*
X31790000Y-57145000D03*
%TD*%
D16*
%TO.C,JP5*%
X33020000Y-54605000D03*
X31720000Y-54605000D03*
%TD*%
%TO.C,JP4*%
X33020000Y-46985000D03*
X31720000Y-46985000D03*
%TD*%
%TO.C,JP1*%
X38100000Y-27935000D03*
X39400000Y-27935000D03*
%TD*%
%TO.C,JP3*%
X47050000Y-27935000D03*
X45750000Y-27935000D03*
%TD*%
%TO.C,JP2*%
X43210000Y-27935000D03*
X41910000Y-27935000D03*
%TD*%
D14*
%TO.C,J2*%
X49530000Y-66035000D03*
X46990000Y-66035000D03*
X49530000Y-63495000D03*
X46990000Y-63495000D03*
X49530000Y-60955000D03*
X46990000Y-60955000D03*
X49530000Y-58415000D03*
X46990000Y-58415000D03*
X49530000Y-55875000D03*
X46990000Y-55875000D03*
X49530000Y-53335000D03*
X46990000Y-53335000D03*
X49530000Y-50795000D03*
X46990000Y-50795000D03*
X49530000Y-48255000D03*
X46990000Y-48255000D03*
X49530000Y-45715000D03*
X46990000Y-45715000D03*
X49530000Y-43175000D03*
X46990000Y-43175000D03*
X49530000Y-40635000D03*
X46990000Y-40635000D03*
X49530000Y-38095000D03*
X46990000Y-38095000D03*
X49530000Y-35555000D03*
D17*
X46990000Y-35555000D03*
%TD*%
M02*
