%TF.GenerationSoftware,KiCad,Pcbnew,7.0.8*%
%TF.CreationDate,2024-12-22T17:31:23+01:00*%
%TF.ProjectId,pctransporter,70637472-616e-4737-906f-727465722e6b,rev?*%
%TF.SameCoordinates,Original*%
%TF.FileFunction,Copper,L1,Top*%
%TF.FilePolarity,Positive*%
%FSLAX46Y46*%
G04 Gerber Fmt 4.6, Leading zero omitted, Abs format (unit mm)*
G04 Created by KiCad (PCBNEW 7.0.8) date 2024-12-22 17:31:23*
%MOMM*%
%LPD*%
G01*
G04 APERTURE LIST*
G04 Aperture macros list*
%AMRoundRect*
0 Rectangle with rounded corners*
0 $1 Rounding radius*
0 $2 $3 $4 $5 $6 $7 $8 $9 X,Y pos of 4 corners*
0 Add a 4 corners polygon primitive as box body*
4,1,4,$2,$3,$4,$5,$6,$7,$8,$9,$2,$3,0*
0 Add four circle primitives for the rounded corners*
1,1,$1+$1,$2,$3*
1,1,$1+$1,$4,$5*
1,1,$1+$1,$6,$7*
1,1,$1+$1,$8,$9*
0 Add four rect primitives between the rounded corners*
20,1,$1+$1,$2,$3,$4,$5,0*
20,1,$1+$1,$4,$5,$6,$7,0*
20,1,$1+$1,$6,$7,$8,$9,0*
20,1,$1+$1,$8,$9,$2,$3,0*%
G04 Aperture macros list end*
%TA.AperFunction,ComponentPad*%
%ADD10R,1.700000X1.700000*%
%TD*%
%TA.AperFunction,ComponentPad*%
%ADD11O,1.700000X1.700000*%
%TD*%
%TA.AperFunction,ComponentPad*%
%ADD12O,1.600000X1.600000*%
%TD*%
%TA.AperFunction,ComponentPad*%
%ADD13C,1.600000*%
%TD*%
%TA.AperFunction,ComponentPad*%
%ADD14C,1.700000*%
%TD*%
%TA.AperFunction,ComponentPad*%
%ADD15RoundRect,0.250000X-0.600000X0.600000X-0.600000X-0.600000X0.600000X-0.600000X0.600000X0.600000X0*%
%TD*%
%TA.AperFunction,SMDPad,CuDef*%
%ADD16R,1.000000X1.500000*%
%TD*%
%TA.AperFunction,ComponentPad*%
%ADD17RoundRect,0.250000X-0.600000X-0.600000X0.600000X-0.600000X0.600000X0.600000X-0.600000X0.600000X0*%
%TD*%
%TA.AperFunction,ViaPad*%
%ADD18C,0.800000*%
%TD*%
%TA.AperFunction,Conductor*%
%ADD19C,0.100000*%
%TD*%
%TA.AperFunction,Conductor*%
%ADD20C,0.250000*%
%TD*%
G04 APERTURE END LIST*
%TA.AperFunction,EtchedComponent*%
%TO.C,JP5*%
G36*
X32620000Y-54905000D02*
G01*
X32120000Y-54905000D01*
X32120000Y-54305000D01*
X32620000Y-54305000D01*
X32620000Y-54905000D01*
G37*
%TD.AperFunction*%
%TA.AperFunction,EtchedComponent*%
%TO.C,JP4*%
G36*
X32620000Y-47285000D02*
G01*
X32120000Y-47285000D01*
X32120000Y-46685000D01*
X32620000Y-46685000D01*
X32620000Y-47285000D01*
G37*
%TD.AperFunction*%
%TD*%
D10*
%TO.P,J17,1,Pin_1*%
%TO.N,Y0*%
X36870000Y-35555000D03*
D11*
%TO.P,J17,2,Pin_2*%
%TO.N,Y1*%
X39410000Y-35555000D03*
%TO.P,J17,3,Pin_3*%
%TO.N,VCC*%
X36870000Y-38095000D03*
%TO.P,J17,4,Pin_4*%
%TO.N,Y2*%
X39410000Y-38095000D03*
%TO.P,J17,5,Pin_5*%
%TO.N,SM1{slash}CAPL*%
X36870000Y-40635000D03*
%TO.P,J17,6,Pin_6*%
%TO.N,Y3*%
X39410000Y-40635000D03*
%TO.P,J17,7,Pin_7*%
%TO.N,SM0{slash}OAPL*%
X36870000Y-43175000D03*
%TO.P,J17,8,Pin_8*%
%TO.N,Y4*%
X39410000Y-43175000D03*
%TO.P,J17,9,Pin_9*%
%TO.N,CAPLOCK\u002A*%
X36870000Y-45715000D03*
%TO.P,J17,10,Pin_10*%
%TO.N,Y5*%
X39410000Y-45715000D03*
%TO.P,J17,11,Pin_11*%
%TO.N,CNTL*%
X36870000Y-48255000D03*
%TO.P,J17,12,Pin_12*%
%TO.N,Y8*%
X39410000Y-48255000D03*
%TO.P,J17,13,Pin_13*%
%TO.N,GND*%
X36870000Y-50795000D03*
%TO.P,J17,14,Pin_14*%
%TO.N,X0*%
X39410000Y-50795000D03*
%TO.P,J17,15,Pin_15*%
%TO.N,RESET*%
X36870000Y-53335000D03*
%TO.P,J17,16,Pin_16*%
%TO.N,X2*%
X39410000Y-53335000D03*
%TO.P,J17,17,Pin_17*%
%TO.N,X7*%
X36870000Y-55875000D03*
%TO.P,J17,18,Pin_18*%
%TO.N,X1*%
X39410000Y-55875000D03*
%TO.P,J17,19,Pin_19*%
%TO.N,X5*%
X36870000Y-58415000D03*
%TO.P,J17,20,Pin_20*%
%TO.N,X3*%
X39410000Y-58415000D03*
%TO.P,J17,21,Pin_21*%
%TO.N,X4*%
X36870000Y-60955000D03*
%TO.P,J17,22,Pin_22*%
%TO.N,Y9*%
X39410000Y-60955000D03*
%TO.P,J17,23,Pin_23*%
%TO.N,Y6*%
X36870000Y-63495000D03*
%TO.P,J17,24,Pin_24*%
%TO.N,SHFT\u002A*%
X39410000Y-63495000D03*
%TO.P,J17,25,Pin_25*%
%TO.N,Y7*%
X36870000Y-66035000D03*
%TO.P,J17,26,Pin_26*%
%TO.N,X6*%
X39410000Y-66035000D03*
%TD*%
D12*
%TO.P,R1,2*%
%TO.N,GND*%
X31750000Y-29205000D03*
D13*
%TO.P,R1,1*%
%TO.N,Net-(JP4-A)*%
X31750000Y-44445000D03*
%TD*%
D14*
%TO.P,J1,10,Pin_10*%
%TO.N,SHFT\u002A*%
X36830000Y-80005000D03*
%TO.P,J1,9,Pin_9*%
%TO.N,CNTL'*%
X36830000Y-77465000D03*
%TO.P,J1,8,Pin_8*%
%TO.N,CNTL*%
X39370000Y-80005000D03*
%TO.P,J1,7,Pin_7*%
%TO.N,CAPLOCK\u002A*%
X39370000Y-77465000D03*
%TO.P,J1,6,Pin_6*%
%TO.N,SM0{slash}OAPL'*%
X41910000Y-80005000D03*
%TO.P,J1,5,Pin_5*%
%TO.N,SM0{slash}OAPL*%
X41910000Y-77465000D03*
%TO.P,J1,4,Pin_4*%
%TO.N,SM1{slash}CAPL'*%
X44450000Y-80005000D03*
%TO.P,J1,3,Pin_3*%
%TO.N,SM1{slash}CAPL*%
X44450000Y-77465000D03*
%TO.P,J1,2,Pin_2*%
%TO.N,unconnected-(J1-Pin_2-Pad2)*%
X46990000Y-80005000D03*
D15*
%TO.P,J1,1,Pin_1*%
%TO.N,unconnected-(J1-Pin_1-Pad1)*%
X46990000Y-77465000D03*
%TD*%
D12*
%TO.P,R2,2*%
%TO.N,GND*%
X31790000Y-72385000D03*
D13*
%TO.P,R2,1*%
%TO.N,Net-(JP5-A)*%
X31790000Y-57145000D03*
%TD*%
D16*
%TO.P,JP5,2,B*%
%TO.N,SM0{slash}OAPL*%
X33020000Y-54605000D03*
%TO.P,JP5,1,A*%
%TO.N,Net-(JP5-A)*%
X31720000Y-54605000D03*
%TD*%
%TO.P,JP4,2,B*%
%TO.N,SM1{slash}CAPL*%
X33020000Y-46985000D03*
%TO.P,JP4,1,A*%
%TO.N,Net-(JP4-A)*%
X31720000Y-46985000D03*
%TD*%
%TO.P,JP1,2,B*%
%TO.N,CNTL'*%
X38100000Y-27935000D03*
%TO.P,JP1,1,A*%
%TO.N,CNTL*%
X39400000Y-27935000D03*
%TD*%
%TO.P,JP3,2,B*%
%TO.N,SM0{slash}OAPL'*%
X47050000Y-27935000D03*
%TO.P,JP3,1,A*%
%TO.N,SM0{slash}OAPL*%
X45750000Y-27935000D03*
%TD*%
%TO.P,JP2,2,B*%
%TO.N,SM1{slash}CAPL'*%
X43210000Y-27935000D03*
%TO.P,JP2,1,A*%
%TO.N,SM1{slash}CAPL*%
X41910000Y-27935000D03*
%TD*%
D14*
%TO.P,J2,26,Pin_26*%
%TO.N,X6*%
X49530000Y-66035000D03*
%TO.P,J2,25,Pin_25*%
%TO.N,Y7*%
X46990000Y-66035000D03*
%TO.P,J2,24,Pin_24*%
%TO.N,SHFT\u002A*%
X49530000Y-63495000D03*
%TO.P,J2,23,Pin_23*%
%TO.N,Y6*%
X46990000Y-63495000D03*
%TO.P,J2,22,Pin_22*%
%TO.N,Y9*%
X49530000Y-60955000D03*
%TO.P,J2,21,Pin_21*%
%TO.N,X4*%
X46990000Y-60955000D03*
%TO.P,J2,20,Pin_20*%
%TO.N,X3*%
X49530000Y-58415000D03*
%TO.P,J2,19,Pin_19*%
%TO.N,X5*%
X46990000Y-58415000D03*
%TO.P,J2,18,Pin_18*%
%TO.N,X1*%
X49530000Y-55875000D03*
%TO.P,J2,17,Pin_17*%
%TO.N,X7*%
X46990000Y-55875000D03*
%TO.P,J2,16,Pin_16*%
%TO.N,X2*%
X49530000Y-53335000D03*
%TO.P,J2,15,Pin_15*%
%TO.N,RESET*%
X46990000Y-53335000D03*
%TO.P,J2,14,Pin_14*%
%TO.N,X0*%
X49530000Y-50795000D03*
%TO.P,J2,13,Pin_13*%
%TO.N,GND*%
X46990000Y-50795000D03*
%TO.P,J2,12,Pin_12*%
%TO.N,Y8*%
X49530000Y-48255000D03*
%TO.P,J2,11,Pin_11*%
%TO.N,CNTL'*%
X46990000Y-48255000D03*
%TO.P,J2,10,Pin_10*%
%TO.N,Y5*%
X49530000Y-45715000D03*
%TO.P,J2,9,Pin_9*%
%TO.N,CAPLOCK\u002A*%
X46990000Y-45715000D03*
%TO.P,J2,8,Pin_8*%
%TO.N,Y4*%
X49530000Y-43175000D03*
%TO.P,J2,7,Pin_7*%
%TO.N,SM0{slash}OAPL'*%
X46990000Y-43175000D03*
%TO.P,J2,6,Pin_6*%
%TO.N,Y3*%
X49530000Y-40635000D03*
%TO.P,J2,5,Pin_5*%
%TO.N,SM1{slash}CAPL'*%
X46990000Y-40635000D03*
%TO.P,J2,4,Pin_4*%
%TO.N,Y2*%
X49530000Y-38095000D03*
%TO.P,J2,3,Pin_3*%
%TO.N,VCC*%
X46990000Y-38095000D03*
%TO.P,J2,2,Pin_2*%
%TO.N,Y1*%
X49530000Y-35555000D03*
D17*
%TO.P,J2,1,Pin_1*%
%TO.N,Y0*%
X46990000Y-35555000D03*
%TD*%
D18*
%TO.N,CNTL'*%
X31469500Y-36190000D03*
%TD*%
D19*
%TO.N,SM0{slash}OAPL*%
X33020000Y-54605000D02*
X33990000Y-53635000D01*
X33990000Y-53635000D02*
X33990000Y-46015000D01*
X33990000Y-46015000D02*
X36830000Y-43175000D01*
X41910000Y-77465000D02*
X40680000Y-78695000D01*
X33990000Y-55575000D02*
X33020000Y-54605000D01*
X40680000Y-80444494D02*
X39499150Y-81625344D01*
X40680000Y-78695000D02*
X40680000Y-80444494D01*
X39499150Y-81625344D02*
X36153894Y-81625344D01*
X36153894Y-81625344D02*
X33990000Y-79461450D01*
X33990000Y-79461450D02*
X33990000Y-55575000D01*
%TO.N,CNTL*%
X39370000Y-80005000D02*
X38049656Y-81325344D01*
X38049656Y-81325344D02*
X36278158Y-81325344D01*
X34290000Y-50795000D02*
X36830000Y-48255000D01*
X36278158Y-81325344D02*
X34290000Y-79337186D01*
X34290000Y-79337186D02*
X34290000Y-50795000D01*
%TO.N,CNTL'*%
X36830000Y-77465000D02*
X38140000Y-76155000D01*
X38140000Y-76155000D02*
X38140000Y-50364946D01*
X41273604Y-48255000D02*
X46990000Y-48255000D01*
X38880290Y-49624656D02*
X39903948Y-49624656D01*
X39903948Y-49624656D02*
X41273604Y-48255000D01*
X38140000Y-50364946D02*
X38880290Y-49624656D01*
X31469500Y-36190000D02*
X38100000Y-29559500D01*
X38100000Y-29559500D02*
X38100000Y-27935000D01*
%TO.N,SM0{slash}OAPL*%
X45750000Y-27935000D02*
X44375000Y-26560000D01*
X44375000Y-26560000D02*
X37128984Y-26560000D01*
X30520000Y-33168984D02*
X30520000Y-51355000D01*
X30520000Y-51355000D02*
X33020000Y-53855000D01*
X37128984Y-26560000D02*
X30520000Y-33168984D01*
X33020000Y-53855000D02*
X33020000Y-54605000D01*
%TO.N,SM1{slash}CAPL'*%
X43210000Y-27935000D02*
X43782500Y-27935000D01*
X43782500Y-27935000D02*
X50705000Y-34857500D01*
X50705000Y-34857500D02*
X50705000Y-41120054D01*
X49040290Y-41805344D02*
X47869946Y-40635000D01*
X50705000Y-41120054D02*
X50019710Y-41805344D01*
X50019710Y-41805344D02*
X49040290Y-41805344D01*
X47869946Y-40635000D02*
X46990000Y-40635000D01*
%TO.N,SM1{slash}CAPL*%
X41910000Y-27935000D02*
X40835000Y-26860000D01*
X40835000Y-26860000D02*
X37465380Y-26860000D01*
X30820000Y-38395000D02*
X33060000Y-40635000D01*
X37465380Y-26860000D02*
X30820000Y-33505380D01*
X30820000Y-33505380D02*
X30820000Y-38395000D01*
%TO.N,CNTL*%
X37505000Y-47620000D02*
X37465000Y-47620000D01*
X37465000Y-47620000D02*
X36830000Y-48255000D01*
%TO.N,SM1{slash}CAPL*%
X33020000Y-46985000D02*
X33020000Y-40675000D01*
X33020000Y-40675000D02*
X33060000Y-40635000D01*
X33060000Y-40635000D02*
X36830000Y-40635000D01*
%TO.N,CNTL*%
X39400000Y-27935000D02*
X39400000Y-30094695D01*
X39400000Y-30094695D02*
X38005000Y-31489695D01*
X38005000Y-31489695D02*
X38005000Y-47080000D01*
X38005000Y-47080000D02*
X36830000Y-48255000D01*
%TO.N,CAPLOCK\u002A*%
X39370000Y-77465000D02*
X40540344Y-76294656D01*
X40540344Y-76294656D02*
X41566794Y-76294656D01*
X52070000Y-65791450D02*
X52070000Y-48935634D01*
X41566794Y-76294656D02*
X52070000Y-65791450D01*
X50119366Y-46985000D02*
X48935000Y-46985000D01*
X47665000Y-45715000D02*
X46990000Y-45715000D01*
X52070000Y-48935634D02*
X50119366Y-46985000D01*
X48935000Y-46985000D02*
X47665000Y-45715000D01*
%TO.N,SHFT\u002A*%
X36830000Y-80005000D02*
X38140000Y-78695000D01*
X41610108Y-75614946D02*
X50840000Y-66385054D01*
X38140000Y-78695000D02*
X38140000Y-76844946D01*
X38140000Y-76844946D02*
X39370000Y-75614946D01*
X39370000Y-75614946D02*
X41610108Y-75614946D01*
X50840000Y-66385054D02*
X50840000Y-64805000D01*
X50840000Y-64805000D02*
X49530000Y-63495000D01*
%TO.N,SM0{slash}OAPL'*%
X41910000Y-80005000D02*
X43220000Y-78695000D01*
X43220000Y-78695000D02*
X43220000Y-75277846D01*
X43220000Y-75277846D02*
X52370000Y-66127846D01*
X52370000Y-66127846D02*
X52370000Y-46894946D01*
X52370000Y-46894946D02*
X49920054Y-44445000D01*
%TO.N,Y3*%
X39370000Y-40635000D02*
X40640000Y-39365000D01*
X40640000Y-39365000D02*
X48260000Y-39365000D01*
X48260000Y-39365000D02*
X49530000Y-40635000D01*
%TO.N,Y4*%
X39370000Y-43175000D02*
X40640000Y-41905000D01*
X40640000Y-41905000D02*
X48260000Y-41905000D01*
X48260000Y-41905000D02*
X49530000Y-43175000D01*
%TO.N,Y5*%
X39370000Y-45715000D02*
X40640000Y-44445000D01*
X40640000Y-44445000D02*
X48260000Y-44445000D01*
X48260000Y-44445000D02*
X49530000Y-45715000D01*
%TO.N,Y8*%
X39370000Y-48255000D02*
X40640000Y-46985000D01*
X40640000Y-46985000D02*
X48260000Y-46985000D01*
X48260000Y-46985000D02*
X49530000Y-48255000D01*
%TO.N,X1*%
X39370000Y-55875000D02*
X40640000Y-54605000D01*
X40640000Y-54605000D02*
X48260000Y-54605000D01*
X48260000Y-54605000D02*
X49530000Y-55875000D01*
%TO.N,X3*%
X39370000Y-58415000D02*
X40640000Y-57145000D01*
X40640000Y-57145000D02*
X48260000Y-57145000D01*
X48260000Y-57145000D02*
X49530000Y-58415000D01*
%TO.N,Y9*%
X39370000Y-60955000D02*
X40640000Y-59685000D01*
X48260000Y-59685000D02*
X49530000Y-60955000D01*
X40640000Y-59685000D02*
X48260000Y-59685000D01*
%TO.N,SHFT\u002A*%
X39370000Y-63495000D02*
X40640000Y-62225000D01*
X40640000Y-62225000D02*
X48260000Y-62225000D01*
X48260000Y-62225000D02*
X49530000Y-63495000D01*
%TO.N,X6*%
X39370000Y-66035000D02*
X40640000Y-64765000D01*
X40640000Y-64765000D02*
X48260000Y-64765000D01*
X48260000Y-64765000D02*
X49530000Y-66035000D01*
%TO.N,SM0{slash}OAPL'*%
X49920054Y-44445000D02*
X49110000Y-44445000D01*
X47840000Y-43175000D02*
X46990000Y-43175000D01*
X49110000Y-44445000D02*
X47840000Y-43175000D01*
X47050000Y-27935000D02*
X51155000Y-32040000D01*
X51155000Y-32040000D02*
X51155000Y-43210054D01*
X51155000Y-43210054D02*
X49920054Y-44445000D01*
%TO.N,Net-(JP4-A)*%
X31750000Y-44445000D02*
X31750000Y-46955000D01*
D20*
X31750000Y-46955000D02*
X31720000Y-46985000D01*
D19*
%TO.N,Net-(JP5-A)*%
X31750000Y-57145000D02*
X31750000Y-54635000D01*
D20*
X31750000Y-54635000D02*
X31720000Y-54605000D01*
D19*
%TO.N,X2*%
X39370000Y-53335000D02*
X40540344Y-52164656D01*
X40540344Y-52164656D02*
X48359656Y-52164656D01*
X48359656Y-52164656D02*
X49530000Y-53335000D01*
%TO.N,X0*%
X39370000Y-50795000D02*
X40540344Y-49624656D01*
X48359656Y-49624656D02*
X49530000Y-50795000D01*
X40540344Y-49624656D02*
X48359656Y-49624656D01*
%TO.N,Y2*%
X39370000Y-38095000D02*
X40540344Y-36924656D01*
X40540344Y-36924656D02*
X48359656Y-36924656D01*
X48359656Y-36924656D02*
X49530000Y-38095000D01*
%TO.N,Y1*%
X39370000Y-35555000D02*
X40545000Y-34380000D01*
X40545000Y-34380000D02*
X48355000Y-34380000D01*
X48355000Y-34380000D02*
X49530000Y-35555000D01*
%TD*%
M02*
