%TF.GenerationSoftware,KiCad,Pcbnew,7.0.8*%
%TF.CreationDate,2024-12-22T17:31:23+01:00*%
%TF.ProjectId,pctransporter,70637472-616e-4737-906f-727465722e6b,rev?*%
%TF.SameCoordinates,Original*%
%TF.FileFunction,Legend,Bot*%
%TF.FilePolarity,Positive*%
%FSLAX46Y46*%
G04 Gerber Fmt 4.6, Leading zero omitted, Abs format (unit mm)*
G04 Created by KiCad (PCBNEW 7.0.8) date 2024-12-22 17:31:23*
%MOMM*%
%LPD*%
G01*
G04 APERTURE LIST*
%ADD10C,0.150000*%
%ADD11C,0.120000*%
G04 APERTURE END LIST*
D10*
X38949523Y-32239819D02*
X38949523Y-32954104D01*
X38949523Y-32954104D02*
X38997142Y-33096961D01*
X38997142Y-33096961D02*
X39092380Y-33192200D01*
X39092380Y-33192200D02*
X39235237Y-33239819D01*
X39235237Y-33239819D02*
X39330475Y-33239819D01*
X37949523Y-33239819D02*
X38520951Y-33239819D01*
X38235237Y-33239819D02*
X38235237Y-32239819D01*
X38235237Y-32239819D02*
X38330475Y-32382676D01*
X38330475Y-32382676D02*
X38425713Y-32477914D01*
X38425713Y-32477914D02*
X38520951Y-32525533D01*
X37616189Y-32239819D02*
X36949523Y-32239819D01*
X36949523Y-32239819D02*
X37378094Y-33239819D01*
X34784819Y-59804524D02*
X34118152Y-59804524D01*
X34213390Y-59804524D02*
X34165771Y-59852143D01*
X34165771Y-59852143D02*
X34118152Y-59947381D01*
X34118152Y-59947381D02*
X34118152Y-60090238D01*
X34118152Y-60090238D02*
X34165771Y-60185476D01*
X34165771Y-60185476D02*
X34261009Y-60233095D01*
X34261009Y-60233095D02*
X34784819Y-60233095D01*
X34261009Y-60233095D02*
X34165771Y-60280714D01*
X34165771Y-60280714D02*
X34118152Y-60375952D01*
X34118152Y-60375952D02*
X34118152Y-60518809D01*
X34118152Y-60518809D02*
X34165771Y-60614048D01*
X34165771Y-60614048D02*
X34261009Y-60661667D01*
X34261009Y-60661667D02*
X34784819Y-60661667D01*
X34784819Y-61566428D02*
X34261009Y-61566428D01*
X34261009Y-61566428D02*
X34165771Y-61518809D01*
X34165771Y-61518809D02*
X34118152Y-61423571D01*
X34118152Y-61423571D02*
X34118152Y-61233095D01*
X34118152Y-61233095D02*
X34165771Y-61137857D01*
X34737200Y-61566428D02*
X34784819Y-61471190D01*
X34784819Y-61471190D02*
X34784819Y-61233095D01*
X34784819Y-61233095D02*
X34737200Y-61137857D01*
X34737200Y-61137857D02*
X34641961Y-61090238D01*
X34641961Y-61090238D02*
X34546723Y-61090238D01*
X34546723Y-61090238D02*
X34451485Y-61137857D01*
X34451485Y-61137857D02*
X34403866Y-61233095D01*
X34403866Y-61233095D02*
X34403866Y-61471190D01*
X34403866Y-61471190D02*
X34356247Y-61566428D01*
X34784819Y-62042619D02*
X34118152Y-62042619D01*
X33784819Y-62042619D02*
X33832438Y-61995000D01*
X33832438Y-61995000D02*
X33880057Y-62042619D01*
X33880057Y-62042619D02*
X33832438Y-62090238D01*
X33832438Y-62090238D02*
X33784819Y-62042619D01*
X33784819Y-62042619D02*
X33880057Y-62042619D01*
X34118152Y-62518809D02*
X34784819Y-62518809D01*
X34213390Y-62518809D02*
X34165771Y-62566428D01*
X34165771Y-62566428D02*
X34118152Y-62661666D01*
X34118152Y-62661666D02*
X34118152Y-62804523D01*
X34118152Y-62804523D02*
X34165771Y-62899761D01*
X34165771Y-62899761D02*
X34261009Y-62947380D01*
X34261009Y-62947380D02*
X34784819Y-62947380D01*
X34784819Y-63423571D02*
X33784819Y-63423571D01*
X34165771Y-63423571D02*
X34118152Y-63518809D01*
X34118152Y-63518809D02*
X34118152Y-63709285D01*
X34118152Y-63709285D02*
X34165771Y-63804523D01*
X34165771Y-63804523D02*
X34213390Y-63852142D01*
X34213390Y-63852142D02*
X34308628Y-63899761D01*
X34308628Y-63899761D02*
X34594342Y-63899761D01*
X34594342Y-63899761D02*
X34689580Y-63852142D01*
X34689580Y-63852142D02*
X34737200Y-63804523D01*
X34737200Y-63804523D02*
X34784819Y-63709285D01*
X34784819Y-63709285D02*
X34784819Y-63518809D01*
X34784819Y-63518809D02*
X34737200Y-63423571D01*
X34784819Y-64471190D02*
X34737200Y-64375952D01*
X34737200Y-64375952D02*
X34689580Y-64328333D01*
X34689580Y-64328333D02*
X34594342Y-64280714D01*
X34594342Y-64280714D02*
X34308628Y-64280714D01*
X34308628Y-64280714D02*
X34213390Y-64328333D01*
X34213390Y-64328333D02*
X34165771Y-64375952D01*
X34165771Y-64375952D02*
X34118152Y-64471190D01*
X34118152Y-64471190D02*
X34118152Y-64614047D01*
X34118152Y-64614047D02*
X34165771Y-64709285D01*
X34165771Y-64709285D02*
X34213390Y-64756904D01*
X34213390Y-64756904D02*
X34308628Y-64804523D01*
X34308628Y-64804523D02*
X34594342Y-64804523D01*
X34594342Y-64804523D02*
X34689580Y-64756904D01*
X34689580Y-64756904D02*
X34737200Y-64709285D01*
X34737200Y-64709285D02*
X34784819Y-64614047D01*
X34784819Y-64614047D02*
X34784819Y-64471190D01*
X34784819Y-65661666D02*
X34261009Y-65661666D01*
X34261009Y-65661666D02*
X34165771Y-65614047D01*
X34165771Y-65614047D02*
X34118152Y-65518809D01*
X34118152Y-65518809D02*
X34118152Y-65328333D01*
X34118152Y-65328333D02*
X34165771Y-65233095D01*
X34737200Y-65661666D02*
X34784819Y-65566428D01*
X34784819Y-65566428D02*
X34784819Y-65328333D01*
X34784819Y-65328333D02*
X34737200Y-65233095D01*
X34737200Y-65233095D02*
X34641961Y-65185476D01*
X34641961Y-65185476D02*
X34546723Y-65185476D01*
X34546723Y-65185476D02*
X34451485Y-65233095D01*
X34451485Y-65233095D02*
X34403866Y-65328333D01*
X34403866Y-65328333D02*
X34403866Y-65566428D01*
X34403866Y-65566428D02*
X34356247Y-65661666D01*
X34784819Y-66137857D02*
X34118152Y-66137857D01*
X34308628Y-66137857D02*
X34213390Y-66185476D01*
X34213390Y-66185476D02*
X34165771Y-66233095D01*
X34165771Y-66233095D02*
X34118152Y-66328333D01*
X34118152Y-66328333D02*
X34118152Y-66423571D01*
X34784819Y-67185476D02*
X33784819Y-67185476D01*
X34737200Y-67185476D02*
X34784819Y-67090238D01*
X34784819Y-67090238D02*
X34784819Y-66899762D01*
X34784819Y-66899762D02*
X34737200Y-66804524D01*
X34737200Y-66804524D02*
X34689580Y-66756905D01*
X34689580Y-66756905D02*
X34594342Y-66709286D01*
X34594342Y-66709286D02*
X34308628Y-66709286D01*
X34308628Y-66709286D02*
X34213390Y-66756905D01*
X34213390Y-66756905D02*
X34165771Y-66804524D01*
X34165771Y-66804524D02*
X34118152Y-66899762D01*
X34118152Y-66899762D02*
X34118152Y-67090238D01*
X34118152Y-67090238D02*
X34165771Y-67185476D01*
D11*
%TO.C,J17*%
X35540000Y-34225000D02*
X35540000Y-35555000D01*
X38140000Y-36825000D02*
X35540000Y-36825000D01*
X35540000Y-36825000D02*
X35540000Y-67365000D01*
X40740000Y-34225000D02*
X40740000Y-67365000D01*
X40740000Y-67365000D02*
X35540000Y-67365000D01*
X38140000Y-34225000D02*
X38140000Y-36825000D01*
X36870000Y-34225000D02*
X35540000Y-34225000D01*
X40740000Y-34225000D02*
X38140000Y-34225000D01*
%TD*%
M02*
