%TF.GenerationSoftware,KiCad,Pcbnew,7.0.8*%
%TF.CreationDate,2026-01-30T12:11:21+01:00*%
%TF.ProjectId,colorswitch,636f6c6f-7273-4776-9974-63682e6b6963,rev?*%
%TF.SameCoordinates,Original*%
%TF.FileFunction,Soldermask,Bot*%
%TF.FilePolarity,Negative*%
%FSLAX46Y46*%
G04 Gerber Fmt 4.6, Leading zero omitted, Abs format (unit mm)*
G04 Created by KiCad (PCBNEW 7.0.8) date 2026-01-30 12:11:21*
%MOMM*%
%LPD*%
G01*
G04 APERTURE LIST*
%ADD10R,1.500000X1.050000*%
%ADD11O,1.500000X1.050000*%
%ADD12O,1.600000X1.600000*%
%ADD13C,1.600000*%
%ADD14R,1.700000X1.700000*%
%ADD15O,1.700000X1.700000*%
%ADD16C,1.700000*%
%ADD17R,1.600000X1.600000*%
%ADD18C,2.000000*%
%ADD19R,1.050000X1.500000*%
%ADD20O,1.050000X1.500000*%
%ADD21C,4.000000*%
%ADD22R,3.480000X1.846667*%
G04 APERTURE END LIST*
D10*
%TO.C,Q2*%
X175248159Y-78085000D03*
D11*
X175248159Y-79355000D03*
X175248159Y-80625000D03*
%TD*%
D12*
%TO.C,R30*%
X155575000Y-114935000D03*
D13*
X145415000Y-114935000D03*
%TD*%
%TO.C,R23*%
X130175000Y-105410000D03*
D12*
X140335000Y-105410000D03*
%TD*%
D14*
%TO.C,J2*%
X124587000Y-80030000D03*
D15*
X127127000Y-80030000D03*
X129667000Y-80030000D03*
X132207000Y-80030000D03*
X134747000Y-80030000D03*
X137287000Y-80030000D03*
%TD*%
D14*
%TO.C,J3*%
X116705000Y-80030000D03*
D15*
X114165000Y-80030000D03*
%TD*%
D13*
%TO.C,R5*%
X160020000Y-114935000D03*
D12*
X170180000Y-114935000D03*
%TD*%
D16*
%TO.C,J3*%
X101859000Y-92710000D03*
D15*
X99319000Y-92710000D03*
%TD*%
D12*
%TO.C,R13*%
X125095000Y-105537000D03*
D13*
X114935000Y-105537000D03*
%TD*%
%TO.C,R15*%
X114935000Y-114935000D03*
D12*
X125095000Y-114935000D03*
%TD*%
D14*
%TO.C,J1*%
X101854000Y-80010000D03*
D15*
X99314000Y-80010000D03*
X101854000Y-82550000D03*
X99314000Y-82550000D03*
X101854000Y-85090000D03*
X99314000Y-85090000D03*
X101854000Y-87630000D03*
X99314000Y-87630000D03*
X101854000Y-90170000D03*
X99314000Y-90170000D03*
%TD*%
D17*
%TO.C,U2*%
X109728000Y-92710000D03*
D12*
X112268000Y-92710000D03*
X114808000Y-92710000D03*
X117348000Y-92710000D03*
X119888000Y-92710000D03*
X122428000Y-92710000D03*
X124968000Y-92710000D03*
X124968000Y-85090000D03*
X122428000Y-85090000D03*
X119888000Y-85090000D03*
X117348000Y-85090000D03*
X114808000Y-85090000D03*
X112268000Y-85090000D03*
X109728000Y-85090000D03*
%TD*%
D18*
%TO.C,C3*%
X143683159Y-80010000D03*
X151183159Y-80010000D03*
%TD*%
D13*
%TO.C,R11*%
X114935000Y-96647000D03*
D12*
X125095000Y-96647000D03*
%TD*%
D13*
%TO.C,R17*%
X99695000Y-100985000D03*
D12*
X109855000Y-100985000D03*
%TD*%
D19*
%TO.C,Q8*%
X154478159Y-80030000D03*
D20*
X155748159Y-80030000D03*
X157018159Y-80030000D03*
%TD*%
D13*
%TO.C,R26*%
X145415000Y-96540000D03*
D12*
X155575000Y-96540000D03*
%TD*%
%TO.C,R27*%
X155575000Y-100985000D03*
D13*
X145415000Y-100985000D03*
%TD*%
D10*
%TO.C,Q3*%
X175248159Y-99040000D03*
D11*
X175248159Y-100310000D03*
X175248159Y-101580000D03*
%TD*%
D13*
%TO.C,R19*%
X99695000Y-110383000D03*
D12*
X109855000Y-110383000D03*
%TD*%
D13*
%TO.C,R29*%
X145415000Y-110490000D03*
D12*
X155575000Y-110490000D03*
%TD*%
D13*
%TO.C,R4*%
X160020000Y-92075000D03*
D12*
X170180000Y-92075000D03*
%TD*%
D13*
%TO.C,R14*%
X114935000Y-110490000D03*
D12*
X125095000Y-110490000D03*
%TD*%
D13*
%TO.C,R18*%
X99695000Y-105430000D03*
D12*
X109855000Y-105430000D03*
%TD*%
D10*
%TO.C,Q6*%
X175248159Y-106025000D03*
D11*
X175248159Y-107295000D03*
X175248159Y-108565000D03*
%TD*%
D13*
%TO.C,R16*%
X99695000Y-96540000D03*
D12*
X109855000Y-96540000D03*
%TD*%
D13*
%TO.C,R8*%
X170180000Y-83185000D03*
D12*
X160020000Y-83185000D03*
%TD*%
D13*
%TO.C,R10*%
X170180000Y-110363000D03*
D12*
X160020000Y-110363000D03*
%TD*%
D13*
%TO.C,R3*%
X160020000Y-100965000D03*
D12*
X170180000Y-100965000D03*
%TD*%
D13*
%TO.C,R25*%
X130175000Y-114955000D03*
D12*
X140335000Y-114955000D03*
%TD*%
D13*
%TO.C,R6*%
X160020000Y-105664000D03*
D12*
X170180000Y-105664000D03*
%TD*%
D13*
%TO.C,C1*%
X129286000Y-86400000D03*
X129286000Y-91400000D03*
%TD*%
D10*
%TO.C,Q5*%
X175248159Y-113010000D03*
D11*
X175248159Y-114280000D03*
X175248159Y-115550000D03*
%TD*%
D10*
%TO.C,Q1*%
X175248159Y-85070000D03*
D11*
X175248159Y-86340000D03*
X175248159Y-87610000D03*
%TD*%
D13*
%TO.C,R2*%
X160020000Y-78740000D03*
D12*
X170180000Y-78740000D03*
%TD*%
D13*
%TO.C,R9*%
X170180000Y-96520000D03*
D12*
X160020000Y-96520000D03*
%TD*%
D10*
%TO.C,Q4*%
X175248159Y-92055000D03*
D11*
X175248159Y-93325000D03*
X175248159Y-94595000D03*
%TD*%
D13*
%TO.C,R22*%
X130175000Y-100985000D03*
D12*
X140335000Y-100985000D03*
%TD*%
D13*
%TO.C,R28*%
X145415000Y-105410000D03*
D12*
X155575000Y-105410000D03*
%TD*%
D13*
%TO.C,R20*%
X99695000Y-114935000D03*
D12*
X109855000Y-114935000D03*
%TD*%
D13*
%TO.C,C2*%
X106426000Y-91400000D03*
X106426000Y-86400000D03*
%TD*%
%TO.C,R21*%
X130175000Y-96540000D03*
D12*
X140335000Y-96540000D03*
%TD*%
D16*
%TO.C,J3*%
X101835000Y-77470000D03*
D15*
X99295000Y-77470000D03*
%TD*%
D21*
%TO.C,J4*%
X184138159Y-113470000D03*
X184138159Y-80170000D03*
D17*
X182718159Y-87125000D03*
D13*
X182718159Y-89895000D03*
X182718159Y-92665000D03*
X182718159Y-95435000D03*
X182718159Y-98205000D03*
X182718159Y-100975000D03*
X182718159Y-103745000D03*
X182718159Y-106515000D03*
X185558159Y-88510000D03*
X185558159Y-91280000D03*
X185558159Y-94050000D03*
X185558159Y-96820000D03*
X185558159Y-99590000D03*
X185558159Y-102360000D03*
X185558159Y-105130000D03*
%TD*%
D17*
%TO.C,U1*%
X132593000Y-92730000D03*
D12*
X135133000Y-92730000D03*
X137673000Y-92730000D03*
X140213000Y-92730000D03*
X142753000Y-92730000D03*
X145293000Y-92730000D03*
X147833000Y-92730000D03*
X150373000Y-92730000D03*
X152913000Y-92730000D03*
X155453000Y-92730000D03*
X155453000Y-85110000D03*
X152913000Y-85110000D03*
X150373000Y-85110000D03*
X147833000Y-85110000D03*
X145293000Y-85110000D03*
X142753000Y-85110000D03*
X140213000Y-85110000D03*
X137673000Y-85110000D03*
X135133000Y-85110000D03*
X132593000Y-85110000D03*
%TD*%
D13*
%TO.C,R1*%
X160020000Y-87630000D03*
D12*
X170180000Y-87630000D03*
%TD*%
D13*
%TO.C,R24*%
X130175000Y-110490000D03*
D12*
X140335000Y-110490000D03*
%TD*%
D22*
%TO.C,J5*%
X191665500Y-105084000D03*
X191665500Y-102314000D03*
X191665500Y-99544000D03*
X191665500Y-96774000D03*
X191665500Y-94004000D03*
X191665500Y-91234000D03*
X191665500Y-88464000D03*
%TD*%
D13*
%TO.C,R12*%
X114935000Y-101092000D03*
D12*
X125095000Y-101092000D03*
%TD*%
M02*
