M48
; DRILL file {KiCad 7.0.8} date 2026 January 30, Friday 11:51:19
; FORMAT={-:-/ absolute / inch / decimal}
; #@! TF.CreationDate,2026-01-30T11:51:19+01:00
; #@! TF.GenerationSoftware,Kicad,Pcbnew,7.0.8
; #@! TF.FileFunction,Plated,1,2,PTH
FMAT,2
INCH
; #@! TA.AperFunction,Plated,PTH,ViaDrill
T1C0.0157
; #@! TA.AperFunction,Plated,PTH,ViaDrill
T2C0.0295
; #@! TA.AperFunction,Plated,PTH,ComponentDrill
T3C0.0295
; #@! TA.AperFunction,Plated,PTH,ComponentDrill
T4C0.0315
; #@! TA.AperFunction,Plated,PTH,ComponentDrill
T5C0.0394
; #@! TA.AperFunction,Plated,PTH,ComponentDrill
T6C0.1260
%
G90
G05
T1
X4.72Y-3.764
T2
X4.387Y-3.1528
T3
X6.0818Y-3.1508
X6.1318Y-3.1508
X6.1818Y-3.1508
X6.8995Y-3.0742
X6.8995Y-3.1242
X6.8995Y-3.1742
X6.8995Y-3.3492
X6.8995Y-3.3992
X6.8995Y-3.4492
X6.8995Y-3.6242
X6.8995Y-3.6742
X6.8995Y-3.7242
X6.8995Y-3.8992
X6.8995Y-3.9492
X6.8995Y-3.9992
X6.8995Y-4.1742
X6.8995Y-4.2242
X6.8995Y-4.2742
X6.8995Y-4.4492
X6.8995Y-4.4992
X6.8995Y-4.5492
T4
X3.925Y-3.8008
X3.925Y-3.9758
X3.925Y-4.1508
X3.925Y-4.3458
X3.925Y-4.525
X4.19Y-3.4016
X4.19Y-3.5984
X4.32Y-3.35
X4.32Y-3.65
X4.325Y-3.8008
X4.325Y-3.9758
X4.325Y-4.1508
X4.325Y-4.3458
X4.325Y-4.525
X4.42Y-3.35
X4.42Y-3.65
X4.52Y-3.35
X4.52Y-3.65
X4.525Y-3.805
X4.525Y-3.98
X4.525Y-4.155
X4.525Y-4.35
X4.525Y-4.525
X4.62Y-3.35
X4.62Y-3.65
X4.72Y-3.35
X4.72Y-3.65
X4.82Y-3.35
X4.82Y-3.65
X4.92Y-3.35
X4.92Y-3.65
X4.925Y-3.805
X4.925Y-3.98
X4.925Y-4.155
X4.925Y-4.35
X4.925Y-4.525
X5.09Y-3.4016
X5.09Y-3.5984
X5.125Y-3.8008
X5.125Y-3.9758
X5.125Y-4.15
X5.125Y-4.35
X5.125Y-4.5258
X5.2202Y-3.3508
X5.2202Y-3.6508
X5.3202Y-3.3508
X5.3202Y-3.6508
X5.4202Y-3.3508
X5.4202Y-3.6508
X5.5202Y-3.3508
X5.5202Y-3.6508
X5.525Y-3.8008
X5.525Y-3.9758
X5.525Y-4.15
X5.525Y-4.35
X5.525Y-4.5258
X5.6202Y-3.3508
X5.6202Y-3.6508
X5.7202Y-3.3508
X5.7202Y-3.6508
X5.725Y-3.8008
X5.725Y-3.9758
X5.725Y-4.15
X5.725Y-4.35
X5.725Y-4.525
X5.8202Y-3.3508
X5.8202Y-3.6508
X5.9202Y-3.3508
X5.9202Y-3.6508
X6.0202Y-3.3508
X6.0202Y-3.6508
X6.1202Y-3.3508
X6.1202Y-3.6508
X6.125Y-3.8008
X6.125Y-3.9758
X6.125Y-4.15
X6.125Y-4.35
X6.125Y-4.525
X6.3Y-3.1
X6.3Y-3.275
X6.3Y-3.45
X6.3Y-3.625
X6.3Y-3.8
X6.3Y-3.975
X6.3Y-4.16
X6.3Y-4.345
X6.3Y-4.525
X6.7Y-3.1
X6.7Y-3.275
X6.7Y-3.45
X6.7Y-3.625
X6.7Y-3.8
X6.7Y-3.975
X6.7Y-4.16
X6.7Y-4.345
X6.7Y-4.525
T5
X3.9093Y-3.05
X3.91Y-3.15
X3.91Y-3.25
X3.91Y-3.35
X3.91Y-3.45
X3.91Y-3.55
X3.9102Y-3.65
X4.0093Y-3.05
X4.01Y-3.15
X4.01Y-3.25
X4.01Y-3.35
X4.01Y-3.45
X4.01Y-3.55
X4.0102Y-3.65
X4.4947Y-3.1508
X4.5947Y-3.1508
X4.905Y-3.1508
X5.005Y-3.1508
X5.105Y-3.1508
X5.205Y-3.1508
X5.305Y-3.1508
X5.405Y-3.1508
X5.6568Y-3.15
X5.9521Y-3.15
X7.1936Y-3.4301
X7.1936Y-3.5392
X7.1936Y-3.6482
X7.1936Y-3.7573
X7.1936Y-3.8663
X7.1936Y-3.9754
X7.1936Y-4.0844
X7.1936Y-4.1935
X7.3054Y-3.4846
X7.3054Y-3.5937
X7.3054Y-3.7028
X7.3054Y-3.8118
X7.3054Y-3.9209
X7.3054Y-4.0299
X7.3054Y-4.139
T6
X7.2495Y-3.1563
X7.2495Y-4.4673
T0
M30
