%TF.GenerationSoftware,KiCad,Pcbnew,7.0.8*%
%TF.CreationDate,2025-04-13T22:57:16+02:00*%
%TF.ProjectId,colorswitch,636f6c6f-7273-4776-9974-63682e6b6963,rev?*%
%TF.SameCoordinates,Original*%
%TF.FileFunction,Copper,L1,Top*%
%TF.FilePolarity,Positive*%
%FSLAX46Y46*%
G04 Gerber Fmt 4.6, Leading zero omitted, Abs format (unit mm)*
G04 Created by KiCad (PCBNEW 7.0.8) date 2025-04-13 22:57:16*
%MOMM*%
%LPD*%
G01*
G04 APERTURE LIST*
%TA.AperFunction,ComponentPad*%
%ADD10C,1.600000*%
%TD*%
%TA.AperFunction,ComponentPad*%
%ADD11O,1.600000X1.600000*%
%TD*%
%TA.AperFunction,ComponentPad*%
%ADD12R,1.700000X1.700000*%
%TD*%
%TA.AperFunction,ComponentPad*%
%ADD13O,1.700000X1.700000*%
%TD*%
%TA.AperFunction,ComponentPad*%
%ADD14R,1.600000X1.600000*%
%TD*%
%TA.AperFunction,ComponentPad*%
%ADD15C,2.000000*%
%TD*%
%TA.AperFunction,ComponentPad*%
%ADD16R,1.050000X1.500000*%
%TD*%
%TA.AperFunction,ComponentPad*%
%ADD17O,1.050000X1.500000*%
%TD*%
%TA.AperFunction,ComponentPad*%
%ADD18R,1.500000X1.050000*%
%TD*%
%TA.AperFunction,ComponentPad*%
%ADD19O,1.500000X1.050000*%
%TD*%
%TA.AperFunction,SMDPad,CuDef*%
%ADD20R,1.500000X1.000000*%
%TD*%
%TA.AperFunction,ComponentPad*%
%ADD21C,4.000000*%
%TD*%
%TA.AperFunction,ViaPad*%
%ADD22C,1.000000*%
%TD*%
%TA.AperFunction,Conductor*%
%ADD23C,0.750000*%
%TD*%
%TA.AperFunction,Conductor*%
%ADD24C,0.250000*%
%TD*%
G04 APERTURE END LIST*
D10*
%TO.P,R30,1*%
%TO.N,Net-(Q8-B)*%
X144537841Y-115082000D03*
D11*
%TO.P,R30,2*%
%TO.N,GND1*%
X154697841Y-115082000D03*
%TD*%
D10*
%TO.P,R23,1*%
%TO.N,CG*%
X128281841Y-105430000D03*
D11*
%TO.P,R23,2*%
%TO.N,GND1*%
X138441841Y-105430000D03*
%TD*%
D12*
%TO.P,J2,1,Pin_1*%
%TO.N,Net-(J2-Pin_1)*%
X126376841Y-80030000D03*
D13*
%TO.P,J2,2,Pin_2*%
%TO.N,unconnected-(J2-Pin_2-Pad2)*%
X128916841Y-80030000D03*
%TO.P,J2,3,Pin_3*%
%TO.N,Net-(J2-Pin_3)*%
X131456841Y-80030000D03*
%TO.P,J2,4,Pin_4*%
%TO.N,Net-(J2-Pin_4)*%
X133996841Y-80030000D03*
%TO.P,J2,5,Pin_5*%
%TO.N,Net-(J2-Pin_5)*%
X136536841Y-80030000D03*
%TO.P,J2,6,Pin_6*%
%TO.N,GND*%
X139076841Y-80030000D03*
%TD*%
D12*
%TO.P,J3,1,Pin_1*%
%TO.N,GND*%
X115896841Y-80030000D03*
D13*
%TO.P,J3,2,Pin_2*%
%TO.N,VCC*%
X113356841Y-80030000D03*
%TD*%
D10*
%TO.P,R5,1*%
%TO.N,VCC*%
X162571841Y-114955000D03*
D11*
%TO.P,R5,2*%
%TO.N,Net-(Q5-C)*%
X172731841Y-114955000D03*
%TD*%
D10*
%TO.P,R13,1*%
%TO.N,CB*%
X112406841Y-105430000D03*
D11*
%TO.P,R13,2*%
%TO.N,GND1*%
X122566841Y-105430000D03*
%TD*%
D10*
%TO.P,R15,1*%
%TO.N,CB*%
X112406841Y-114955000D03*
D11*
%TO.P,R15,2*%
%TO.N,XB*%
X122566841Y-114955000D03*
%TD*%
D12*
%TO.P,J1,1,Pin_1*%
%TO.N,GND*%
X99066841Y-78765000D03*
D13*
%TO.P,J1,2,Pin_2*%
%TO.N,INT*%
X96526841Y-78765000D03*
%TO.P,J1,3,Pin_3*%
%TO.N,ENABLE*%
X99066841Y-81305000D03*
%TO.P,J1,4,Pin_4*%
%TO.N,CS*%
X96526841Y-81305000D03*
%TO.P,J1,5,Pin_5*%
%TO.N,R*%
X99066841Y-83845000D03*
%TO.P,J1,6,Pin_6*%
%TO.N,unconnected-(J1-Pin_6-Pad6)*%
X96526841Y-83845000D03*
%TO.P,J1,7,Pin_7*%
%TO.N,G*%
X99066841Y-86385000D03*
%TO.P,J1,8,Pin_8*%
%TO.N,unconnected-(J1-Pin_8-Pad8)*%
X96526841Y-86385000D03*
%TO.P,J1,9,Pin_9*%
%TO.N,B*%
X99066841Y-88925000D03*
%TO.P,J1,10,Pin_10*%
%TO.N,VCC*%
X96526841Y-88925000D03*
%TD*%
D14*
%TO.P,U2,1*%
%TO.N,B*%
X106056841Y-92730000D03*
D11*
%TO.P,U2,2*%
%TO.N,Net-(Q8-C)*%
X108596841Y-92730000D03*
%TO.P,U2,3*%
%TO.N,XB*%
X111136841Y-92730000D03*
%TO.P,U2,4*%
%TO.N,R*%
X113676841Y-92730000D03*
%TO.P,U2,5*%
%TO.N,Net-(Q8-C)*%
X116216841Y-92730000D03*
%TO.P,U2,6*%
%TO.N,XR*%
X118756841Y-92730000D03*
%TO.P,U2,7,GND*%
%TO.N,GND1*%
X121296841Y-92730000D03*
%TO.P,U2,8*%
%TO.N,XG*%
X121296841Y-85110000D03*
%TO.P,U2,9*%
%TO.N,G*%
X118756841Y-85110000D03*
%TO.P,U2,10*%
%TO.N,Net-(Q8-C)*%
X116216841Y-85110000D03*
%TO.P,U2,11*%
%TO.N,XINT*%
X113676841Y-85110000D03*
%TO.P,U2,12*%
%TO.N,INT*%
X111136841Y-85110000D03*
%TO.P,U2,13*%
%TO.N,Net-(Q8-C)*%
X108596841Y-85110000D03*
%TO.P,U2,14,VCC*%
%TO.N,VCC*%
X106056841Y-85110000D03*
%TD*%
D15*
%TO.P,C3,1*%
%TO.N,CS*%
X144851841Y-80030000D03*
%TO.P,C3,2*%
%TO.N,Net-(Q8-B)*%
X152351841Y-80030000D03*
%TD*%
D10*
%TO.P,R11,1*%
%TO.N,CB*%
X112406841Y-96540000D03*
D11*
%TO.P,R11,2*%
%TO.N,CS*%
X122566841Y-96540000D03*
%TD*%
D10*
%TO.P,R17,1*%
%TO.N,CR*%
X96531841Y-100985000D03*
D11*
%TO.P,R17,2*%
%TO.N,XINT*%
X106691841Y-100985000D03*
%TD*%
D16*
%TO.P,Q8,1,E*%
%TO.N,VCC*%
X156221841Y-80030000D03*
D17*
%TO.P,Q8,2,B*%
%TO.N,Net-(Q8-B)*%
X157491841Y-80030000D03*
%TO.P,Q8,3,C*%
%TO.N,Net-(Q8-C)*%
X158761841Y-80030000D03*
%TD*%
D10*
%TO.P,R26,1*%
%TO.N,Net-(Q3-B)*%
X144537841Y-96540000D03*
D11*
%TO.P,R26,2*%
%TO.N,Net-(J2-Pin_4)*%
X154697841Y-96540000D03*
%TD*%
D10*
%TO.P,R27,1*%
%TO.N,Net-(Q5-B)*%
X144537841Y-100985000D03*
D11*
%TO.P,R27,2*%
%TO.N,Net-(J2-Pin_3)*%
X154697841Y-100985000D03*
%TD*%
D18*
%TO.P,Q3,1,E*%
%TO.N,RED*%
X180986841Y-99080000D03*
D19*
%TO.P,Q3,2,B*%
%TO.N,Net-(Q3-B)*%
X180986841Y-100350000D03*
%TO.P,Q3,3,C*%
%TO.N,Net-(Q3-C)*%
X180986841Y-101620000D03*
%TD*%
D10*
%TO.P,R19,1*%
%TO.N,CR*%
X96531841Y-110383000D03*
D11*
%TO.P,R19,2*%
%TO.N,VCC*%
X106691841Y-110383000D03*
%TD*%
D18*
%TO.P,Q2,1,E*%
%TO.N,BLUE*%
X180986841Y-78125000D03*
D19*
%TO.P,Q2,2,B*%
%TO.N,CB*%
X180986841Y-79395000D03*
%TO.P,Q2,3,C*%
%TO.N,Net-(Q2-C)*%
X180986841Y-80665000D03*
%TD*%
D10*
%TO.P,R29,1*%
%TO.N,GND1*%
X144537841Y-110510000D03*
D11*
%TO.P,R29,2*%
%TO.N,Net-(Q8-C)*%
X154697841Y-110510000D03*
%TD*%
D10*
%TO.P,R4,1*%
%TO.N,VCC*%
X162571841Y-92095000D03*
D11*
%TO.P,R4,2*%
%TO.N,Net-(Q4-C)*%
X172731841Y-92095000D03*
%TD*%
D10*
%TO.P,R14,1*%
%TO.N,CB*%
X112406841Y-110383000D03*
D11*
%TO.P,R14,2*%
%TO.N,VCC*%
X122566841Y-110383000D03*
%TD*%
D10*
%TO.P,R18,1*%
%TO.N,CR*%
X96531841Y-105430000D03*
D11*
%TO.P,R18,2*%
%TO.N,GND1*%
X106691841Y-105430000D03*
%TD*%
D20*
%TO.P,JP1,1,A*%
%TO.N,GND*%
X107621841Y-79365000D03*
%TO.P,JP1,2,B*%
%TO.N,GND1*%
X107621841Y-80665000D03*
%TD*%
D18*
%TO.P,Q6,1,E*%
%TO.N,GREEN*%
X180986841Y-106065000D03*
D19*
%TO.P,Q6,2,B*%
%TO.N,CG*%
X180986841Y-107335000D03*
%TO.P,Q6,3,C*%
%TO.N,Net-(Q6-C)*%
X180986841Y-108605000D03*
%TD*%
D10*
%TO.P,R16,1*%
%TO.N,CR*%
X96531841Y-96540000D03*
D11*
%TO.P,R16,2*%
%TO.N,CS*%
X106691841Y-96540000D03*
%TD*%
D10*
%TO.P,R8,1*%
%TO.N,Net-(Q1-B)*%
X172731841Y-83205000D03*
D11*
%TO.P,R8,2*%
%TO.N,VCC*%
X162571841Y-83205000D03*
%TD*%
D10*
%TO.P,R10,1*%
%TO.N,Net-(Q5-B)*%
X172731841Y-110383000D03*
D11*
%TO.P,R10,2*%
%TO.N,VCC*%
X162571841Y-110383000D03*
%TD*%
D10*
%TO.P,R3,1*%
%TO.N,VCC*%
X162571841Y-100985000D03*
D11*
%TO.P,R3,2*%
%TO.N,Net-(Q3-C)*%
X172731841Y-100985000D03*
%TD*%
D10*
%TO.P,R25,1*%
%TO.N,CG*%
X128281841Y-114955000D03*
D11*
%TO.P,R25,2*%
%TO.N,XG*%
X138441841Y-114955000D03*
%TD*%
D10*
%TO.P,R6,1*%
%TO.N,VCC*%
X162571841Y-105684000D03*
D11*
%TO.P,R6,2*%
%TO.N,Net-(Q6-C)*%
X172731841Y-105684000D03*
%TD*%
D10*
%TO.P,C1,1*%
%TO.N,VCC*%
X125106841Y-86420000D03*
%TO.P,C1,2*%
%TO.N,GND1*%
X125106841Y-91420000D03*
%TD*%
D18*
%TO.P,Q5,1,E*%
%TO.N,GREEN*%
X180986841Y-113050000D03*
D19*
%TO.P,Q5,2,B*%
%TO.N,Net-(Q5-B)*%
X180986841Y-114320000D03*
%TO.P,Q5,3,C*%
%TO.N,Net-(Q5-C)*%
X180986841Y-115590000D03*
%TD*%
D18*
%TO.P,Q1,1,E*%
%TO.N,BLUE*%
X180986841Y-85110000D03*
D19*
%TO.P,Q1,2,B*%
%TO.N,Net-(Q1-B)*%
X180986841Y-86380000D03*
%TO.P,Q1,3,C*%
%TO.N,Net-(Q1-C)*%
X180986841Y-87650000D03*
%TD*%
D10*
%TO.P,R2,1*%
%TO.N,VCC*%
X162571841Y-78760000D03*
D11*
%TO.P,R2,2*%
%TO.N,Net-(Q2-C)*%
X172731841Y-78760000D03*
%TD*%
D10*
%TO.P,R9,1*%
%TO.N,Net-(Q3-B)*%
X172731841Y-96540000D03*
D11*
%TO.P,R9,2*%
%TO.N,VCC*%
X162571841Y-96540000D03*
%TD*%
D18*
%TO.P,Q4,1,E*%
%TO.N,RED*%
X180986841Y-92095000D03*
D19*
%TO.P,Q4,2,B*%
%TO.N,CR*%
X180986841Y-93365000D03*
%TO.P,Q4,3,C*%
%TO.N,Net-(Q4-C)*%
X180986841Y-94635000D03*
%TD*%
D10*
%TO.P,R22,1*%
%TO.N,CG*%
X128281841Y-100985000D03*
D11*
%TO.P,R22,2*%
%TO.N,XINT*%
X138441841Y-100985000D03*
%TD*%
D10*
%TO.P,R28,1*%
%TO.N,Net-(Q1-B)*%
X144537841Y-105684000D03*
D11*
%TO.P,R28,2*%
%TO.N,Net-(J2-Pin_5)*%
X154697841Y-105684000D03*
%TD*%
D10*
%TO.P,R20,1*%
%TO.N,CR*%
X96531841Y-115082000D03*
D11*
%TO.P,R20,2*%
%TO.N,XR*%
X106691841Y-115082000D03*
%TD*%
D10*
%TO.P,C2,1*%
%TO.N,VCC*%
X155586841Y-91420000D03*
%TO.P,C2,2*%
%TO.N,GND1*%
X155586841Y-86420000D03*
%TD*%
%TO.P,R21,1*%
%TO.N,CG*%
X128281841Y-96540000D03*
D11*
%TO.P,R21,2*%
%TO.N,CS*%
X138441841Y-96540000D03*
%TD*%
D21*
%TO.P,J4,0*%
%TO.N,N/C*%
X190470000Y-113490000D03*
X190470000Y-80190000D03*
D14*
%TO.P,J4,1,1*%
%TO.N,GND1*%
X189050000Y-87145000D03*
D10*
%TO.P,J4,2,2*%
%TO.N,RED*%
X189050000Y-89915000D03*
%TO.P,J4,3,3*%
%TO.N,CSYNC*%
X189050000Y-92685000D03*
%TO.P,J4,4,4*%
%TO.N,unconnected-(J4-Pad4)*%
X189050000Y-95455000D03*
%TO.P,J4,5,5*%
%TO.N,GREEN*%
X189050000Y-98225000D03*
%TO.P,J4,6,6*%
%TO.N,GND1*%
X189050000Y-100995000D03*
%TO.P,J4,7,7*%
%TO.N,unconnected-(J4-Pad7)*%
X189050000Y-103765000D03*
%TO.P,J4,8,8*%
%TO.N,unconnected-(J4-Pad8)*%
X189050000Y-106535000D03*
%TO.P,J4,9,P9*%
%TO.N,BLUE*%
X191890000Y-88530000D03*
%TO.P,J4,10,P10*%
%TO.N,unconnected-(J4-P10-Pad10)*%
X191890000Y-91300000D03*
%TO.P,J4,11,P111*%
%TO.N,unconnected-(J4-P111-Pad11)*%
X191890000Y-94070000D03*
%TO.P,J4,12,P12*%
%TO.N,unconnected-(J4-P12-Pad12)*%
X191890000Y-96840000D03*
%TO.P,J4,13,P13*%
%TO.N,GND1*%
X191890000Y-99610000D03*
%TO.P,J4,14,P14*%
%TO.N,unconnected-(J4-P14-Pad14)*%
X191890000Y-102380000D03*
%TO.P,J4,15,P15*%
%TO.N,unconnected-(J4-P15-Pad15)*%
X191890000Y-105150000D03*
%TD*%
D14*
%TO.P,U1,1*%
%TO.N,ENABLE*%
X128916841Y-92730000D03*
D11*
%TO.P,U1,2*%
%TO.N,Net-(J2-Pin_1)*%
X131456841Y-92730000D03*
%TO.P,U1,3*%
%TO.N,CSYNC*%
X133996841Y-92730000D03*
%TO.P,U1,4*%
%TO.N,GND1*%
X136536841Y-92730000D03*
%TO.P,U1,5*%
%TO.N,Net-(Q3-B)*%
X139076841Y-92730000D03*
%TO.P,U1,6*%
%TO.N,GND1*%
X141616841Y-92730000D03*
%TO.P,U1,7*%
%TO.N,Net-(Q5-B)*%
X144156841Y-92730000D03*
%TO.P,U1,8*%
%TO.N,GND1*%
X146696841Y-92730000D03*
%TO.P,U1,9*%
%TO.N,Net-(Q1-B)*%
X149236841Y-92730000D03*
%TO.P,U1,10,GND*%
%TO.N,GND1*%
X151776841Y-92730000D03*
%TO.P,U1,11*%
X151776841Y-85110000D03*
%TO.P,U1,12*%
%TO.N,CG*%
X149236841Y-85110000D03*
%TO.P,U1,13*%
%TO.N,GND1*%
X146696841Y-85110000D03*
%TO.P,U1,14*%
%TO.N,CR*%
X144156841Y-85110000D03*
%TO.P,U1,15*%
%TO.N,GND1*%
X141616841Y-85110000D03*
%TO.P,U1,16*%
%TO.N,CB*%
X139076841Y-85110000D03*
%TO.P,U1,17*%
%TO.N,CS*%
X136536841Y-85110000D03*
%TO.P,U1,18*%
%TO.N,CSYNC*%
X133996841Y-85110000D03*
%TO.P,U1,19*%
%TO.N,ENABLE*%
X131456841Y-85110000D03*
%TO.P,U1,20,VCC*%
%TO.N,VCC*%
X128916841Y-85110000D03*
%TD*%
D10*
%TO.P,R1,1*%
%TO.N,VCC*%
X162571841Y-87650000D03*
D11*
%TO.P,R1,2*%
%TO.N,Net-(Q1-C)*%
X172731841Y-87650000D03*
%TD*%
D10*
%TO.P,R24,1*%
%TO.N,CG*%
X128281841Y-110383000D03*
D11*
%TO.P,R24,2*%
%TO.N,VCC*%
X138441841Y-110383000D03*
%TD*%
D10*
%TO.P,R12,1*%
%TO.N,CB*%
X112406841Y-100985000D03*
D11*
%TO.P,R12,2*%
%TO.N,XINT*%
X122566841Y-100985000D03*
%TD*%
D22*
%TO.N,GND1*%
X110621841Y-80080000D03*
%TD*%
D23*
%TO.N,VCC*%
X162571841Y-87650000D02*
X162571841Y-92095000D01*
X125106841Y-84475000D02*
X123201841Y-82570000D01*
X98436841Y-94145000D02*
X96526841Y-92235000D01*
X98436841Y-102128000D02*
X98436841Y-94145000D01*
X106056841Y-89555000D02*
X106056841Y-85110000D01*
X108596841Y-82570000D02*
X106056841Y-85110000D01*
X162571841Y-96540000D02*
X162571841Y-100985000D01*
X106691841Y-110383000D02*
X98436841Y-102128000D01*
X162571841Y-83205000D02*
X162571841Y-87650000D01*
X123201841Y-82570000D02*
X108596841Y-82570000D01*
X96526841Y-92235000D02*
X96526841Y-88925000D01*
X162571841Y-110383000D02*
X162571841Y-115082000D01*
D24*
X122693841Y-110510000D02*
X122566841Y-110383000D01*
D23*
X125106841Y-86420000D02*
X125106841Y-84475000D01*
X162571841Y-78760000D02*
X162571841Y-83205000D01*
X128916841Y-85110000D02*
X126416841Y-85110000D01*
X126416841Y-85110000D02*
X125106841Y-86420000D01*
X162571841Y-105684000D02*
X162571841Y-100985000D01*
X162571841Y-110383000D02*
X162571841Y-105684000D01*
X98371841Y-94000000D02*
X101611841Y-94000000D01*
X101611841Y-94000000D02*
X106056841Y-89555000D01*
X162571841Y-92095000D02*
X162571841Y-96540000D01*
D24*
X98331841Y-94040000D02*
X98371841Y-94000000D01*
%TO.N,GND1*%
X122566841Y-105430000D02*
X121296841Y-104160000D01*
X155586841Y-86420000D02*
X155586841Y-88920000D01*
X154951841Y-92730000D02*
X158126841Y-95905000D01*
D23*
X110621841Y-80080000D02*
X110036841Y-80665000D01*
X110036841Y-80665000D02*
X107621841Y-80665000D01*
D24*
X155588237Y-107970000D02*
X153931841Y-107970000D01*
X153931841Y-107970000D02*
X153371841Y-108530000D01*
X110621841Y-80080000D02*
X110521841Y-79980000D01*
X138441841Y-107335000D02*
X141616841Y-110510000D01*
X141616841Y-92730000D02*
X142741841Y-91605000D01*
X141616841Y-110510000D02*
X144537841Y-110510000D01*
X121296841Y-104160000D02*
X121296841Y-92730000D01*
X145571841Y-91605000D02*
X146696841Y-92730000D01*
X142741841Y-91605000D02*
X145571841Y-91605000D01*
X138441841Y-105430000D02*
X138441841Y-107335000D01*
X155586841Y-88920000D02*
X151776841Y-92730000D01*
X122606841Y-91420000D02*
X121296841Y-92730000D01*
X153371841Y-108530000D02*
X153371841Y-113756000D01*
X153371841Y-113756000D02*
X154697841Y-115082000D01*
X158126841Y-95905000D02*
X158126841Y-105431396D01*
X125106841Y-91420000D02*
X122606841Y-91420000D01*
X158126841Y-105431396D02*
X155588237Y-107970000D01*
X151776841Y-92730000D02*
X154951841Y-92730000D01*
%TO.N,CS*%
X136536841Y-94635000D02*
X130186841Y-94635000D01*
X130186841Y-94635000D02*
X130186841Y-91460000D01*
X138441841Y-96540000D02*
X136536841Y-94635000D01*
X130186841Y-91460000D02*
X136536841Y-85110000D01*
X124471841Y-94635000D02*
X130186841Y-94635000D01*
X122566841Y-96540000D02*
X124471841Y-94635000D01*
%TO.N,Net-(Q8-B)*%
X153681841Y-81360000D02*
X152351841Y-80030000D01*
X152351841Y-80030000D02*
X153621841Y-78760000D01*
X157676841Y-101805000D02*
X150506841Y-94635000D01*
X157676841Y-105245000D02*
X157676841Y-101805000D01*
X153681841Y-88763061D02*
X153681841Y-81360000D01*
X144537841Y-115082000D02*
X145934841Y-115082000D01*
X157491841Y-79395000D02*
X157491841Y-80030000D01*
X153621841Y-78760000D02*
X156856841Y-78760000D01*
X150506841Y-91938061D02*
X153681841Y-88763061D01*
X150506841Y-94635000D02*
X150506841Y-91938061D01*
X156856841Y-78760000D02*
X157491841Y-79395000D01*
X145934841Y-115082000D02*
X153681841Y-107335000D01*
X153681841Y-107335000D02*
X155586841Y-107335000D01*
X155586841Y-107335000D02*
X157676841Y-105245000D01*
%TO.N,BLUE*%
X182371841Y-83725000D02*
X182371841Y-78760000D01*
X181736841Y-78125000D02*
X180986841Y-78125000D01*
X182371841Y-78760000D02*
X181736841Y-78125000D01*
X180986841Y-85110000D02*
X182371841Y-83725000D01*
X180986841Y-85110000D02*
X180996841Y-85100000D01*
X190002000Y-85100000D02*
X191890000Y-86988000D01*
X191890000Y-86988000D02*
X191890000Y-88530000D01*
X180996841Y-85100000D02*
X190002000Y-85100000D01*
%TO.N,Net-(Q1-B)*%
X172731841Y-83205000D02*
X175906841Y-86380000D01*
X153046841Y-87650000D02*
X153046841Y-83840000D01*
X181140031Y-86380000D02*
X180986841Y-86380000D01*
X149236841Y-91460000D02*
X153046841Y-87650000D01*
X150506841Y-81300000D02*
X150506841Y-78760000D01*
X170191841Y-83205000D02*
X172731841Y-83205000D01*
X164476841Y-77490000D02*
X170191841Y-83205000D01*
X175906841Y-86380000D02*
X180986841Y-86380000D01*
X153046841Y-83840000D02*
X150506841Y-81300000D01*
X149236841Y-92730000D02*
X149236841Y-91460000D01*
X151776841Y-77490000D02*
X164476841Y-77490000D01*
X150506841Y-78760000D02*
X151776841Y-77490000D01*
%TO.N,Net-(Q1-C)*%
X172731841Y-87650000D02*
X180986841Y-87650000D01*
%TO.N,CB*%
X117008780Y-86380000D02*
X117486841Y-85901939D01*
X133360445Y-87650000D02*
X135266841Y-85743604D01*
X112406841Y-96540000D02*
X112406841Y-100985000D01*
X109866841Y-92095698D02*
X115582539Y-86380000D01*
X117486841Y-84635561D02*
X118282402Y-83840000D01*
X122566841Y-85743604D02*
X124473237Y-87650000D01*
X136086841Y-83655000D02*
X137621841Y-83655000D01*
X135266841Y-84475000D02*
X136086841Y-83655000D01*
X117486841Y-85901939D02*
X117486841Y-84635561D01*
X109866841Y-94000000D02*
X109866841Y-92095698D01*
X137621841Y-83655000D02*
X139076841Y-85110000D01*
X115582539Y-86380000D02*
X117008780Y-86380000D01*
X112406841Y-100985000D02*
X112406841Y-105430000D01*
X118282402Y-83840000D02*
X121890445Y-83840000D01*
X112406841Y-96540000D02*
X109866841Y-94000000D01*
X121890445Y-83840000D02*
X122566841Y-84516396D01*
X112406841Y-105430000D02*
X112406841Y-110383000D01*
X122566841Y-84516396D02*
X122566841Y-85743604D01*
X135266841Y-85743604D02*
X135266841Y-84475000D01*
X124473237Y-87650000D02*
X133360445Y-87650000D01*
X112406841Y-114955000D02*
X112406841Y-110383000D01*
%TO.N,Net-(Q2-C)*%
X174636841Y-80665000D02*
X180986841Y-80665000D01*
X172731841Y-78760000D02*
X174636841Y-80665000D01*
%TO.N,RED*%
X183166841Y-89915000D02*
X180986841Y-92095000D01*
X189050000Y-89915000D02*
X183166841Y-89915000D01*
X182256841Y-96245000D02*
X180986841Y-97515000D01*
X182256841Y-92615000D02*
X182256841Y-96245000D01*
X180986841Y-99080000D02*
X180986841Y-97515000D01*
X180986841Y-92095000D02*
X181736841Y-92095000D01*
X181736841Y-92095000D02*
X182256841Y-92615000D01*
%TO.N,Net-(Q3-B)*%
X172731841Y-96540000D02*
X176541841Y-100350000D01*
X176541841Y-100350000D02*
X180986841Y-100350000D01*
%TO.N,Net-(Q3-C)*%
X172731841Y-100985000D02*
X173366841Y-101620000D01*
X173366841Y-101620000D02*
X180986841Y-101620000D01*
%TO.N,CR*%
X96531841Y-105430000D02*
X96531841Y-110383000D01*
X96531841Y-100985000D02*
X96531841Y-105430000D01*
X96531841Y-96540000D02*
X96531841Y-100985000D01*
X144156841Y-83009973D02*
X144156841Y-85110000D01*
X96211814Y-77080000D02*
X138226868Y-77080000D01*
X96531841Y-115082000D02*
X96531841Y-110383000D01*
X95121841Y-95130000D02*
X95121841Y-78169973D01*
X138226868Y-77080000D02*
X144156841Y-83009973D01*
X96531841Y-96540000D02*
X95121841Y-95130000D01*
X95121841Y-78169973D02*
X96211814Y-77080000D01*
%TO.N,Net-(Q4-C)*%
X175271841Y-94635000D02*
X180986841Y-94635000D01*
X172731841Y-92095000D02*
X175271841Y-94635000D01*
%TO.N,GREEN*%
X189050000Y-98225000D02*
X182085380Y-105189620D01*
X181736841Y-106065000D02*
X182256841Y-106585000D01*
X182256841Y-111780000D02*
X180986841Y-113050000D01*
X182256841Y-106585000D02*
X182256841Y-111780000D01*
X180986841Y-106065000D02*
X181736841Y-106065000D01*
X181862221Y-105189620D02*
X180986841Y-106065000D01*
X182085380Y-105189620D02*
X181862221Y-105189620D01*
%TO.N,Net-(Q5-B)*%
X144537841Y-100985000D02*
X145662841Y-102110000D01*
X145662841Y-102110000D02*
X145662841Y-111542604D01*
X142886841Y-97810000D02*
X144537841Y-99461000D01*
X176668841Y-114320000D02*
X180986841Y-114320000D01*
X142886841Y-94000000D02*
X142886841Y-97810000D01*
X166254841Y-116860000D02*
X172731841Y-110383000D01*
X142886841Y-115590000D02*
X144156841Y-116860000D01*
X144156841Y-116860000D02*
X166254841Y-116860000D01*
X172731841Y-110383000D02*
X176668841Y-114320000D01*
X145662841Y-111542604D02*
X142886841Y-114318604D01*
X144156841Y-92730000D02*
X142886841Y-94000000D01*
X142886841Y-114318604D02*
X142886841Y-115590000D01*
X144537841Y-99461000D02*
X144537841Y-100985000D01*
%TO.N,Net-(Q5-C)*%
X172731841Y-114955000D02*
X176541841Y-114955000D01*
X172731841Y-115082000D02*
X172731841Y-114955000D01*
X177176841Y-115590000D02*
X180986841Y-115590000D01*
X176541841Y-114955000D02*
X177176841Y-115590000D01*
%TO.N,CG*%
X141142402Y-91460000D02*
X140346841Y-92255561D01*
X142086841Y-91460000D02*
X141142402Y-91460000D01*
X148436841Y-85110000D02*
X142086841Y-91460000D01*
X140346841Y-92255561D02*
X140346841Y-96540000D01*
X130821841Y-96540000D02*
X128281841Y-96540000D01*
X149236841Y-85110000D02*
X148436841Y-85110000D01*
X128281841Y-100985000D02*
X128281841Y-105430000D01*
X139076841Y-97810000D02*
X132091841Y-97810000D01*
X128281841Y-105430000D02*
X128281841Y-110383000D01*
X132091841Y-97810000D02*
X130821841Y-96540000D01*
X140346841Y-96540000D02*
X139076841Y-97810000D01*
%TO.N,Net-(Q6-C)*%
X172731841Y-105684000D02*
X175652841Y-108605000D01*
X175652841Y-108605000D02*
X180986841Y-108605000D01*
%TO.N,Net-(Q8-C)*%
X116216841Y-85110000D02*
X108596841Y-92730000D01*
X158576841Y-80685000D02*
X158341841Y-80450000D01*
X154951841Y-110383000D02*
X154824841Y-110383000D01*
X154824841Y-109369792D02*
X158576841Y-105617792D01*
X158341841Y-80450000D02*
X158761841Y-80030000D01*
X154824841Y-110383000D02*
X154824841Y-109369792D01*
X158576841Y-105617792D02*
X158576841Y-80685000D01*
%TO.N,XINT*%
X135266841Y-100985000D02*
X138441841Y-100985000D01*
X133361841Y-99080000D02*
X135266841Y-100985000D01*
X122566841Y-100985000D02*
X124471841Y-99080000D01*
X124471841Y-99080000D02*
X133361841Y-99080000D01*
%TO.N,XB*%
X113531841Y-95125000D02*
X111136841Y-92730000D01*
X113531841Y-105920000D02*
X113531841Y-95125000D01*
X122566841Y-114955000D02*
X113531841Y-105920000D01*
%TO.N,XR*%
X123201841Y-116225000D02*
X123836841Y-115590000D01*
X107834841Y-116225000D02*
X123201841Y-116225000D01*
X118756841Y-104318335D02*
X118756841Y-92730000D01*
X123836841Y-115590000D02*
X123836841Y-109398335D01*
X123836841Y-109398335D02*
X118756841Y-104318335D01*
X106691841Y-115082000D02*
X107834841Y-116225000D01*
%TO.N,XG*%
X130029902Y-114955000D02*
X138441841Y-114955000D01*
X120026841Y-86380000D02*
X120026841Y-104951939D01*
X121296841Y-85110000D02*
X120026841Y-86380000D01*
X120026841Y-104951939D02*
X130029902Y-114955000D01*
%TO.N,Net-(J2-Pin_3)*%
X142886841Y-84318061D02*
X142886841Y-85982220D01*
X146092963Y-83840000D02*
X149871841Y-83840000D01*
X148111841Y-91948604D02*
X148111841Y-94399000D01*
X150506841Y-84475000D02*
X150506841Y-89553604D01*
X142886841Y-85982220D02*
X143284621Y-86380000D01*
X145426841Y-84506122D02*
X146092963Y-83840000D01*
X134181841Y-82755000D02*
X141323780Y-82755000D01*
X144948780Y-86380000D02*
X145426841Y-85901939D01*
X148111841Y-94399000D02*
X154697841Y-100985000D01*
X143284621Y-86380000D02*
X144948780Y-86380000D01*
X141323780Y-82755000D02*
X142886841Y-84318061D01*
X145426841Y-85901939D02*
X145426841Y-84506122D01*
X149871841Y-83840000D02*
X150506841Y-84475000D01*
X150506841Y-89553604D02*
X148111841Y-91948604D01*
X131456841Y-80030000D02*
X134181841Y-82755000D01*
%TO.N,ENABLE*%
X107117221Y-81870000D02*
X123491790Y-81870000D01*
X128281841Y-81935000D02*
X131456841Y-85110000D01*
X123556790Y-81935000D02*
X128281841Y-81935000D01*
X99091841Y-81280000D02*
X106527221Y-81280000D01*
X123491790Y-81870000D02*
X123556790Y-81935000D01*
X106527221Y-81280000D02*
X107117221Y-81870000D01*
X99066841Y-81305000D02*
X99091841Y-81280000D01*
%TO.N,Net-(J2-Pin_1)*%
X139711841Y-83205000D02*
X140346841Y-83840000D01*
X126376841Y-80030000D02*
X126376841Y-81300000D01*
X140346841Y-83840000D02*
X140346841Y-85903750D01*
X126561841Y-81485000D02*
X128468237Y-81485000D01*
X126376841Y-81300000D02*
X126561841Y-81485000D01*
X130188237Y-83205000D02*
X139711841Y-83205000D01*
X132726841Y-91460000D02*
X131456841Y-92730000D01*
X134790591Y-91460000D02*
X132726841Y-91460000D01*
X128468237Y-81485000D02*
X130188237Y-83205000D01*
X140346841Y-85903750D02*
X134790591Y-91460000D01*
D23*
%TO.N,GND*%
X108941841Y-77780000D02*
X113646841Y-77780000D01*
X136876841Y-77830000D02*
X139076841Y-80030000D01*
X99066841Y-78765000D02*
X99071841Y-78760000D01*
X113646841Y-77780000D02*
X115896841Y-80030000D01*
X107621841Y-79365000D02*
X107621841Y-79100000D01*
X115896841Y-80030000D02*
X118096841Y-77830000D01*
X99071841Y-78760000D02*
X107016841Y-78760000D01*
X118096841Y-77830000D02*
X136876841Y-77830000D01*
X107016841Y-78760000D02*
X107621841Y-79365000D01*
X107621841Y-79100000D02*
X108941841Y-77780000D01*
%TD*%
M02*
